<?xml version="1.0" encoding="UTF-8"?>
<!-- Generated by Pixelmator Pro 3.6.5 -->
<svg width="250" height="254" viewBox="0 0 250 254" xmlns="http://www.w3.org/2000/svg">
    <path id="path1" fill="#0073e6" fill-opacity="0.954851" fill-rule="evenodd" stroke="none" d="M 124.765526 236.997589 C 122.260696 236.978485 119.115097 236.877686 117.775299 236.77359 C 116.435501 236.669495 113.914253 236.404236 112.172516 236.184143 C 110.430771 235.96402 107.525848 235.506241 105.717125 235.166824 C 103.908409 234.827423 101.387146 234.299133 100.114342 233.992844 C 98.841537 233.686554 96.429901 233.034302 94.755157 232.543381 C 93.080406 232.052475 90.668777 231.27951 89.395966 230.825684 C 88.123161 230.371857 85.886604 229.533615 84.42585 228.962906 C 82.96508 228.392212 79.610435 226.849411 76.971054 225.534485 C 74.331688 224.219543 71.470917 222.672913 70.613808 222.097534 C 69.420502 221.296463 68.886421 220.737015 68.334038 219.709473 C 67.730919 218.587524 67.612671 218.087616 67.612671 216.659683 C 67.612671 215.23175 67.730919 214.731842 68.334038 213.609894 C 68.829353 212.688507 69.425095 212.020523 70.235077 211.478348 C 70.883904 211.044052 71.867699 210.566559 72.421303 210.417252 C 72.989998 210.26387 73.960365 210.216263 74.652023 210.307785 C 75.521652 210.422867 76.934471 211.043304 79.53019 212.449982 C 81.539886 213.539093 84.660973 215.079315 86.465935 215.872665 C 88.270905 216.666046 91.504684 217.915985 93.652115 218.650314 C 95.799561 219.384644 98.597939 220.265198 99.870743 220.607101 C 101.143547 220.949005 103.116707 221.445099 104.255531 221.709549 C 105.394356 221.973999 107.477127 222.397247 108.883919 222.650085 C 110.29071 222.902924 112.921585 223.250519 114.730309 223.422501 C 116.601791 223.600464 121.325485 223.735214 125.692284 223.735214 C 130.469864 223.735214 134.468826 223.612274 136.288864 223.409454 C 137.896606 223.230301 140.691925 222.811966 142.500641 222.479813 C 144.309372 222.147675 147.049866 221.548111 148.590637 221.147476 C 150.131393 220.746826 152.762268 219.989349 154.437012 219.464157 C 156.111755 218.938965 158.961884 217.911087 160.770599 217.179962 C 162.57933 216.448837 165.236572 215.297394 166.675583 214.621185 C 168.114594 213.944977 170.47142 212.712952 171.912979 211.883331 C 173.354523 211.053711 175.136871 209.990677 175.873764 209.521042 C 176.610657 209.051392 178.035706 208.113205 179.040558 207.436188 C 180.04541 206.759155 181.251221 205.888184 181.720154 205.500671 C 182.189087 205.113174 183.471741 204.136078 184.570496 203.329346 C 185.66925 202.522629 187.916458 200.62674 189.564285 199.116257 C 191.212097 197.605789 193.69812 195.171021 195.08876 193.705658 C 196.479385 192.240326 198.624207 189.778778 199.855026 188.235596 C 201.085831 186.692383 202.578903 184.729691 203.172974 183.874023 C 203.767044 183.018372 204.680466 181.700851 205.20282 180.946228 C 205.725159 180.191589 206.639969 178.77449 207.235718 177.797119 C 207.831482 176.819733 208.689758 175.337524 209.143021 174.503326 C 209.596298 173.669128 210.567657 171.778885 211.301636 170.302795 C 212.035599 168.826691 213.07196 166.630829 213.60463 165.423111 C 214.137314 164.215393 215.007126 162.074432 215.537552 160.665436 C 216.067963 159.256424 217.064346 156.132065 217.75174 153.722397 C 218.439133 151.312729 219.267319 147.96405 219.592148 146.280884 C 219.916992 144.597717 220.352448 142.012878 220.559845 140.536774 C 220.767242 139.060684 221.04715 136.240387 221.1819 134.26947 C 221.316635 132.298553 221.426865 129.025345 221.426865 126.995682 C 221.426865 124.966019 221.314514 121.69281 221.177261 119.721893 C 221.039932 117.750977 220.761307 114.930695 220.558044 113.45459 C 220.354767 111.9785 219.970596 109.61795 219.704346 108.208939 C 219.43808 106.799927 218.902359 104.439392 218.51384 102.963287 C 218.12532 101.487198 217.419037 99.016861 216.944351 97.473663 C 216.469635 95.930466 215.596405 93.460129 215.003815 91.984024 C 214.411224 90.507935 213.541565 88.396072 213.071243 87.291 C 212.600906 86.185944 211.26442 83.452759 210.101273 81.217255 C 208.507492 78.154129 207.955063 76.845779 207.859055 75.906937 C 207.788986 75.221786 207.854828 74.204742 208.005386 73.646866 C 208.155945 73.088989 208.633896 72.102936 209.067505 71.455643 C 209.656128 70.57695 210.225601 70.095963 211.314957 69.557419 C 212.445435 68.99852 213.106293 68.836075 214.249588 68.836075 C 215.267197 68.836075 216.065094 69.0009 216.820465 69.367142 C 217.422897 69.659241 218.252319 70.256226 218.663666 70.693802 C 219.074997 71.131378 220.024826 72.587326 220.774399 73.929245 C 221.523987 75.271149 222.785614 77.741486 223.578018 79.418869 C 224.370422 81.096252 225.588852 83.895966 226.285629 85.640457 C 226.982452 87.384949 227.968246 90.019958 228.476257 91.496063 C 228.984268 92.972153 229.792389 95.607178 230.272034 97.351669 C 230.751678 99.096161 231.477646 102.060547 231.885284 103.939224 C 232.292908 105.817902 232.90036 109.307663 233.235199 111.694229 C 233.569962 114.080795 233.972809 117.75885 234.130356 119.867676 C 234.309967 122.271118 234.360992 125.93251 234.267105 129.679504 C 234.184723 132.967163 233.951523 137.02951 233.748993 138.706909 C 233.546371 140.384293 233.205414 142.846039 232.99118 144.17746 C 232.776962 145.508881 232.33226 147.924316 232.002899 149.545105 C 231.673553 151.165894 231.075409 153.754593 230.673691 155.297791 C 230.272034 156.840988 229.34108 159.892715 228.604965 162.079407 C 227.868805 164.266098 226.660187 167.504974 225.919098 169.276917 C 225.17804 171.048859 223.90184 173.871048 223.083115 175.548431 C 222.26442 177.22583 220.88385 179.86084 220.015213 181.404053 C 219.146561 182.947235 217.615875 185.472473 216.613678 187.015656 C 215.611465 188.558868 213.852921 191.084091 212.70578 192.627289 C 211.55864 194.170486 209.528336 196.75061 208.193985 198.360901 C 206.85965 199.971207 204.109558 202.935608 202.082718 204.948471 C 200.055847 206.961334 197.303375 209.555679 195.96611 210.713699 C 194.62886 211.871704 192.328903 213.725311 190.855133 214.832794 C 189.381363 215.940308 186.587021 217.893417 184.645538 219.173065 C 182.704025 220.452713 179.998169 222.12204 178.632553 222.882675 C 177.266907 223.643295 174.580246 225.041901 172.66217 225.990662 C 170.74411 226.939423 167.530487 228.375336 165.520798 229.181564 C 163.511093 229.987793 160.27948 231.155548 158.339417 231.776596 C 156.399338 232.397644 153.549225 233.222992 152.005829 233.610718 C 150.462402 233.998428 147.500534 234.646774 145.423843 235.051468 C 143.347153 235.456161 140.277802 235.955322 138.603058 236.16069 C 136.928314 236.366058 134.154434 236.646194 132.438904 236.783203 C 130.723358 236.920212 127.27034 237.016693 124.765526 236.997589 Z M 36.730389 184.947144 C 36.019958 184.999222 35.068535 184.947998 34.616119 184.833313 C 34.163704 184.718643 33.341557 184.309769 32.789124 183.924713 C 32.236691 183.539673 31.343298 182.554199 30.803812 181.734818 C 30.26432 180.915405 28.791933 178.117783 27.531837 175.517868 C 26.271742 172.917953 24.778822 169.637939 24.214241 168.228928 C 23.64966 166.819916 22.634581 164.020203 21.958508 162.007339 C 21.282438 159.994476 20.346781 156.920288 19.879274 155.175797 C 19.411764 153.431305 18.754938 150.631592 18.419659 148.954224 C 18.084379 147.276825 17.586683 144.477112 17.313671 142.732635 C 17.040659 140.988144 16.709106 138.188446 16.576895 136.511047 C 16.444681 134.833664 16.263456 131.759476 16.17417 129.679504 C 16.081297 127.515892 16.132038 123.966446 16.292759 121.384064 C 16.447264 118.901535 16.735401 115.552841 16.933062 113.942566 C 17.130722 112.332275 17.503559 109.807037 17.761587 108.330933 C 18.019617 106.854843 18.567482 104.164917 18.979065 102.353333 C 19.390652 100.541763 20.10688 97.742035 20.570686 96.131744 C 21.034494 94.521469 21.917309 91.776642 22.532503 90.032166 C 23.147694 88.287674 24.321136 85.323273 25.140146 83.444595 C 25.959162 81.565918 27.169285 78.930908 27.829308 77.588989 C 28.489334 76.247086 29.530798 74.270828 30.143669 73.197281 C 30.756546 72.123749 31.827824 70.31218 32.524292 69.171555 C 33.22076 68.03093 34.362244 66.252792 35.060928 65.220123 C 35.759621 64.187454 36.788151 62.69162 37.346577 61.896042 C 37.904995 61.100449 38.816402 59.859299 39.371929 59.137924 C 39.927452 58.416534 41.637207 56.399017 43.171391 54.654526 C 44.70557 52.910034 47.594456 49.889343 49.591129 47.941864 C 51.587807 45.994385 54.208023 43.568924 55.413845 42.551926 C 56.619663 41.534958 59.250534 39.501343 61.260231 38.032822 C 63.269928 36.564316 65.900795 34.744553 67.106621 33.988937 C 68.312439 33.233353 70.695129 31.830078 72.401505 30.870651 C 74.10788 29.911209 76.957993 28.432587 78.735092 27.584793 C 80.512192 26.736984 83.512741 25.433136 85.402985 24.687302 C 87.293221 23.941528 90.198135 22.885864 91.858368 22.341415 C 93.518585 21.797028 96.630875 20.908508 98.774544 20.366943 C 100.918221 19.825394 104.261627 19.10759 106.20433 18.771881 C 108.147026 18.436157 110.88752 18.004349 112.294312 17.812347 C 113.701103 17.620361 117.138412 17.331573 119.9328 17.170609 C 123.854881 16.944687 126.200912 16.943451 130.220535 17.165054 C 133.084412 17.322952 136.279068 17.570282 137.319809 17.714676 C 138.36055 17.85907 140.527496 18.188232 142.135239 18.446182 C 143.742996 18.704102 146.373886 19.192291 147.981628 19.531143 C 149.589386 19.869934 151.891403 20.413574 153.097214 20.739197 C 154.30304 21.064774 156.623001 21.766022 158.252701 22.297501 C 159.882401 22.828979 162.51326 23.756058 164.099091 24.357605 C 165.684906 24.959167 168.430649 26.121368 170.200745 26.940216 C 171.97084 27.759064 174.801895 29.163025 176.491989 30.06015 C 178.182053 30.95726 180.062469 32.129974 180.670654 32.666153 C 181.278854 33.202377 181.96965 34.092468 182.205795 34.644241 C 182.441925 35.195984 182.708267 36.081268 182.797653 36.611542 C 182.910767 37.282608 182.80864 38.066895 182.46167 39.191757 C 182.073013 40.451721 181.731979 41.021301 180.913879 41.776566 C 180.336761 42.309372 179.350067 42.942108 178.721222 43.182648 C 177.879959 43.504425 177.17041 43.587234 176.035873 43.496017 C 174.75148 43.392761 174.110687 43.156418 172.199753 42.08107 C 170.937943 41.371033 168.944672 40.315964 167.770218 39.73645 C 166.595779 39.156967 164.238953 38.086288 162.532837 37.357178 C 160.826721 36.628098 158.170181 35.598801 156.62941 35.069885 C 155.088638 34.540955 152.128922 33.656143 150.052231 33.103638 C 147.97554 32.551132 144.467712 31.774765 142.25705 31.378342 C 140.046371 30.981903 136.867401 30.512375 135.192657 30.334839 C 133.399139 30.144806 129.244263 30.012177 125.083275 30.012177 C 120.855392 30.012177 116.845184 30.141861 115.095711 30.335205 C 113.487953 30.512878 110.586235 30.929489 108.64743 31.260941 C 106.708656 31.592422 103.420059 32.293091 101.339447 32.817993 C 99.258858 33.342896 95.94101 34.327667 93.966454 35.006424 C 91.991905 35.685165 89.206818 36.740845 87.777367 37.352356 C 86.347923 37.963882 83.85273 39.124588 82.232483 39.931732 C 80.612244 40.738861 78.519257 41.845505 77.58139 42.390945 C 76.643532 42.936356 75.108864 43.876419 74.170998 44.479965 C 73.233139 45.083481 71.643654 46.134079 70.638809 46.814575 C 69.633965 47.495087 67.989662 48.671448 66.984818 49.428726 C 65.979973 50.186005 63.787575 52.016068 62.112827 53.495529 C 60.438084 54.974976 57.959358 57.323196 56.604546 58.71376 C 55.249744 60.10434 53.233494 62.285126 52.124004 63.559937 C 51.014515 64.834747 49.374157 66.865906 48.478767 68.073624 C 47.583382 69.281357 46.184875 71.257614 45.370987 72.465332 C 44.557106 73.673065 43.325809 75.594437 42.634792 76.735046 C 41.943764 77.875671 40.487148 80.565598 39.397873 82.712646 C 38.30859 84.859711 36.93325 87.769211 36.341572 89.178223 C 35.749889 90.587234 34.890934 92.837967 34.432774 94.179886 C 33.974617 95.52179 33.222729 97.882324 32.761913 99.425537 C 32.301098 100.968735 31.596502 103.658646 31.19614 105.403137 C 30.795778 107.147614 30.242279 110.105255 29.966137 111.975662 C 29.689999 113.846054 29.356855 116.865356 29.225822 118.685196 C 29.09479 120.505051 28.98662 124.250275 28.985443 127.007912 C 28.984268 129.765549 29.099697 133.498489 29.241955 135.303345 C 29.384212 137.1082 29.715624 140.06308 29.978422 141.86972 C 30.241224 143.676361 30.794516 146.640778 31.207956 148.457275 C 31.621399 150.273788 32.339317 153.072235 32.803329 154.676056 C 33.267349 156.279907 34.17606 159.032181 34.822704 160.792267 C 35.469341 162.552338 36.533459 165.192657 37.18742 166.659622 C 37.841381 168.126587 39.185913 170.863953 40.175282 172.742615 C 41.164654 174.621307 42.122055 176.707367 42.302845 177.378311 C 42.55669 178.320374 42.571499 178.889435 42.367847 179.876709 C 42.222809 180.57988 41.755424 181.668579 41.329205 182.296021 C 40.842804 183.012085 40.082886 183.700378 39.288181 184.144638 C 38.470905 184.601517 37.564194 184.885986 36.730389 184.947144 Z M 126.301285 167.370819 C 124.023636 167.423737 121.393387 167.361511 120.456284 167.232574 C 119.519211 167.103638 117.600868 166.736633 116.193306 166.417023 C 114.785751 166.097427 112.371803 165.345459 110.828972 164.746033 C 109.286163 164.146576 107.065681 163.120453 105.894592 162.465759 C 104.723518 161.811066 102.794754 160.586716 101.608467 159.744995 C 100.422173 158.90329 98.251213 156.981903 96.784119 155.475281 C 95.317017 153.968658 93.314156 151.583145 92.333336 150.174133 C 91.352509 148.765121 89.917503 146.291595 89.144432 144.677383 C 88.371368 143.063171 87.346237 140.483047 86.866371 138.943756 C 86.386505 137.40448 85.824623 135.211823 85.617744 134.071198 C 85.410866 132.930603 85.17469 130.402054 85.092903 128.452225 C 84.982552 125.82135 85.046867 124.151901 85.342316 121.978622 C 85.561272 120.36795 86.01194 118.010712 86.343796 116.740326 C 86.675644 115.469925 87.270981 113.593201 87.666786 112.569824 C 88.062584 111.546448 88.894135 109.696609 89.514679 108.459076 C 90.135223 107.221558 91.097977 105.533646 91.654121 104.70816 C 92.210274 103.882675 93.233025 102.487259 93.926895 101.607224 C 94.620766 100.727203 95.940529 99.237717 96.859711 98.297287 C 97.778885 97.356842 99.30941 95.971695 100.260864 95.219162 C 101.212326 94.466629 102.786499 93.335373 103.759026 92.705261 C 104.731567 92.07515 106.573189 91.070053 107.85154 90.471741 C 109.129883 89.873428 111.282776 89.014099 112.635742 88.562119 C 113.988731 88.110153 116.335083 87.487473 117.849876 87.17836 C 120.112755 86.716644 121.374069 86.616394 124.920883 86.616394 C 127.961319 86.616394 130.012131 86.74704 131.856644 87.058289 C 133.297028 87.301315 135.32431 87.754608 136.36171 88.065628 C 137.399124 88.376617 139.388611 89.105225 140.782806 89.684738 C 142.177002 90.264267 144.312286 91.336472 145.527863 92.067444 C 146.743454 92.798416 148.395752 93.893204 149.199631 94.500336 C 150.00351 95.107452 151.458099 96.319733 152.432053 97.194275 C 153.406006 98.068848 154.839783 99.559952 155.618225 100.507874 C 156.396683 101.45578 157.711029 103.23497 158.538986 104.461639 C 159.366959 105.688309 160.590744 107.837509 161.25853 109.237625 C 161.9263 110.637741 162.860672 112.912872 163.334915 114.293442 C 163.809143 115.674011 164.440155 118.19101 164.737167 119.886765 C 165.14859 122.235779 165.277191 123.928558 165.277191 126.995682 C 165.277191 130.062805 165.14859 131.755585 164.737167 134.104599 C 164.440155 135.800354 163.812881 138.306488 163.343185 139.673798 C 162.87352 141.041107 162.004364 143.184967 161.411743 144.437988 C 160.819138 145.690994 159.816208 147.521667 159.183014 148.506134 C 158.54982 149.490631 157.451263 151.064682 156.741776 152.004013 C 156.032272 152.943344 154.428726 154.717453 153.178314 155.946472 C 151.927887 157.175476 149.869232 158.922546 148.6035 159.828827 C 147.337784 160.735138 145.56546 161.894791 144.665009 162.405853 C 143.764557 162.916901 142.059662 163.73819 140.876343 164.230942 C 139.693024 164.723694 137.889496 165.385437 136.8685 165.701477 C 135.847534 166.017517 133.983994 166.500763 132.72731 166.77536 C 131.092926 167.132507 129.26358 167.302017 126.301285 167.370819 Z"/>
</svg>
