<?xml version="1.0" encoding="UTF-8"?>
<!-- Generated by Pixelmator Pro 3.6.4 -->
<svg width="1340" height="470" viewBox="0 0 1340 470" xmlns="http://www.w3.org/2000/svg">
    <g id="g1">
        <g id="g2">
            <g id="g3" opacity="0.5">
                <path id="path1" fill="#ffffff" fill-opacity="0.5" stroke="none" d="M 456.035004 171.882019 L 455.394012 172.229004 C 369.390015 219.462006 300.65799 294.894012 261.882996 384.630005 L 261.593994 385.299011 L 468.929993 475.569 L 469.221985 474.891998 C 488.175995 430.770996 521.968018 393.64801 564.380005 370.372009 L 565.017029 370.024994 L 456.035004 171.882019 Z M 563.044983 369.463989 C 520.866028 392.791992 487.230011 429.747009 468.187012 473.651001 C 466.88501 473.088013 264.867004 385.13501 263.52301 384.548004 C 302.128998 295.622986 370.247009 220.85498 455.466003 173.871002 C 456.178009 175.15802 562.362976 368.220001 563.044983 369.463989 Z"/>
                <path id="path2" fill="#ffffff" fill-opacity="0.5" stroke="none" d="M 342.67099 351.752991 L 342.270996 352.360992 C 303.382996 412.640991 281.634003 485.329987 281.028015 557.031006 L 281.023987 557.757996 L 472.350006 559.94397 L 472.364014 559.208984 C 472.660004 522.411011 483.391998 486.580994 503.380981 455.580994 L 503.771973 454.970001 L 342.67099 351.752991 Z M 501.781982 455.420013 C 482.028992 486.300995 471.373993 521.898987 470.942993 558.46698 C 469.542999 558.448975 283.972992 556.338989 282.506989 556.320984 C 283.242004 485.371002 304.744995 413.5 343.112 353.773987 C 344.350006 354.554993 500.611023 454.664001 501.781982 455.420013 Z"/>
                <path id="path3" fill="#ffffff" fill-opacity="0.5" stroke="none" d="M 482.802002 399.875 L 482.326996 400.425995 C 467.062012 418.122009 454.324005 437.985992 444.472992 459.480011 L 444.171997 460.136993 L 533.781006 501.010986 L 534.086975 500.359009 C 540.08197 487.332001 547.775024 475.341003 556.945007 464.713989 L 557.424011 464.165009 L 482.802002 399.875 Z M 555.383972 464.328003 C 546.487 474.747986 538.995972 486.432007 533.09198 499.098999 C 531.851013 498.531006 447.46701 460.048004 446.127014 459.431 C 455.781006 438.549988 468.169006 419.213989 482.975006 401.942993 C 484.088989 402.902008 554.346008 463.437012 555.383972 464.328003 Z"/>
                <path id="path4" fill="#ffffff" fill-opacity="0.5" stroke="none" d="M 643.64801 181.276001 C 607.153015 183.822021 571.601013 191.380981 537.994019 203.747986 L 537.307007 203.998993 L 571.215027 296.471985 L 571.898987 296.222992 C 596.762024 287.059998 623.166016 281.451996 650.392029 279.537994 L 651.114014 279.48999 L 644.372986 181.226013 L 643.64801 181.276001 Z M 566.981995 195.917999 C 591.606018 189.041016 617.075989 184.654999 643.025024 182.794006 C 643.125 184.257996 649.471008 276.774994 649.562988 278.156006 C 630.09198 279.570007 611.04303 282.854004 592.671021 287.981995 C 585.702026 289.928009 578.843018 292.147003 572.088989 294.613007 C 571.606018 293.307007 539.679993 206.242004 539.185974 204.878998 C 548.317017 201.536987 557.580994 198.539001 566.981995 195.917999 Z"/>
                <path id="path5" fill="#ffffff" fill-opacity="0.5" stroke="none" d="M 600.166016 236.184021 C 547.507996 247.372986 497.994995 271.369995 457.003998 305.579987 L 456.437988 306.044006 L 562.531982 433.729004 L 563.088013 433.263 C 583.489014 416.260986 608.213989 404.265991 634.590027 398.579987 L 635.299011 398.428986 L 600.882019 236.033997 L 600.166016 236.184021 Z M 580.349976 242.549988 C 586.757019 240.756012 593.237976 239.181 599.763 237.778992 C 600.073975 239.230988 633.294983 395.972992 633.58197 397.334991 C 630.507996 398.006012 627.442017 398.756012 624.414001 399.597992 C 601.76001 405.931 580.619019 416.92099 562.731995 431.692993 C 561.836975 430.617004 459.446991 307.384003 458.502014 306.247986 C 493.934021 276.820007 535.695007 255.013 580.349976 242.549988 Z"/>
                <path id="path6" fill="#ffffff" fill-opacity="0.5" stroke="none" d="M 1052.290039 335.731995 C 1002.810059 251.559998 925.307983 185.177002 834.057983 148.825989 L 833.385986 148.559998 L 749.578003 358.588989 L 750.255981 358.852997 C 795.315002 376.807007 833.445007 409.46701 857.622009 450.811005 L 857.992004 451.444 L 1052.650024 336.360992 L 1052.290039 335.731995 Z M 1050.640015 335.850006 C 1049.380005 336.595001 859.718018 448.738007 858.497986 449.457001 C 834.254028 408.333008 796.299011 375.825989 751.46698 357.786011 C 751.987976 356.476013 833.646973 151.830017 834.192017 150.464996 C 924.625 186.666016 1001.440002 252.466003 1050.640015 335.850006 Z"/>
                <path id="path7" fill="#ffffff" fill-opacity="0.5" stroke="none" d="M 868.801025 228.225006 C 807.35199 191.319 734.023987 171.820984 662.33197 173.324005 L 661.603027 173.339996 L 665.320984 364.641998 L 666.047974 364.625 C 702.85498 363.911011 739.002991 373.53299 770.591003 392.434998 L 771.213989 392.809998 L 869.426025 228.598999 L 868.801025 228.225006 Z M 867.421021 229.113007 C 866.669983 230.36499 771.414978 389.640991 770.700989 390.833008 C 739.242981 372.164001 703.333984 362.606995 666.744995 363.18399 C 666.721008 361.79599 663.11499 176.242004 663.088013 174.774994 C 734.036011 173.434021 806.538025 192.705994 867.421021 229.113007 Z"/>
                <path id="path8" fill="#ffffff" fill-opacity="0.5" stroke="none" d="M 825.083008 369.678986 C 806.609985 354.792999 786.356018 342.691986 764.872986 333.700012 L 764.208984 333.42099 L 726.127991 424.26001 L 726.799011 424.540985 C 739.677979 429.924988 751.89502 437.22699 763.11499 446.23999 L 763.679016 446.694 L 825.648987 370.139008 L 825.083008 369.678986 Z M 823.585999 370.372009 C 822.656982 371.514008 764.314026 443.605011 763.445984 444.670013 C 752.474976 435.936005 740.567017 428.822998 728.025024 423.502014 C 728.557007 422.235992 764.405029 336.709991 764.973022 335.35199 C 785.857971 344.161011 805.567993 355.938995 823.585999 370.372009 Z"/>
                <path id="path9" fill="#ffffff" fill-opacity="0.5" stroke="none" d="M 1023.359985 419.247986 L 1023.089966 418.57901 L 931.715027 455.354004 L 931.992981 456.028015 C 941.898987 480.32901 948.317993 506.54303 951.075012 533.948975 L 951.150024 534.666992 L 1049.160034 524.945007 L 1049.089966 524.218994 C 1045.410034 487.519989 1036.76001 452.204987 1023.359985 419.247986 Z M 1047.550049 523.635986 C 1046.099976 523.781982 953.822998 532.939026 952.437012 533.078979 C 949.651001 506.052979 943.315979 480.184998 933.596008 456.165009 C 934.882019 455.647003 1020.910034 421.022003 1022.26001 420.480011 C 1035.369995 452.894012 1043.869995 487.588013 1047.550049 523.635986 Z"/>
                <path id="path10" fill="#ffffff" fill-opacity="0.5" stroke="none" d="M 713.026001 229.328003 C 681.851013 225.22998 649.888977 225.632996 618.023987 230.528015 L 617.304993 230.639008 L 632.38501 327.971008 L 633.103027 327.86499 C 655.77002 324.397003 678.382996 324.102997 700.31897 326.993988 L 701.041992 327.09201 L 713.745972 229.419006 L 713.026001 229.328003 Z M 712.117981 230.692017 C 711.927979 232.121002 699.960999 324.118988 699.78302 325.485992 C 678.171997 322.703003 655.916992 322.993988 633.604004 326.335999 C 633.390015 324.984985 619.190979 233.300995 618.971008 231.867004 C 650.208984 227.136993 681.533997 226.744019 712.117981 230.692017 Z"/>
                <path id="path11" fill="#ffffff" fill-opacity="0.5" stroke="none" d="M 919.073975 341.473999 L 918.594971 340.929993 L 794.241028 450.90799 L 794.723999 451.450012 C 812.651001 471.677002 825.390991 496.018982 831.56897 521.841003 L 831.737976 522.549011 L 993 483.131012 L 992.830017 482.431 C 980.330017 430.503998 954.830994 381.764008 919.073975 341.473999 Z M 991.22998 482.070007 C 989.820007 482.420013 834.174988 520.460022 832.799011 520.799988 C 826.562012 495.23999 813.945984 471.158997 796.286987 451.049011 C 797.330017 450.117004 917.346985 343.967987 918.455994 342.997986 C 953.627991 382.821014 978.789978 430.872986 991.22998 482.070007 Z"/>
            </g>
            <g id="g4" opacity="0.3">
                <path id="path12" fill="#ffffff" fill-opacity="0.5" stroke="none" d="M 659.994019 411.122986 L 659.320984 406.212006 C 691.77301 401.786011 725.533997 408.516998 753.682007 425.251007 L 757.041016 419.559998 C 715.270996 394.549988 661.370972 391.269989 616.981995 411.502014 L 624.372986 428.100006 C 663.478027 410.253998 710.978027 413.171997 747.809021 435.208008 L 751.166016 429.518005 C 723.97998 413.350006 691.328003 406.846008 659.994019 411.122986 Z"/>
                <path id="path13" fill="#ffffff" fill-opacity="0.5" stroke="none" d="M 580.638 405.735992 L 603.567017 439.65799 C 594.106018 446.003998 585.502014 453.60199 577.965027 462.135986 L 547.276001 435.031006 C 557.117004 423.895996 568.328003 414.006012 580.638 405.735992 Z M 577.320984 424.690002 C 573.578979 427.690002 569.997986 430.878998 566.504028 434.165009 L 576.414001 444.492004 C 579.604004 441.498993 582.869019 438.588013 586.283997 435.851013 L 577.320984 424.690002 Z"/>
                <path id="path14" fill="#ffffff" fill-opacity="0.5" stroke="none" d="M 565.736023 478.28299 C 559.515015 487.829987 554.690979 498.247986 551.062988 509.038025 L 512.179993 496.21698 C 516.875 482.177002 523.208984 468.580994 531.315979 456.109009 L 565.736023 478.28299 Z"/>
                <path id="path15" fill="#ffffff" fill-opacity="0.5" stroke="none" d="M 773.05603 454.463989 C 770.184998 451.695007 767.224976 449.006989 764.096985 446.523987 L 805.22998 395.795013 C 809.86499 399.501007 814.273987 403.476013 818.534973 407.591003 L 773.05603 454.463989 Z"/>
                <path id="path16" fill="#ffffff" fill-opacity="0.5" stroke="none" d="M 790.057007 474.531006 C 787.783997 471.253998 785.401001 468.046997 782.814026 465.005005 L 796.916992 453.268005 C 799.848022 456.722992 802.562988 460.363007 805.143005 464.084991 L 790.057007 474.531006 Z"/>
                <path id="path17" fill="#ffffff" fill-opacity="0.5" stroke="none" d="M 802.86499 497.502991 C 801.278992 493.84201 799.546997 490.234985 797.593018 486.755005 L 838.252991 464.554993 C 840.857971 469.229004 843.189026 474.061005 845.322021 478.971008 L 802.86499 497.502991 Z"/>
                <path id="path18" fill="#ffffff" fill-opacity="0.5" stroke="none" d="M 669.515991 482.391998 C 664.549011 483.110992 659.640991 484.377991 654.900024 486.151001 L 648.039001 467.800995 C 654.107971 465.531006 660.400024 463.908997 666.784973 462.993988 L 669.515991 482.391998 Z"/>
                <path id="path19" fill="#ffffff" fill-opacity="0.5" stroke="none" d="M 695.130005 483.648987 C 693.807983 483.278992 692.468018 483.066986 691.137024 482.820007 L 694.541016 463.526001 C 696.245972 463.839996 697.952026 464.126007 699.637024 464.583008 L 695.130005 483.648987 Z"/>
                <path id="path20" fill="#ffffff" fill-opacity="0.5" stroke="none" d="M 703.737 486.227997 C 702.434998 485.834991 701.195984 485.294006 699.879028 484.928986 L 705.68103 466.216003 C 707.354004 466.690002 708.953979 467.355011 710.60498 467.878998 L 703.737 486.227997 Z"/>
                <path id="path21" fill="#ffffff" fill-opacity="0.5" stroke="none" d="M 589.289001 512.791992 C 567.244995 562.049988 589.385986 620.062012 638.645996 642.106018 C 687.90802 664.150024 745.919006 642.008972 767.963989 592.744995 C 790.005981 543.487 767.864014 485.473999 718.60498 463.431 C 669.343994 441.388 611.333008 463.528992 589.289001 512.791992 Z M 638.843994 641.66803 C 589.823975 619.731995 567.791016 562.005981 589.724976 512.986023 C 611.659973 463.966003 669.388 441.933014 718.409973 463.868988 C 767.429016 485.806 789.463013 543.533997 767.528015 592.551025 C 745.590027 641.56897 687.862976 663.606018 638.843994 641.66803 Z"/>
                <path id="path22" fill="#ffffff" fill-opacity="0.5" stroke="none" d="M 678.372986 406.462006 C 646.23999 406.447998 614.473999 417.351013 588.932983 437.169006 L 588.742004 437.315002 L 634.333008 496.143982 L 634.521973 495.997009 C 647.13501 486.213989 662.763977 480.846008 678.528015 480.889008 L 678.77002 480.890015 L 678.612 406.462006 L 678.372986 406.462006 Z M 678.13501 406.944 C 678.13501 407.428986 678.288025 479.949005 678.289001 480.414001 C 662.578979 480.427002 647.02002 485.768005 634.421997 495.47699 C 634.13501 495.107971 589.713013 437.787994 589.41803 437.403992 C 614.780029 417.79599 646.267029 406.984985 678.13501 406.944 Z"/>
                <path id="path23" fill="#ffffff" fill-opacity="0.5" stroke="none" d="M 617.252014 440.56601 C 596.528015 451.838013 578.757019 469.384003 567.21698 489.971008 L 567.099976 490.181 L 621.987976 521.05603 L 622.104004 520.846985 C 628.047974 510.286011 636.809021 501.637024 647.442017 495.830994 L 647.653015 495.71698 L 617.463013 440.450012 L 617.252014 440.56601 Z M 617.27301 441.102997 C 617.502991 441.526001 646.788025 495.133972 647.005981 495.534973 C 636.458008 501.343018 627.755981 509.934021 621.812012 520.40802 C 621.411987 520.18103 568.174011 490.234985 567.752991 490 C 579.215027 469.64801 596.786011 452.300995 617.27301 441.102997 Z"/>
                <path id="path24" fill="#ffffff" fill-opacity="0.5" stroke="none" d="M 697.237976 428.605988 L 697.000977 428.571014 L 692.182007 460.627991 L 692.421021 460.661987 C 700.968994 461.908997 709.474976 464.463989 717.708008 468.253998 L 717.927002 468.355011 L 731.525024 438.928009 L 731.309021 438.826996 C 720.284973 433.744995 708.822021 430.304993 697.237976 428.605988 Z M 730.888 439.165985 C 730.689026 439.598999 717.880981 467.307007 717.690002 467.722992 C 709.559998 464.003998 701.164001 461.483002 692.728027 460.230011 C 692.794006 459.778015 697.33197 429.593994 697.401978 429.121002 C 708.786987 430.816986 720.047974 434.19101 730.888 439.165985 Z"/>
                <path id="path25" fill="#ffffff" fill-opacity="0.5" stroke="none" d="M 657.768982 445.208008 L 657.534973 445.252991 L 667.97699 498.88501 L 668.211975 498.835999 C 676.942017 497.129028 685.974976 497.578003 694.328003 500.133972 L 694.559021 500.203979 L 710.291992 447.881012 L 710.065979 447.809998 C 693.247986 442.69101 675.164978 441.789001 657.768982 445.208008 Z M 709.69397 448.20401 C 709.557007 448.665009 694.372009 499.166016 694.237976 499.612 C 685.945984 497.114014 677.01001 496.674011 668.356995 498.328979 C 668.268982 497.879028 658.190002 446.115997 658.096985 445.638 C 675.265015 442.304993 693.093994 443.190002 709.69397 448.20401 Z"/>
                <path id="path26" fill="#ffffff" fill-opacity="0.5" stroke="none" d="M 734.689026 507.789978 L 734.840027 507.978027 C 744.744019 520.307983 750.307007 535.864014 750.505981 551.784973 L 750.507996 552.026978 L 824.927979 550.94397 L 824.922974 550.705994 C 824.497009 518.416016 813.192017 486.791992 793.098999 461.657013 L 792.950012 461.471008 L 734.689026 507.789978 Z M 792.870972 462.145996 C 812.754028 487.108002 823.955994 518.453003 824.437988 550.471008 C 823.952026 550.478027 751.440002 551.531982 750.974976 551.539978 C 750.724976 535.677979 745.187012 520.187012 735.359985 507.867981 C 735.72699 507.575989 792.491028 462.446014 792.870972 462.145996 Z"/>
                <path id="path27" fill="#ffffff" fill-opacity="0.5" stroke="none" d="M 709.629028 495.752991 L 709.838989 495.864014 C 720.536011 501.697021 729.296997 510.346985 735.177979 520.877014 L 735.294006 521.088013 L 790.187012 490.220001 L 790.070007 490.011993 C 778.604004 469.455994 760.833008 451.90799 740.036987 440.605011 L 739.827026 440.488007 L 709.629028 495.752991 Z M 740.017029 441.143005 C 760.572998 452.372009 778.142029 469.720001 789.53302 490.039001 C 789.112976 490.273987 735.869995 520.213989 735.471985 520.437988 C 729.585999 509.992981 720.88501 501.401978 710.276978 495.565979 C 710.494019 495.166016 739.786011 441.566986 740.017029 441.143005 Z"/>
                <path id="path28" fill="#ffffff" fill-opacity="0.5" stroke="none" d="M 706.21698 479.872009 L 706.440002 479.959991 C 713.703003 482.807007 720.208008 486.424988 725.781006 490.713989 L 725.971008 490.859985 L 745.557983 465.027008 L 745.369019 464.881012 C 737.356018 458.743988 728.161987 453.631989 718.044983 449.690002 L 717.817993 449.60199 L 706.21698 479.872009 Z M 718.093994 450.227997 C 728.002014 454.109985 737.013977 459.121002 744.885986 465.122986 C 744.596985 465.498993 726.151001 489.833008 725.879028 490.192993 C 720.367981 485.985992 713.963013 482.424988 706.833984 479.605988 C 706.992981 479.186005 717.921021 450.674011 718.093994 450.227997 Z"/>
                <path id="path29" fill="#ffffff" fill-opacity="0.5" stroke="none" d="M 549.898987 482.815002 C 511.408997 554.091003 538.080017 643.390991 609.35498 681.879028 C 680.632019 720.367981 769.932007 693.692993 808.424011 622.416992 C 846.908997 551.143005 820.234985 461.845001 748.960999 423.354004 C 677.687012 384.867004 588.385986 411.540009 549.898987 482.815002 Z M 609.697021 681.244995 C 538.775024 642.945007 512.22998 554.083984 550.531006 483.157013 C 588.83197 412.231995 677.69397 385.688995 748.619019 423.98999 C 819.544983 462.290009 846.088989 551.153015 807.789978 622.077026 C 769.484985 693.002014 680.624023 719.546997 609.697021 681.244995 Z"/>
                <path id="path30" fill="#ffffff" fill-opacity="0.5" stroke="none" d="M 517.375977 456.022003 C 508.137024 471.556 501.200012 488.115997 496.76001 505.241028 L 496.669983 505.590027 L 543.755981 517.849976 L 543.846008 517.5 C 547.125 504.830017 552.278992 492.531006 559.166992 480.940002 L 559.348022 480.631989 L 517.559021 455.710999 L 517.375977 456.022003 Z M 501.73999 491.268005 C 505.879028 479.334991 511.268005 467.760986 517.815979 456.701996 C 518.437988 457.072998 557.784973 480.536987 558.372009 480.888 C 553.466003 489.19101 549.435974 497.849976 546.348022 506.75 C 545.174988 510.125977 544.145996 513.536987 543.245972 516.973999 C 542.578979 516.802002 498.249023 505.257019 497.554016 505.073975 C 498.768982 500.426025 500.161011 495.822021 501.73999 491.268005 Z"/>
                <path id="path31" fill="#ffffff" fill-opacity="0.5" stroke="none" d="M 695.098999 333.596008 C 647 329.98999 598.239014 342.772003 557.796021 369.584991 L 557.497986 369.783997 L 619.177002 462.923004 L 619.476013 462.721985 C 639.445984 449.481995 663.437988 443.195007 687.028992 445.016998 L 687.390015 445.045013 L 695.455994 333.623993 L 695.098999 333.596008 Z M 694.684021 334.294006 C 694.633972 335.016998 686.776978 443.580994 686.726013 444.278015 C 663.208008 442.546997 639.325989 448.806 619.383972 461.928986 C 618.997986 461.347992 558.89801 370.596985 558.499023 369.990997 C 598.64801 343.46701 646.982971 330.799011 694.684021 334.294006 Z"/>
                <path id="path32" fill="#ffffff" fill-opacity="0.5" stroke="none" d="M 599.807983 377.828003 C 567.530029 392.386993 538.974976 416.670013 519.406006 446.196991 L 519.208008 446.497986 L 597.91803 498.833008 L 598.117981 498.53302 C 608.189026 483.390991 622.268982 471.42099 638.833008 463.916992 L 639.161987 463.769012 L 600.137024 377.678986 L 599.807983 377.828003 Z M 599.780029 378.638 C 600.078003 379.295013 637.929993 462.798004 638.213989 463.424011 C 621.780029 470.94101 607.79303 482.828003 597.729004 497.843994 C 597.156982 497.463013 520.812012 446.700989 520.208984 446.299988 C 539.632019 417.117004 567.86499 393.108002 599.780029 378.638 Z"/>
                <path id="path33" fill="#ffffff" fill-opacity="0.5" stroke="none" d="M 644.93103 435.390991 C 633.689026 438.700012 623.075012 443.515015 613.377014 449.707001 L 613.075989 449.898987 L 639.237 490.925995 L 639.539978 490.731995 C 645.351013 487.019989 651.754028 484.11499 658.570984 482.096985 L 658.914001 481.994995 L 645.275024 435.289001 L 644.93103 435.390991 Z M 644.791992 436.194 C 644.994019 436.894012 657.836975 480.868988 658.026978 481.520996 C 651.393982 483.518005 645.153015 486.350006 639.463989 489.944 C 639.098999 489.372009 614.468018 450.746002 614.075989 450.132996 C 623.530029 444.134003 633.861023 439.446991 644.791992 436.194 Z"/>
                <path id="path34" fill="#ffffff" fill-opacity="0.5" stroke="none" d="M 720.862 368.846985 L 720.513977 368.768005 L 709.726013 416.213013 L 710.078979 416.291992 C 722.731995 419.109009 735.18103 423.881989 747.083008 430.475006 L 747.396973 430.64801 L 771.036011 388.121002 L 770.721008 387.946014 C 754.789001 379.109009 738.015015 372.681 720.862 368.846985 Z M 770.051025 388.40799 C 769.703979 389.035004 747.447021 429.078003 747.114014 429.678009 C 735.356995 423.201996 723.072998 418.494995 710.585022 415.679993 C 710.736023 415.01001 720.893982 370.338989 721.052979 369.636993 C 737.901978 373.440002 754.382019 379.752014 770.051025 388.40799 Z"/>
                <path id="path35" fill="#ffffff" fill-opacity="0.5" stroke="none" d="M 556.411011 441.378998 C 545.973022 452.882996 537.142029 465.973999 530.158997 480.286011 L 530.002014 480.609009 L 573.762024 501.88501 L 573.919006 501.562012 C 578.892029 491.382996 585.138 482.119995 592.486023 474.028992 L 592.728027 473.764008 L 556.651001 441.114014 L 556.411011 441.378998 Z M 556.708008 442.131989 C 557.237 442.610992 591.21698 473.364014 591.723022 473.821014 C 584.508972 481.812012 578.362976 490.927002 573.440979 500.929016 C 572.830994 500.632996 531.614014 480.59201 530.968994 480.278992 C 537.84198 466.265991 546.499023 453.437988 556.708008 442.131989 Z"/>
                <path id="path36" fill="#ffffff" fill-opacity="0.5" stroke="none" d="M 659.935974 389.294006 L 659.580017 389.334991 L 669.22699 470.774994 L 669.583008 470.733002 C 682.84198 469.14801 696.309021 470.826996 708.531982 475.585999 L 708.867981 475.717987 L 738.252991 399.153015 L 737.921997 399.02301 C 713.322021 389.483002 686.35498 386.118011 659.935974 389.294006 Z M 737.323975 399.570007 C 737.067993 400.243988 708.705017 474.138 708.455994 474.791992 C 696.323975 470.131012 682.995972 468.475006 669.861023 469.985992 C 669.778015 469.299011 660.465027 390.697998 660.382019 389.973999 C 686.447998 386.901001 713.036987 390.213989 737.323975 399.570007 Z"/>
                <path id="path37" fill="#ffffff" fill-opacity="0.5" stroke="none" d="M 768.088013 491.544006 L 768.294006 491.843994 C 781.741028 511.401001 788.335022 535.309998 786.85498 559.161987 L 786.835022 559.52301 L 898.344971 566.198975 L 898.366028 565.841003 C 901.325012 517.46698 887.934021 468.872009 860.658997 429.009003 L 860.45697 428.713013 L 768.088013 491.544006 Z M 860.263977 429.71701 C 887.244995 469.290985 900.518005 517.461975 897.663025 565.439026 C 896.937012 565.395996 788.286987 558.888 787.588013 558.846008 C 788.984985 535.072998 782.419006 511.275024 769.086975 491.737 C 769.661987 491.341003 859.664001 430.123993 860.263977 429.71701 Z"/>
                <path id="path38" fill="#ffffff" fill-opacity="0.5" stroke="none" d="M 731.921021 470.731995 L 732.223999 470.925995 C 747.585999 480.846985 759.734009 494.77002 767.362 511.190002 L 767.512024 511.513977 L 853.11499 471.43399 L 852.966003 471.110992 C 838.090027 439.062988 813.450012 410.817993 783.586975 391.57901 L 783.286011 391.382996 L 731.921021 470.731995 Z M 783.492981 392.382996 C 813.01001 411.480011 837.372986 439.40799 852.15802 471.09201 C 851.500977 471.398987 768.473999 510.27301 767.848022 510.565002 C 760.208008 494.273987 748.135986 480.444 732.911011 470.526001 C 733.281982 469.949005 783.10498 392.989014 783.492981 392.382996 Z"/>
                <path id="path39" fill="#ffffff" fill-opacity="0.5" stroke="none" d="M 728.585999 446.584991 L 728.909973 446.739014 C 739.460999 451.811005 748.794983 457.951996 756.65802 464.992004 L 756.929993 465.233002 L 789.127991 428.751007 L 788.861023 428.513 C 777.554016 418.431 764.362 409.755005 749.655029 402.725006 L 749.328979 402.569 L 728.585999 446.584991 Z M 749.666992 403.536011 C 764.065002 410.453003 776.994995 418.957001 788.109985 428.816986 C 787.640015 429.352997 757.312988 463.714996 756.862 464.226013 C 749.085999 457.312012 739.896973 451.269989 729.539001 446.255005 C 729.823975 445.644012 749.362 404.187012 749.666992 403.536011 Z"/>
            </g>
            <g id="g5" opacity="0.7">
                <g id="g6" opacity="0.3">
                    <path id="path40" fill="#ffffff" fill-opacity="0.5" stroke="none" d="M 690.960999 430.914001 C 664.19397 427.970001 636.739014 434.154999 613.655029 448.332001 L 613.486023 448.436005 L 646.093994 501.598022 L 646.263977 501.492004 C 657.664001 494.491028 671.171021 491.447998 684.297974 492.921997 L 684.499023 492.945007 L 691.161011 430.934998 L 690.960999 430.914001 Z M 690.716003 431.29599 C 690.671997 431.697998 684.184998 492.118988 684.142029 492.506012 C 671.052979 491.083008 657.607971 494.112976 646.22699 501.049011 C 646.02301 500.71698 614.25 448.917999 614.039978 448.571991 C 636.955994 434.550995 664.169983 428.42099 690.716003 431.29599 Z"/>
                    <path id="path41" fill="#ffffff" fill-opacity="0.5" stroke="none" d="M 636.937012 453.746002 C 618.645996 461.243011 602.242004 474.237 590.750977 490.334015 L 590.633972 490.497986 L 633.536987 521.223022 L 633.653015 521.059998 C 639.564026 512.804993 647.653992 506.401978 657.041016 502.536011 L 657.226013 502.460022 L 637.122009 453.670013 L 636.937012 453.746002 Z M 636.905029 454.196991 C 637.057983 454.570007 656.559021 501.893005 656.705017 502.247009 C 647.390991 506.122009 639.356018 512.484009 633.450012 520.66803 C 633.138977 520.445007 591.526001 490.640015 591.195984 490.404999 C 602.601013 474.501007 618.817993 461.653015 636.905029 454.196991 Z"/>
                    <path id="path42" fill="#ffffff" fill-opacity="0.5" stroke="none" d="M 704.651978 451.080994 L 704.458984 451.029999 L 697.52002 477.294006 L 697.716003 477.342987 C 704.721008 479.161011 711.573975 482.065002 718.086975 485.975006 L 718.257996 486.076996 L 732.271973 462.808014 L 732.101013 462.703003 C 723.382019 457.463989 714.146973 453.553986 704.651978 451.080994 Z M 731.718018 462.947998 C 731.510986 463.291992 718.317017 485.201996 718.119019 485.531006 C 711.684998 481.69101 704.921997 478.825012 698.01001 477.011993 C 698.106995 476.641998 704.640015 451.915009 704.742981 451.527008 C 714.070984 453.975006 723.143005 457.81601 731.718018 462.947998 Z"/>
                    <path id="path43" fill="#ffffff" fill-opacity="0.5" stroke="none" d="M 670.262024 461.308014 L 670.062012 461.325012 L 673.867004 506.950989 L 674.067017 506.932983 C 681.494019 506.304993 688.976013 507.504028 695.703003 510.396973 L 695.887024 510.476013 L 713.767029 468.326996 L 713.583984 468.248993 C 700.044006 462.449005 685.065002 460.048004 670.262024 461.308014 Z M 713.242004 468.542999 C 713.085022 468.914001 695.828003 509.593994 695.674988 509.953003 C 688.997009 507.117004 681.593018 505.932983 674.234985 506.521973 C 674.200989 506.137024 670.528015 462.101013 670.497009 461.696014 C 685.101013 460.488007 699.870972 462.851013 713.242004 468.542999 Z"/>
                    <path id="path44" fill="#ffffff" fill-opacity="0.5" stroke="none" d="M 708.846985 508.140991 L 709.012024 508.255981 C 717.390991 514.088989 723.900024 522.093018 727.836975 531.401978 L 727.914978 531.585999 L 776.453003 510.882996 L 776.377014 510.698975 C 768.698975 492.529999 755.499023 476.292999 739.210022 464.980988 L 739.046021 464.865997 L 708.846985 508.140991 Z M 739.140991 465.425995 C 755.239014 476.653992 768.291992 492.709015 775.926025 510.674011 C 775.554016 510.830994 728.476013 530.911987 728.122009 531.062012 C 724.176025 521.823975 717.705994 513.874023 709.405029 508.046021 C 709.622009 507.731018 738.911987 465.757996 739.140991 465.425995 Z"/>
                    <g id="g7" opacity="0.66">
                        <path id="path45" fill="#ffffff" fill-opacity="0.5" stroke="none" d="M 635.484985 408.375 C 555.651978 431.898987 509.843018 515.984009 533.370972 595.812012 C 556.89502 675.643005 640.984985 721.448975 720.817017 697.926025 C 800.643005 674.398987 846.448975 590.312988 822.924988 510.482971 C 799.398987 430.653992 715.312012 384.846008 635.484985 408.375 Z M 534.078979 595.603027 C 510.669983 516.164978 556.25 432.493011 635.690979 409.082001 C 715.130005 385.671997 798.802979 431.255005 822.213989 510.692993 C 845.622986 590.130005 800.041992 673.807007 720.60498 697.218994 C 641.164001 720.625 557.487976 675.044006 534.078979 595.603027 Z"/>
                        <path id="path46" fill="#ffffff" fill-opacity="0.5" stroke="none" d="M 536.885986 377.197998 L 536.596985 377.428009 C 497.802002 408.656006 470.139008 452.444 458.713013 500.726013 L 458.627991 501.086975 L 570.244995 527.823975 L 570.33197 527.460022 C 575.893005 503.72998 589.491028 482.18399 608.624023 466.792999 L 608.911011 466.562012 L 536.885986 377.197998 Z M 607.875977 466.457001 C 588.86499 481.852997 575.330017 503.302979 569.703979 526.93103 C 569.004028 526.765991 460.25 500.715027 459.524994 500.541016 C 470.937012 452.678986 498.353027 409.276001 536.778015 378.242004 C 537.249023 378.821991 607.424988 465.894989 607.875977 466.457001 Z"/>
                        <path id="path47" fill="#ffffff" fill-opacity="0.5" stroke="none" d="M 631.47998 365.265991 C 613.46698 369.772003 596.369995 376.700989 580.669983 385.859985 L 580.349976 386.04599 L 605.491028 429.255005 L 605.809998 429.069 C 617.424011 422.286011 630.122009 417.143005 643.559021 413.773987 L 643.916016 413.686005 L 631.838013 365.177002 L 631.47998 365.265991 Z M 594.463013 379.377014 C 606.158997 373.757996 618.499023 369.30899 631.302002 366.07901 C 631.481995 366.802002 642.853027 412.475006 643.021973 413.15799 C 633.416016 415.589996 624.187012 418.920013 615.460022 423.110992 C 612.150024 424.700989 608.919006 426.417999 605.762024 428.247986 C 605.406006 427.638 581.734009 386.955994 581.366028 386.319 C 585.632996 383.838989 589.997009 381.520996 594.463013 379.377014 Z"/>
                        <path id="path48" fill="#ffffff" fill-opacity="0.5" stroke="none" d="M 614.61499 396.559998 C 589.291016 406.817993 566.674011 423.199005 549.219971 443.928009 L 548.978027 444.209015 L 613.315002 498.617981 L 613.552002 498.335999 C 622.241028 488.029999 633.533997 479.845001 646.211975 474.665985 L 646.552002 474.528015 L 614.960999 396.420013 L 614.61499 396.559998 Z M 605.276001 401.497009 C 608.320007 400.03299 611.419006 398.67099 614.55603 397.391998 C 614.838013 398.091003 645.333008 473.479004 645.596008 474.134003 C 644.119995 474.743011 642.653992 475.389008 641.215027 476.078003 C 630.455017 481.251007 620.862976 488.615997 613.234009 497.583984 C 612.690979 497.125 550.598999 444.614014 550.026001 444.130005 C 565.127014 426.28299 584.065002 411.683014 605.276001 401.497009 Z"/>
                        <path id="path49" fill="#ffffff" fill-opacity="0.5" stroke="none" d="M 849.387024 406.239014 C 817.200989 368.55899 772.585999 342.252014 723.762024 332.173004 L 723.401978 332.100006 L 700.132019 444.48999 L 700.494995 444.562988 C 724.60498 449.541992 746.554016 462.484985 762.301025 481.003998 L 762.541992 481.286987 L 849.624023 406.522003 L 849.387024 406.239014 Z M 848.577026 406.444 C 848.012024 406.928009 763.164001 479.782013 762.619019 480.248993 C 746.859009 461.846008 725.008972 448.964996 701.005981 443.921997 C 701.150024 443.221008 723.822021 333.710999 723.973999 332.980988 C 772.377014 343.057007 816.598999 369.132996 848.577026 406.444 Z"/>
                        <path id="path50" fill="#ffffff" fill-opacity="0.5" stroke="none" d="M 748.161987 368.773987 C 714.182007 355.774994 675.807983 352.529999 640.112976 359.63501 L 639.75 359.708008 L 658.562012 454.981995 L 658.924011 454.910004 C 677.255005 451.290985 696.172974 452.897003 713.633972 459.542999 L 713.979004 459.675995 L 748.505981 368.906006 L 748.161987 368.773987 Z M 747.551025 369.339996 C 747.286987 370.032013 713.796997 458.072998 713.546021 458.731995 C 696.171021 452.190002 677.377991 450.595001 659.143005 454.127991 C 659.008972 453.436005 640.762024 361.023987 640.617981 360.292999 C 675.95697 353.334991 713.89801 356.541992 747.551025 369.339996 Z"/>
                        <path id="path51" fill="#ffffff" fill-opacity="0.5" stroke="none" d="M 738.849976 443.341003 C 728.299011 437.539001 717.10498 433.286011 705.572021 430.696014 L 705.215027 430.61499 L 694.234985 479.386993 L 694.593994 479.467987 C 701.507019 481.018005 708.26001 483.584015 714.666992 487.093994 L 714.989014 487.270996 L 739.174011 443.519989 L 738.849976 443.341003 Z M 738.164001 443.821014 C 737.801025 444.473999 715.031982 485.671997 714.69397 486.281006 C 708.437988 482.888 701.85498 480.389008 695.116028 478.841003 C 695.268982 478.161987 705.60498 432.242004 705.768982 431.513 C 716.986023 434.063995 727.879028 438.20401 738.164001 443.821014 Z"/>
                        <path id="path52" fill="#ffffff" fill-opacity="0.5" stroke="none" d="M 842.333008 450.540009 L 842.138 450.230011 L 799.732971 476.707001 L 799.93103 477.019012 C 807.034973 488.286011 812.565979 500.817017 816.372986 514.27002 L 816.473999 514.622009 L 864.593994 501.075989 L 864.494019 500.719971 C 859.406006 482.705994 851.948975 465.822998 842.333008 450.540009 Z M 863.672974 500.565002 C 862.963013 500.765991 817.656982 513.520996 816.97699 513.713989 C 813.189026 500.453979 807.731018 488.088989 800.744995 476.946014 C 801.34198 476.572998 841.265991 451.644989 841.89502 451.252991 C 851.317017 466.290985 858.642029 482.876007 863.672974 500.565002 Z"/>
                        <path id="path53" fill="#ffffff" fill-opacity="0.5" stroke="none" d="M 670.409973 383.131012 C 654.46698 383.846008 638.530029 386.880005 623.039001 392.149994 L 622.690002 392.269989 L 638.85199 439.575989 L 639.200989 439.459015 C 650.221985 435.716003 661.497009 433.565002 672.715027 433.066986 L 673.085022 433.050995 L 670.778015 383.113007 L 670.409973 383.131012 Z M 670.077026 383.893005 C 670.109009 384.625 672.281982 431.661011 672.312988 432.359985 C 661.267029 432.88501 650.169983 435.002991 639.315979 438.651001 C 639.088989 437.993011 623.867981 393.433014 623.630005 392.735992 C 638.822998 387.604004 654.442993 384.631012 670.077026 383.893005 Z"/>
                        <path id="path54" fill="#ffffff" fill-opacity="0.5" stroke="none" d="M 783.322998 420.915009 L 783.034973 420.686005 L 730.63501 486.669006 L 730.924988 486.89801 C 741.677002 495.416992 750.200012 506.453003 755.577026 518.810974 L 755.723999 519.148987 L 832.820984 485.15799 L 832.676025 484.824005 C 821.825989 459.979004 804.763 437.881989 783.322998 420.915009 Z M 831.843994 484.78299 C 831.166992 485.083008 756.755981 517.888 756.098999 518.179993 C 750.716003 505.958984 742.278015 495.04303 731.669983 486.557007 C 732.109009 485.998993 782.679993 422.313995 783.148987 421.730988 C 804.255005 438.515991 821.088013 460.300995 831.843994 484.78299 Z"/>
                    </g>
                </g>
            </g>
            <g id="g8" opacity="0.8">
                <path id="path55" fill="#ffffff" fill-opacity="0.5" stroke="none" d="M 678.843994 554.676025 L 679.218994 554.648987 L 679.390015 554.643005 C 679.429993 554.642029 679.551025 554.640991 679.448975 554.64502 C 679.242981 554.656982 678.966003 554.656006 678.734985 554.64801 C 678.586975 554.650024 678.374023 554.638977 678.19397 554.622986 C 678.098022 554.619995 677.939026 554.604004 677.809998 554.586975 C 677.39502 554.533997 677.35199 554.497009 677.448975 554.53302 C 677.547974 554.565002 677.778992 554.664978 677.955994 554.77301 C 678.138 554.880005 678.263 554.984009 678.281006 555.002014 C 678.302002 555.023987 678.221008 554.953979 678.107971 554.802979 C 677.995972 554.656982 677.862976 554.432983 677.794006 554.28302 C 677.723022 554.137024 677.721985 554.065979 677.786011 554.325989 C 677.844971 554.58197 677.961975 555.158997 677.997986 556.242981 L 673.804016 423.084015 C 656.231018 423.61499 638.445984 427.774994 622.335022 435.328003 C 606.195984 442.852997 591.710022 453.64801 579.90802 466.825989 C 568.094971 479.993011 558.929993 495.593018 553.218994 512.471008 C 550.359985 520.903015 548.364014 529.640991 547.275024 538.45697 C 546.184021 547.286987 546 556.130981 546.679993 564.906982 L 678.843994 554.676025 Z M 677.994995 556.028992 C 677.947021 555.03302 677.835022 554.518982 677.78302 554.304016 C 677.728027 554.088013 677.734985 554.161987 677.809021 554.309021 C 677.879028 554.458984 678.010986 554.674011 678.117981 554.812988 C 678.22699 554.955994 678.302979 555.02301 678.281982 555.002014 C 678.265015 554.984009 678.14502 554.882996 677.971008 554.780029 C 677.799988 554.674988 677.577026 554.575012 677.473022 554.539001 C 677.370972 554.500977 677.395996 554.530029 677.765015 554.580994 L 678.107971 554.617981 C 678.176025 554.619995 678.442993 554.64502 678.596985 554.646973 C 678.71698 554.64502 679.026001 554.659973 679.247009 554.653015 L 679.413025 554.646973 L 679.492004 554.642029 C 679.500977 554.642029 679.448975 554.643005 679.429993 554.642029 L 679.088989 554.656006 L 548.210022 562.684021 C 547.145996 545.728027 549.468018 528.273987 555.150024 512.005005 C 560.804016 495.723022 569.718994 480.677002 581.150024 467.937988 C 592.570007 455.187012 606.53302 444.697998 622.085022 437.296997 C 637.612976 429.873993 654.745972 425.630005 671.762024 424.851013 L 677.994995 556.028992 Z"/>
                <path id="path56" fill="#ffffff" fill-opacity="0.5" stroke="none" d="M 681.478027 545.392029 C 682.679016 545.835999 683.856018 546.606018 684.853027 547.573975 C 685.85199 548.544983 686.625 549.690979 687.117004 550.862 C 687.607971 552.036987 687.872986 553.271973 687.867004 554.802979 C 687.849976 556.242981 687.588989 557.426025 687.078003 558.632019 L 838.963013 625.067993 C 843.719971 614.189026 847.377014 602.791016 849.838989 591.156982 C 852.304016 579.525024 853.565979 567.659973 853.643005 555.916016 C 853.684021 550.047974 853.427002 544.197998 852.887024 538.338989 C 852.338013 532.476013 851.495972 526.616028 850.357971 520.796021 C 848.078003 509.156982 844.593994 497.698975 839.992004 486.734985 C 830.791992 464.78299 817.132019 444.890991 800.184998 428.488007 C 783.249023 412.072998 762.968018 399.053986 740.73999 390.566986 L 681.478027 545.392029 Z M 688.664978 559.125 C 689.234985 557.742004 689.523987 556.353027 689.528015 554.711975 C 689.520996 553.002991 689.219971 551.575012 688.653015 550.218018 C 688.086975 548.86499 687.208984 547.557007 686.080017 546.447021 C 684.953979 545.335999 683.612976 544.463013 682.239014 543.914001 L 742.78302 393.170013 C 764.200989 401.765015 783.721008 414.604004 800.031982 430.671997 C 816.356018 446.722992 829.526978 466.074005 838.455017 487.380005 C 842.921021 498.021973 846.322998 509.132019 848.58197 520.422974 C 850.844971 531.728027 851.960999 543.138 851.973999 554.505005 C 851.991028 565.892029 850.88501 577.408997 848.630005 588.724976 C 846.379028 600.041992 842.987 611.151978 838.539001 621.786987 L 688.664978 559.125 Z"/>
                <path id="path57" fill="#ffffff" fill-opacity="0.5" stroke="none" d="M 676.507996 508.909973 C 683.080017 508.70697 689.544983 509.905029 695.531006 512.400024 C 698.52301 513.64502 701.390015 515.211975 704.06897 517.064026 C 706.747009 518.919983 709.213013 521.085999 711.437988 523.46698 L 775.247986 463.89801 C 768.81897 457.011993 761.677979 450.79599 753.934998 445.412994 C 746.189026 440.033997 737.857971 435.464996 729.116028 431.824005 C 720.377014 428.181 711.224976 425.468994 701.906006 423.765991 C 692.588989 422.05899 683.107971 421.365997 673.76001 421.65799 L 676.507996 508.909973 Z M 712.13501 521.757996 C 707.622009 517.075989 702.137024 513.343994 696.172974 510.862 C 690.203979 508.374023 683.767029 507.140991 677.234009 507.247009 L 675.932983 423.295013 C 693.732971 422.98999 711.888 426.42099 728.476013 433.363007 C 745.088013 440.281006 760.161011 450.596008 772.575989 463.479004 L 712.13501 521.757996 Z"/>
            </g>
        </g>
    </g>
</svg>
