<svg width="1100" height="328" viewBox="0 0 1100 328" fill="none" xmlns="http://www.w3.org/2000/svg">
<path d="M44.6566 280.805C40.4746 277.289 35.2186 275.86 30.1666 276.406C25.3896 276.923 20.7956 279.208 17.4566 283.16C14.1406 287.121 12.5626 292.121 13.0146 297.236C13.4496 302.387 15.8656 307.041 19.8126 310.357C23.7556 313.663 28.7596 315.244 33.9066 314.81C39.0626 314.348 43.7146 311.934 47.0106 308.008C53.8496 299.853 52.7916 287.648 44.6566 280.805ZM14.9956 297.084C14.5926 292.477 16.0096 287.994 18.9816 284.443C25.1416 277.143 36.0826 276.191 43.3726 282.327C50.6746 288.469 51.6196 299.414 45.4886 306.729C42.5326 310.245 38.3586 312.412 33.7346 312.829C29.1216 313.217 24.6296 311.8 21.0926 308.836C17.5546 305.86 15.3886 301.688 14.9956 297.084Z" fill="#D9EAFB"/>
<path d="M31.0076 281.486C23.2476 282.151 17.4696 289.019 18.1266 296.795C18.7866 304.567 25.6646 310.354 33.4556 309.69C41.2216 309 46.9976 302.124 46.3366 294.361C45.6466 286.573 38.7706 280.797 31.0076 281.486ZM30.9096 283.492C30.9986 283.481 31.0896 283.476 31.1806 283.466C37.8516 282.877 43.7596 287.842 44.3546 294.537C44.9236 301.203 39.9596 307.115 33.2826 307.706C26.5886 308.278 20.6786 303.305 20.1076 296.63C19.5506 290.036 24.3766 284.2 30.9096 283.492Z" fill="#D9EAFB"/>
<path d="M62.6337 285.222C61.5847 282.15 60.0937 279.275 58.2037 276.677L57.5167 275.735L56.6967 276.56C54.3247 278.938 50.4627 279.113 47.9007 276.962C45.3357 274.791 44.8387 270.947 46.7717 268.212L47.4457 267.259L46.3987 266.745C43.4987 265.326 40.4107 264.35 37.2207 263.855L36.0687 263.676L36.0727 264.84C36.0847 268.197 33.4737 271.05 30.1267 271.331C26.7347 271.623 23.7457 269.308 23.1667 265.948L22.9707 264.8L21.8677 265.175C18.7697 266.232 15.8937 267.727 13.3227 269.612L12.3857 270.301L13.2087 271.121C15.5927 273.489 15.7627 277.353 13.5967 279.917C11.4477 282.489 7.61571 282.981 4.86371 281.041L3.9137 280.372L3.39771 281.416C1.97271 284.307 0.996709 287.391 0.501709 290.582L0.325684 291.728H1.48669C4.84469 291.724 7.69369 294.335 7.97269 297.682C8.27269 301.022 5.91168 304.081 2.59668 304.657L1.45468 304.854L1.8237 305.95C2.8487 309.002 4.34869 311.875 6.27469 314.496L6.9657 315.43L7.78369 314.604C10.1407 312.227 14.0007 312.055 16.5727 314.216C19.1357 316.369 19.6257 320.21 17.6937 322.958L17.0287 323.909L18.0687 324.42C20.9377 325.835 24.0187 326.81 27.2287 327.318L28.3777 327.502L28.3807 326.338C28.3807 322.917 30.9367 320.121 34.3197 319.835H34.3217C37.6707 319.541 40.7327 321.906 41.2937 325.216L41.4897 326.367L42.5967 325.991C45.6857 324.939 48.5577 323.45 51.1417 321.569L52.0797 320.883L51.2577 320.062C48.8417 317.647 48.6707 313.854 50.8557 311.241C53.0187 308.675 56.8567 308.18 59.5857 310.12L60.5337 310.796L61.0537 309.754C62.4687 306.907 63.4507 303.825 63.9657 300.59L64.1507 299.435L62.9827 299.437C59.5697 299.443 56.7757 296.883 56.4867 293.482C56.1887 290.142 58.5447 287.091 61.8587 286.528L63.0107 286.332L62.6337 285.222ZM60.3337 284.888C56.6527 286.09 54.1527 289.707 54.5067 293.653C54.8497 297.669 57.8797 300.764 61.7577 301.311C61.3087 303.604 60.6117 305.801 59.6717 307.881C58.1817 307.124 56.5367 306.824 54.9287 306.999C52.8137 307.228 50.7867 308.235 49.3347 309.958C46.7487 313.048 46.7057 317.389 49.0557 320.52C47.1597 321.801 45.1097 322.86 42.9337 323.685C41.7287 320.009 38.1057 317.502 34.1487 317.848C34.0847 317.852 34.0197 317.863 33.9527 317.866C30.0447 318.289 27.0497 321.288 26.5047 325.106C24.2227 324.661 22.0247 323.97 19.9337 323.028C21.6697 319.569 20.8757 315.231 17.8537 312.69C16.0257 311.155 13.6987 310.519 11.4607 310.763C9.97969 310.924 8.54668 311.484 7.31268 312.407C6.00468 310.486 4.9377 308.44 4.1257 306.288C7.8067 305.074 10.3087 301.449 9.95468 297.505C9.62468 293.561 6.54271 290.414 2.71271 289.852C3.14571 287.582 3.83868 285.385 4.78668 283.281C6.28168 284.035 7.9347 284.333 9.5387 284.161C11.6547 283.929 13.6787 282.919 15.1197 281.194C17.6747 278.168 17.7237 273.758 15.4077 270.65C17.2987 269.369 19.3457 268.309 21.5287 267.478C22.7267 271.198 26.2847 273.659 30.2947 273.315C30.3647 273.306 30.4287 273.302 30.4947 273.296C34.3567 272.874 37.3997 269.83 37.9497 266.063C40.2207 266.503 42.4227 267.192 44.5327 268.137C42.7947 271.586 43.5907 275.924 46.6227 278.485C48.4417 280.014 50.7627 280.642 53.0007 280.4C54.4857 280.24 55.9217 279.681 57.1587 278.761C58.4457 280.668 59.5067 282.717 60.3337 284.888Z" fill="#D9EAFB"/>
<path d="M1053.33 44.356C1049.04 53.1134 1052.81 63.6668 1061.73 67.8978C1066.06 69.9289 1070.91 70.2002 1075.42 68.6301H1075.44C1079.95 67.0842 1083.59 63.8838 1085.67 59.6347C1087.8 55.247 1087.93 50.4072 1086.42 46.1491C1084.88 41.897 1081.73 38.2024 1077.28 36.0869C1068.35 31.8891 1057.62 35.5806 1053.33 44.356ZM1073.77 63.9682C1067.04 66.2675 1059.68 62.805 1057.33 56.1963C1054.96 49.5816 1058.52 42.3581 1065.23 40.0316C1071.95 37.7202 1079.3 41.1949 1081.67 47.7945C1084.01 54.4032 1080.49 61.6538 1073.77 63.9682ZM1091.08 44.561C1089.8 40.9749 1091.56 37.0844 1095.01 35.5686C1093.31 33.0101 1091.26 30.753 1088.94 28.8635C1087 32.0789 1082.88 33.3627 1079.4 31.7323C1075.94 30.0839 1074.37 26.106 1075.72 22.6375C1072.77 22.0197 1069.7 21.8509 1066.61 22.1312C1067.56 25.7444 1065.55 29.5084 1061.92 30.762C1058.3 32.0247 1054.34 30.3099 1052.8 26.8986C1050.2 28.5832 1047.91 30.6023 1045.99 32.8895C1049.24 34.7851 1050.54 38.8443 1048.89 42.2436C1047.21 45.6639 1043.15 47.2008 1039.63 45.8779C1039.02 48.7739 1038.84 51.8055 1039.14 54.8432C1042.79 53.906 1046.64 55.8647 1047.91 59.4509C1049.18 63.0219 1047.43 66.9033 1043.97 68.4282C1045.68 70.9897 1047.73 73.2378 1050.07 75.1182C1051.98 71.9179 1056.11 70.6251 1059.59 72.2765C1063.06 73.9008 1064.61 77.8786 1063.27 81.3623C1066.23 81.971 1069.3 82.1579 1072.38 81.8626C1071.43 78.2674 1073.44 74.4794 1077.06 73.2288C1080.7 71.9692 1084.66 73.6989 1086.21 77.0951C1088.82 75.4317 1091.09 73.4005 1093.01 71.0922C1089.75 69.2147 1088.43 65.1646 1090.11 61.7442C1091.78 58.3329 1095.82 56.805 1099.36 58.1219C1099.98 55.2139 1100.16 52.1973 1099.86 49.1657C1096.19 50.0818 1092.36 48.1351 1091.08 44.561ZM1086.44 60.0144C1084.26 64.4503 1080.46 67.8135 1075.71 69.4468C1070.98 71.0741 1065.86 70.7969 1061.35 68.6573C1052 64.2214 1048.05 53.1676 1052.55 43.9793C1057.04 34.8001 1068.29 30.9127 1077.64 35.3305C1086.99 39.7484 1090.93 50.8171 1086.44 60.0144Z" fill="#D9EAFB" fill-opacity="0.5"/>
<path d="M449.161 107.955C450.524 102.401 455.958 98.9631 461.503 100.001C461.904 96.7281 462.11 93.4411 462.145 90.1811C456.527 90.4811 451.569 86.3741 450.934 80.7081C450.299 75.0061 454.255 69.9611 459.824 68.9891C459.055 65.8161 458.128 62.6791 457.021 59.5851C451.85 61.7821 445.811 59.5911 443.263 54.4841C440.769 49.3651 442.695 43.2711 447.618 40.4571C445.821 37.7261 443.871 35.1201 441.796 32.5631C437.685 36.3761 431.239 36.4121 427.124 32.4761C422.983 28.5371 422.747 22.1141 426.4 17.7891C423.771 15.8861 421.061 14.0611 418.197 12.3771C415.632 17.3801 409.638 19.6191 404.397 17.3171C399.188 15.0281 396.756 9.0871 398.696 3.8031C395.53 2.8451 392.329 2.0791 389.156 1.4241C388.465 7.0561 383.562 11.2151 377.871 10.8431C372.17 10.4641 367.871 5.70711 367.875 0.0891113C364.584 0.292111 361.34 0.617114 358.141 1.15411C359.374 6.67111 356.195 12.2111 350.704 13.8161C345.25 15.4091 339.572 12.4601 337.65 7.14211C334.653 8.4291 331.695 9.87411 328.874 11.4611C331.909 16.2051 330.839 22.5311 326.231 25.9221C321.637 29.2921 315.26 28.4241 311.653 24.0661C309.29 26.3061 307.019 28.6951 304.865 31.1881C309.377 34.5661 310.549 40.8991 307.366 45.6681C304.202 50.3941 297.918 51.7261 293.047 48.9361C292.33 50.3491 291.635 51.8471 290.965 53.3741C290.314 54.8671 289.674 56.3841 289.105 57.9031C294.474 59.5771 297.734 65.1321 296.381 70.6691C295.036 76.2091 289.581 79.6401 284.015 78.6351C283.64 81.9161 283.421 85.1801 283.384 88.4041C289.022 88.1511 293.973 92.2541 294.599 97.9161C295.227 103.594 291.293 108.674 285.747 109.62C286.504 112.805 287.435 115.943 288.499 119.03C293.722 116.843 299.736 119.006 302.257 124.121C304.785 129.236 302.843 135.346 297.951 138.156C299.729 140.867 301.667 143.51 303.752 146.058C307.91 142.237 314.303 142.201 318.422 146.15C322.547 150.108 322.82 156.503 319.148 160.789C321.751 162.74 324.501 164.537 327.349 166.218C329.914 161.246 335.94 159.017 341.141 161.3C346.381 163.605 348.791 169.546 346.856 174.789C350.028 175.755 353.194 176.551 356.395 177.157C357.097 171.559 361.968 167.421 367.677 167.787C373.374 168.144 377.707 172.907 377.681 178.525C380.956 178.334 384.214 177.982 387.436 177.453C386.166 171.96 389.36 166.394 394.811 164.795C400.305 163.179 405.995 166.163 407.884 171.473C410.907 170.18 413.845 168.735 416.708 167.139C413.636 162.418 414.712 156.082 419.316 152.697C423.919 149.335 430.303 150.178 433.884 154.521C436.249 152.316 438.527 149.956 440.674 147.434C436.162 144.039 435.019 137.696 438.185 132.966C441.349 128.215 447.617 126.852 452.496 129.667C453.226 128.231 453.943 126.749 454.596 125.255C455.266 123.729 455.876 122.193 456.433 120.714C451.063 119.013 447.815 113.485 449.161 107.955ZM431.091 76.6601L394.342 80.7131C392.902 77.0791 390.562 73.8261 387.434 71.3031L402.312 37.4311C417.447 46.0291 427.582 60.5221 431.091 76.6601ZM363.019 85.0291C365.386 79.6271 371.682 77.2001 377.048 79.5621C382.442 81.9251 384.894 88.1931 382.519 93.5961C380.161 98.9861 373.878 101.415 368.486 99.0531C363.113 96.6891 360.645 90.4131 363.019 85.0291ZM390.971 32.4531L376.095 66.3241C372.149 65.7411 368.166 66.2151 364.521 67.6151L342.621 37.7951C356.888 29.4711 374.414 27.1351 390.971 32.4531ZM318.107 65.3081C321.602 57.3611 326.621 50.5761 332.653 45.1071L354.528 74.9221C353.338 76.4471 352.284 78.1081 351.466 79.9611C350.663 81.7951 350.144 83.7091 349.841 85.5971L313.076 89.6571C313.033 81.5211 314.637 73.2431 318.107 65.3081ZM314.441 101.946L351.207 97.9141C352.647 101.529 354.976 104.78 358.09 107.301L343.213 141.159C328.093 132.572 317.948 118.091 314.441 101.946ZM354.553 146.151L369.428 112.289C373.391 112.873 377.387 112.406 381.003 111.006L402.91 140.81C388.65 149.146 371.117 151.485 354.553 146.151ZM427.409 113.319C423.924 121.254 418.908 128.035 412.874 133.505L390.999 103.684C392.198 102.175 393.242 100.504 394.049 98.6621C394.868 96.8121 395.382 94.9251 395.702 93.0171L432.447 88.9531C432.501 97.0961 430.897 105.378 427.409 113.319Z" fill="#D9EAFB" fill-opacity="0.5"/>
</svg>
