<svg fill="none" height="28" viewBox="0 0 28 28" width="28" xmlns="http://www.w3.org/2000/svg"><path d="m25.966 16.9257c.2133-.8712 1.0648-1.4104 1.9334-1.2477.0635-.5137.0952-1.0302.1006-1.5412-.8801.0467-1.6566-.5973-1.7562-1.4868-.0989-.8942.5206-1.6866 1.3929-1.8391-.1201-.4976-.2656-.98998-.4385-1.47565-.8105.34497-1.7568.00101-2.1552-.80055-.3916-.8029-.0891-1.75902.6816-2.20072-.2819-.42851-.5867-.8374-.9118-1.23852-.6442.59863-1.6539.60438-2.298-.01387-.6492-.61791-.686-1.62645-.1138-2.30456-.4115-.29863-.8359-.58475-1.2852-.84923-.4011.78498-1.3403 1.13638-2.1613.77551-.8159-.35918-1.1971-1.29197-.8929-2.120578-.4963-.150503-.9976-.270561-1.4939-.373715-.1083.884083-.877 1.536483-1.7683 1.477973-.8926-.05919-1.5664-.806293-1.5654-1.68699-.5162.0317917-1.0232.0832009-1.5249.1664.1931.86582-.3052 1.73502-1.1654 1.98732-.8541.24994-1.74331-.21308-2.04411-1.04744-.46993.20225-.93278.42885-1.37435.67811.47533.7444.30755 1.7367-.41422 2.26904-.71941.52828-1.71835.39233-2.28315-.29153-.37067.3514-.72649.72681-1.06341 1.11846.70658.53031.89057 1.52363.39161 2.27175-.49627.74136-1.47934.95104-2.24298.51306-.11242.22153-.22078.45624-.32543.69637-.1023.23404-.20324.47249-.29169.71058.84061.26245 1.35172 1.13398 1.13938 2.00288-.21066.8699-1.064772 1.4076-1.9367754 1.2507-.0587412.5141-.0931731 1.0268-.0985746 1.5328.882807-.0403 1.65826.604 1.7565 1.4925.09858.8908-.51787 1.6876-1.386835 1.8361.118833.4999.264331.9927.431439 1.4763.818326-.3429 1.760546-.003 2.154856.7989.396.8029.09183 1.762-.67416 2.2034.27817.4244.58132.8397.90845 1.2402.65088-.6003 1.65286-.6061 2.298.0139.64582.6209.68869 1.6244.11309 2.2971.40883.3064.83892.5881 1.28488.8519.40174-.7806 1.34566-1.1299 2.16061-.7718.82035.3623 1.19777 1.294.89462 2.1169.49665.1515.99255.2763 1.49355.371.11-.878.873-1.5277 1.7673-1.4702.8929.0561 1.5708.8039 1.5671 1.6853.5135-.0301 1.0239-.0856 1.5283-.1684-.1989-.8615.3018-1.7357 1.1549-1.986.8608-.2533 1.7521.2144 2.0478 1.0478.474-.2029.9338-.4292 1.3825-.6798-.4811-.741-.3133-1.7357.4078-2.2664.7211-.5276 1.7207-.3953 2.2824.2865.3711-.3463.7269-.717 1.0628-1.1124-.7063-.5326-.8855-1.5283-.3893-2.2707.4953-.7451 1.4773-.9588 2.2413-.5175.1145-.2249.2272-.4579.3288-.6926.105-.2395.2006-.4803.2873-.7123-.8402-.2668-1.3487-1.1347-1.138-2.0025zm-2.8307-4.9108-5.7557.6365c-.2265-.5699-.5918-1.0806-1.0816-1.4766l2.3297-5.31465c2.3709 1.34844 3.9583 3.6229 4.5076 6.15475zm-10.6626 1.3136c.3707-.8476 1.3572-1.2284 2.1978-.858.8446.371 1.2288 1.3548.8561 2.2027-.3693.8459-1.3534 1.227-2.1974.8563-.8416-.3713-1.2278-1.3555-.8565-2.201zm4.3786-8.25062-2.3297 5.31562c-.6185-.0917-1.2424-.0169-1.8136.2023l-3.43026-4.67917c2.23486-1.30684 4.97946-1.67312 7.57356-.83875zm-11.41233 5.15632c.54656-1.2473 1.33315-2.31199 2.2774-3.17003l3.42693 4.67843c-.1867.2395-.3518.4999-.4794.7904-.1263.2882-.2076.5882-.2552.8848l-5.75835.6372c-.00608-1.2768.24441-2.5762.78862-3.8208zm-.57392 5.7492 5.75765-.6334c.2259.5678.5905 1.0775 1.0786 1.4735l-2.33004 5.3133c-2.3689-1.3474-3.95762-3.6202-4.50621-6.1534zm6.28195 6.9367 2.3301-5.3136c.6208.091 1.2467.0176 1.8132-.2019l3.4316 4.6771c-2.2345 1.3082-4.9805 1.6748-7.5749.8384zm11.4117-5.1526c-.5456 1.2459-1.3315 2.3096-2.2771 3.168l-3.4259-4.6795c.1877-.2367.3521-.4988.4774-.7883.1289-.2899.2093-.5865.2589-.8858l5.7563-.6375c.0078 1.2777-.2427 2.5778-.7896 3.8231z" fill="#0073e6"/></svg>