<svg width="28" height="28" viewBox="0 0 28 28" fill="none" xmlns="http://www.w3.org/2000/svg">
<path d="M25.966 16.9257C26.1793 16.0545 27.0308 15.5153 27.8994 15.678C27.9629 15.1643 27.9946 14.6478 28 14.1368C27.1199 14.1835 26.3434 13.5395 26.2438 12.65C26.1449 11.7558 26.7644 10.9634 27.6367 10.8109C27.5166 10.3133 27.3711 9.82092 27.1982 9.33525C26.3877 9.68022 25.4414 9.33626 25.043 8.5347C24.6514 7.7318 24.9539 6.77568 25.7246 6.33398C25.4427 5.90547 25.1379 5.49658 24.8128 5.09546C24.1686 5.69409 23.1589 5.69984 22.5148 5.08159C21.8656 4.46368 21.8288 3.45514 22.401 2.77703C21.9895 2.4784 21.5651 2.19228 21.1158 1.9278C20.7147 2.71278 19.7755 3.06418 18.9545 2.70331C18.1386 2.34413 17.7574 1.41134 18.0616 0.582732C17.5653 0.432229 17.064 0.312171 16.5677 0.209017C16.4594 1.0931 15.6907 1.7455 14.7994 1.68699C13.9068 1.6278 13.233 0.880697 13.234 0C12.7178 0.0317917 12.2108 0.0832009 11.7091 0.1664C11.9022 1.03222 11.4039 1.90142 10.5437 2.15372C9.6896 2.40366 8.80039 1.94064 8.49959 1.10628C8.02966 1.30853 7.56681 1.53513 7.12524 1.78439C7.60057 2.52879 7.43279 3.52109 6.71102 4.05343C5.99161 4.58171 4.99267 4.44576 4.42787 3.7619C4.0572 4.1133 3.70138 4.48871 3.36446 4.88036C4.07104 5.41067 4.25503 6.40399 3.75607 7.15211C3.2598 7.89347 2.27673 8.10315 1.51309 7.66517C1.40067 7.8867 1.29231 8.12141 1.18766 8.36154C1.08536 8.59558 0.98442 8.83403 0.89597 9.07212C1.73658 9.33457 2.24769 10.2061 2.03535 11.075C1.82469 11.9449 0.970578 12.4826 0.0985746 12.3257C0.0398334 12.8398 0.0054015 13.3525 0 13.8585C0.882807 13.8182 1.65826 14.4625 1.7565 15.351C1.85508 16.2418 1.23863 17.0386 0.369665 17.1871C0.488498 17.687 0.633996 18.1798 0.801104 18.6634C1.61943 18.3205 2.56165 18.6604 2.95596 19.4623C3.35196 20.2652 3.04779 21.2243 2.2818 21.6657C2.55997 22.0901 2.86312 22.5054 3.19025 22.9059C3.84113 22.3056 4.84311 22.2998 5.48825 22.9198C6.13407 23.5407 6.17694 24.5442 5.60134 25.2169C6.01017 25.5233 6.44026 25.805 6.88622 26.0688C7.28796 25.2882 8.23188 24.9389 9.04683 25.297C9.86718 25.6593 10.2446 26.591 9.94145 27.4139C10.4381 27.5654 10.934 27.6902 11.435 27.7849C11.545 26.9069 12.308 26.2572 13.2023 26.3147C14.0952 26.3708 14.7731 27.1186 14.7694 28C15.2829 27.9699 15.7933 27.9144 16.2977 27.8316C16.0988 26.9701 16.5995 26.0959 17.4526 25.8456C18.3134 25.5923 19.2047 26.06 19.5004 26.8934C19.9744 26.6905 20.4342 26.4642 20.8829 26.2136C20.4018 25.4726 20.5696 24.4779 21.2907 23.9472C22.0118 23.4196 23.0114 23.5519 23.5731 24.2337C23.9442 23.8874 24.3 23.5167 24.6359 23.1213C23.9296 22.5887 23.7504 21.593 24.2466 20.8506C24.7419 20.1055 25.7239 19.8918 26.4879 20.3331C26.6024 20.1082 26.7151 19.8752 26.8167 19.6405C26.9217 19.401 27.0173 19.1602 27.104 18.9282C26.2638 18.6614 25.7553 17.7935 25.966 16.9257ZM23.1353 12.0149L17.3796 12.6514C17.1531 12.0815 16.7878 11.5708 16.298 11.1748L18.6277 5.86015C20.9986 7.20859 22.586 9.48305 23.1353 12.0149ZM12.4727 13.3285C12.8434 12.4809 13.8299 12.1001 14.6705 12.4705C15.5151 12.8415 15.8993 13.8253 15.5266 14.6732C15.1573 15.5191 14.1732 15.9002 13.3292 15.5295C12.4876 15.1582 12.1014 14.174 12.4727 13.3285ZM16.8513 5.07788L14.5216 10.3935C13.9031 10.3018 13.2792 10.3766 12.708 10.5958L9.27774 5.91663C11.5126 4.60979 14.2572 4.24351 16.8513 5.07788ZM5.43897 10.2342C5.98553 8.9869 6.77212 7.92221 7.71637 7.06417L11.1433 11.7426C10.9566 11.9821 10.7915 12.2425 10.6639 12.533C10.5376 12.8212 10.4563 13.1212 10.4087 13.4178L4.65035 14.055C4.64427 12.7782 4.89476 11.4788 5.43897 10.2342ZM4.86505 15.9834L10.6227 15.35C10.8486 15.9178 11.2132 16.4275 11.7013 16.8235L9.37126 22.1368C7.00236 20.7894 5.41364 18.5166 4.86505 15.9834ZM11.147 22.9201L13.4771 17.6065C14.0979 17.6975 14.7238 17.6241 15.2903 17.4046L18.7219 22.0817C16.4874 23.3899 13.7414 23.7565 11.147 22.9201ZM22.5587 17.7675C22.0131 19.0134 21.2272 20.0771 20.2816 20.9355L16.8557 16.256C17.0434 16.0193 17.2078 15.7572 17.3331 15.4677C17.462 15.1778 17.5424 14.8812 17.592 14.5819L23.3483 13.9444C23.3561 15.2221 23.1056 16.5222 22.5587 17.7675Z" fill="#0073E6"/>
</svg>
