<svg width="107" height="168" viewBox="0 0 107 168" fill="none" xmlns="http://www.w3.org/2000/svg">
<path d="M47.3006 123.435C46.1684 120.867 45.3931 118.113 44.9936 115.252L44.974 115.107L25.3795 117.728L25.4001 117.873C26.0461 122.585 27.3316 127.145 29.2188 131.426L29.2784 131.56L47.3601 123.57L47.3006 123.435ZM46.9797 123.417C46.7276 123.529 29.7031 131.052 29.4329 131.172C27.6063 126.998 26.3576 122.562 25.715 117.978C26.0092 117.938 44.458 115.472 44.7297 115.436C45.131 118.222 45.8884 120.906 46.9797 123.417Z" fill="#D9EAFB"/>
<path d="M14.139 64.3323L14.0502 64.4481C9.49596 70.3996 5.89387 76.7402 3.34156 83.2934L3.28927 83.4294L21.6799 90.6792L21.7331 90.5407C23.5975 85.7284 26.274 81.0172 29.6905 76.538L29.778 76.4233L14.139 64.3323ZM29.3726 76.478C26.0151 80.9017 23.374 85.5499 21.519 90.3005C21.2613 90.1982 3.93863 83.3719 3.66924 83.2658C6.18925 76.8281 9.73081 70.5987 14.1976 64.7457C14.4301 64.9257 29.1533 76.3094 29.3726 76.478Z" fill="#D9EAFB"/>
<path d="M47.616 150.457C43.7532 147.746 40.4198 144.668 37.7121 141.308L37.6204 141.194L22.2917 153.677L22.3839 153.789C26.2739 158.603 30.9887 162.959 36.3965 166.733L36.5175 166.816L47.7349 150.539L47.616 150.457ZM47.3326 150.607C47.1774 150.834 36.6114 166.166 36.4462 166.406C31.153 162.696 26.5315 158.43 22.7042 153.718C22.9289 153.535 37.3663 141.777 37.5799 141.602C40.2633 144.904 43.5414 147.933 47.3326 150.607Z" fill="#0073E6"/>
<path d="M41.1107 110.138C41.2645 104.803 42.7655 99.4971 45.4527 94.7924L45.5249 94.6649L16.576 78.1722L16.5035 78.2991C11.1372 87.6794 8.13043 98.3038 7.81129 109.021L7.80743 109.167L41.1064 110.284L41.1107 110.138ZM40.8259 109.983C40.5444 109.973 8.40681 108.894 8.11196 108.885C8.44936 98.3115 11.4143 87.8373 16.6859 78.5718C16.9411 78.7173 44.8896 94.6394 45.1305 94.7778C42.4902 99.4485 41.0041 104.698 40.8259 109.983Z" fill="#D9EAFB"/>
<path d="M93.4899 24.1163L93.3472 24.0848C74.0958 19.9368 53.7551 22.3357 36.0757 30.8427L35.9437 30.9059L55.51 71.8576L55.6432 71.7934C64.3189 67.596 74.3243 66.411 83.8154 68.4592L83.9578 68.4901L93.4899 24.1163ZM83.7327 68.1458C74.2699 66.1363 64.3104 67.3162 55.6497 71.4689C55.5265 71.2122 36.462 31.3113 36.3353 31.0455C53.8825 22.6393 74.0425 20.2604 93.1421 24.3425C93.0809 24.6316 83.7931 67.8677 83.7327 68.1458Z" fill="#D9EAFB"/>
<path d="M52.6483 36.4811L52.5077 36.5207C38.6846 40.5466 25.8284 48.7081 16.3076 59.4997L16.2115 59.6095L44.9333 85.1004L45.0319 84.9908C49.9157 79.4504 56.2546 75.4288 63.362 73.3574L63.5016 73.3162L52.6483 36.4811ZM63.141 73.1222C56.0849 75.2067 49.7884 79.2032 44.9144 84.6906C44.7046 84.5041 16.8454 59.7812 16.6257 59.5859C26.067 48.925 38.7784 40.8554 52.4496 36.8449C52.5347 37.1265 63.0626 72.8538 63.141 73.1222Z" fill="#0073E6"/>
<path d="M74.8951 90.4104C73.2524 89.1816 72.8896 86.891 73.9985 85.2095C72.9867 84.6274 71.9367 84.0849 70.8616 83.6228C70.1649 85.5146 68.1243 86.5658 66.1633 85.9768C64.2061 85.3909 63.0865 83.3716 63.5476 81.4088C62.4011 81.2034 61.2327 81.071 60.0699 81C60.0473 83.0055 58.481 84.6996 56.4499 84.817C54.4049 84.9288 52.6757 83.4225 52.4383 81.4088C51.288 81.6135 50.144 81.8885 49.0144 82.2062C49.6985 84.1194 48.8039 86.243 46.9231 87.0511C45.041 87.8517 42.9052 87.0342 41.9987 85.2271C40.9894 85.816 40.0045 86.4521 39.0566 87.1541C40.3328 88.7082 40.2225 91.0038 38.7352 92.4103C37.2459 93.8118 34.9491 93.776 33.4843 92.3871C32.7269 93.3013 32.0183 94.2425 31.3749 95.2064C33.1172 96.228 33.7913 98.4269 32.871 100.255C31.9425 102.077 29.7773 102.837 27.9265 102.032C27.5212 103.144 27.1841 104.272 26.8997 105.409C28.8932 105.769 30.2728 107.607 30.0404 109.64C29.7829 111.669 28.0124 113.121 26 113.001C26.0013 114.184 26.0601 115.353 26.1842 116.524C28.1771 116.184 30.1068 117.432 30.5717 119.422C31.0441 121.418 29.8581 123.405 27.9184 123.985C28.3187 125.078 28.7855 126.157 29.3042 127.212C31.0597 126.213 33.2995 126.727 34.4197 128.442C35.5374 130.159 35.1064 132.419 33.4906 133.621C33.8603 134.065 34.2468 134.508 34.6522 134.938C35.0594 135.372 35.4742 135.79 35.8933 136.192C37.1983 134.655 39.4757 134.368 41.1122 135.59C42.7555 136.827 43.1176 139.099 41.9943 140.781C43.023 141.378 44.0687 141.912 45.1388 142.377C45.8342 140.478 47.8879 139.425 49.8395 140.019C51.7924 140.615 52.9126 142.623 52.4508 144.596C53.6124 144.802 54.7777 144.922 55.9411 145C55.9537 142.987 57.5212 141.3 59.5549 141.193C61.5929 141.074 63.3309 142.585 63.5721 144.589C64.7186 144.383 65.8632 144.11 66.9903 143.786C66.31 141.881 67.2052 139.758 69.081 138.962C70.9662 138.155 73.1076 138.973 74.0086 140.772C75.0204 140.188 76.0059 139.554 76.95 138.845C75.6751 137.294 75.7835 134.989 77.2696 133.597C78.7588 132.199 81.055 132.228 82.5248 133.611C83.2854 132.702 83.9864 131.759 84.633 130.796C82.8969 129.778 82.2078 127.584 83.1331 125.758C84.0566 123.916 86.2281 123.161 88.082 123.968C88.493 122.859 88.8231 121.726 89.0863 120.588C87.1209 120.234 85.7206 118.395 85.9681 116.357C86.2106 114.336 87.9974 112.869 89.9997 112.992C90.0047 111.815 89.9427 110.652 89.8237 109.474C87.8263 109.817 85.8967 108.564 85.4381 106.576C84.9619 104.565 86.141 102.589 88.0851 102.02C87.6822 100.92 87.2186 99.8384 86.6967 98.7785C84.9356 99.7876 82.7014 99.2809 81.5837 97.561C80.4617 95.8431 80.8977 93.5845 82.5166 92.3745C82.1351 91.9287 81.7554 91.4898 81.3582 91.0622C80.9491 90.6283 80.5318 90.2064 80.1133 89.7957C78.8077 91.341 76.524 91.6349 74.8951 90.4104ZM40.1931 99.8435L42.3395 101.658C39.4137 105.129 38.1882 109.463 38.546 113.655L35.7467 113.896C35.3244 108.983 36.7767 103.906 40.1931 99.8435ZM58.9052 135.306C53.9977 135.728 48.9386 134.279 44.8775 130.849L46.6844 128.693C50.154 131.627 54.472 132.865 58.6608 132.506L58.9052 135.306ZM75.8035 126.16L73.6615 124.351C76.5885 120.865 77.8297 116.539 77.46 112.342L80.2618 112.099C80.6759 117.012 79.2255 122.091 75.8035 126.16ZM69.0459 102.62C74.7604 108.73 74.4528 118.339 68.353 124.076C62.2577 129.801 52.6682 129.486 46.9569 123.374C41.245 117.275 41.53 107.674 47.6442 101.938C53.7471 96.2054 63.3215 96.4986 69.0459 102.62ZM71.1272 95.1474C71.1272 95.1474 71.1272 95.1474 71.1316 95.1505L69.3185 97.3086C65.8513 94.3706 61.5321 93.1318 57.3389 93.501L57.1033 90.6942C62.0089 90.2666 67.0693 91.7253 71.1272 95.1474Z" fill="#0073E6"/>
<path d="M80.6751 71.4185C79.2761 74.3245 80.5051 77.8265 83.4171 79.2305C84.8291 79.9045 86.4131 79.9946 87.8841 79.4736H87.8911C89.3631 78.9606 90.5501 77.8985 91.2281 76.4885C91.9241 75.0325 91.9651 73.4265 91.4731 72.0135C90.9701 70.6025 89.9441 69.3765 88.4901 68.6745C85.5771 67.2815 82.0751 68.5065 80.6751 71.4185ZM87.3451 77.9266C85.1511 78.6896 82.7491 77.5406 81.9821 75.3476C81.2081 73.1526 82.3681 70.7555 84.5591 69.9835C86.7521 69.2165 89.1491 70.3696 89.9241 72.5596C90.6891 74.7526 89.5401 77.1586 87.3451 77.9266ZM92.9961 71.4866C92.5761 70.2966 93.1501 69.0056 94.2761 68.5026C93.7221 67.6536 93.0531 66.9045 92.2951 66.2775C91.6621 67.3445 90.3191 67.7705 89.1832 67.2295C88.0532 66.6825 87.5411 65.3625 87.9831 64.2115C87.0191 64.0065 86.0171 63.9505 85.0081 64.0435C85.3181 65.2425 84.6651 66.4915 83.4781 66.9075C82.2981 67.3265 81.0041 66.7575 80.5041 65.6255C79.6541 66.1845 78.9062 66.8545 78.2802 67.6135C79.3422 68.2425 79.7661 69.5895 79.2271 70.7175C78.6791 71.8525 77.3551 72.3625 76.2071 71.9235C76.0061 72.8845 75.9491 73.8905 76.0461 74.8985C77.2371 74.5875 78.4921 75.2375 78.9081 76.4275C79.3231 77.6125 78.7521 78.9005 77.6211 79.4065C78.1811 80.2565 78.8501 81.0025 79.6111 81.6265C80.2351 80.5645 81.5841 80.1355 82.7181 80.6835C83.8501 81.2225 84.3572 82.5425 83.9201 83.6985C84.8851 83.9005 85.8881 83.9625 86.8911 83.8645C86.5831 82.6715 87.2371 81.4146 88.4211 80.9996C89.6081 80.5816 90.8982 81.1555 91.4052 82.2825C92.2562 81.7305 92.9981 81.0565 93.6241 80.2905C92.5591 79.6675 92.1311 78.3236 92.6781 77.1886C93.2241 76.0566 94.5422 75.5496 95.6961 75.9866C95.8981 75.0216 95.9561 74.0205 95.8601 73.0145C94.6621 73.3185 93.4111 72.6726 92.9961 71.4866ZM91.4811 76.6145C90.7691 78.0865 89.5291 79.2026 87.9791 79.7446C86.4361 80.2846 84.7661 80.1926 83.2921 79.4826C80.2431 78.0106 78.9541 74.3425 80.4211 71.2935C81.8861 68.2475 85.5571 66.9575 88.6091 68.4235C91.6611 69.8895 92.9461 73.5625 91.4811 76.6145Z" fill="#0073E6"/>
</svg>
