<svg width="95" height="114" viewBox="0 0 95 114" fill="none" xmlns="http://www.w3.org/2000/svg">
<rect width="95" height="114" rx="9" fill="#D9EAFB"/>
<rect x="6" y="6" width="12" height="8" rx="4" fill="white"/>
<rect x="19" y="6" width="51" height="8" rx="4" fill="white"/>
<rect x="80" y="6" width="8" height="8" rx="4" fill="white"/>
<rect x="71" y="6" width="8" height="8" rx="4" fill="white"/>
<path d="M70.9599 73.1001C66.4169 73.7291 63.2449 77.9281 63.8739 82.4671C64.5079 87.0191 68.7049 90.1851 73.2459 89.5491C77.7899 88.9191 80.963 84.7281 80.334 80.1781C79.702 75.6401 75.5039 72.4681 70.9599 73.1001ZM76.0439 80.7781C76.3439 82.9541 74.8269 84.9601 72.6509 85.2601C70.4779 85.5651 68.4699 84.0481 68.1659 81.8721C67.8659 79.7001 69.3839 77.6891 71.5559 77.3891C73.7309 77.0871 75.7379 78.6071 76.0439 80.7781Z" fill="#0073E6"/>
<path d="M90.1949 75.599C89.8329 74.46 89.3799 73.367 88.8259 72.338L90.2149 71.2531L86.3039 66.231L84.9109 67.313C84.0359 66.517 83.0909 65.8011 82.0909 65.1841L82.7539 63.5461L76.8549 61.15L76.1939 62.79C75.0509 62.531 73.8809 62.388 72.6819 62.353L72.4389 60.6021L66.1289 61.478L66.3719 63.2271C65.2339 63.5881 64.1409 64.0471 63.1179 64.6021L62.0309 63.211L57.0089 67.121L58.0929 68.517C57.2979 69.389 56.5829 70.3361 55.9619 71.3391L54.3209 70.673L51.9279 76.5721L53.5629 77.236C53.3099 78.379 53.1639 79.551 53.1309 80.744L51.3779 80.985L52.2559 87.298L54.0069 87.0571C54.3679 88.1961 54.8259 89.2871 55.3779 90.3091L53.9859 91.399L57.8999 96.4211L59.2949 95.332C60.1689 96.127 61.1059 96.845 62.1109 97.465L61.4479 99.105L67.3479 101.503L68.0139 99.8651C69.1529 100.119 70.3249 100.259 71.5249 100.301L71.7649 102.048L78.0729 101.175L77.8289 99.4211C78.9719 99.0601 80.0589 98.604 81.0849 98.05L82.1719 99.443L87.1949 95.5291L86.1109 94.133C86.9059 93.261 87.6189 92.3171 88.2429 91.3111L89.8809 91.979L92.2769 86.077L90.6429 85.416C90.8939 84.273 91.0319 83.104 91.0699 81.9081L92.8269 81.662L91.9499 75.355L90.1949 75.599ZM83.7499 90.134C81.3999 93.244 77.9699 95.2611 74.1069 95.7941C70.2439 96.3281 66.4009 95.325 63.2889 92.968C56.8659 88.111 55.5909 78.928 60.4439 72.509C65.3009 66.09 74.4849 64.811 80.9149 69.67C87.3389 74.525 88.6139 83.712 83.7499 90.134ZM60.9849 72.92C56.3489 79.047 57.5669 87.796 63.6989 92.44C66.6639 94.683 70.3339 95.639 74.0179 95.1301C74.0179 95.1301 74.0199 95.1301 74.0229 95.1301C77.7079 94.612 80.9719 92.701 83.2139 89.729C85.5299 86.6651 86.3869 82.935 85.8979 79.399C85.4059 75.867 83.5699 72.522 80.5109 70.204C74.3799 65.569 65.6189 66.791 60.9849 72.92ZM83.7949 79.696C84.6869 86.16 80.1799 92.116 73.7219 93.009C67.2719 93.913 61.3079 89.4151 60.4059 82.951C59.5139 76.497 64.0209 70.533 70.4739 69.64C76.9309 68.742 82.8949 73.249 83.7949 79.696Z" fill="#0073E6"/>
<path d="M41.3271 57.3931C39.9291 60.2991 41.1581 63.801 44.0691 65.205C45.4801 65.881 47.0641 65.969 48.5371 65.45L48.5441 65.448C50.0141 64.936 51.2011 63.874 51.8791 62.465C52.5761 61.011 52.6181 59.4031 52.1251 57.9901C51.6231 56.5781 50.5981 55.352 49.1411 54.651C46.2301 53.256 42.7261 54.4821 41.3271 57.3931ZM47.9971 63.9C45.8051 64.664 43.4021 63.5151 42.6341 61.3221C41.8601 59.1271 43.0221 56.731 45.2131 55.959C47.4061 55.19 49.8041 56.3451 50.5761 58.5351C51.3431 60.7271 50.1911 63.133 47.9971 63.9ZM53.6471 57.461C53.2291 56.271 53.8021 54.9801 54.9291 54.4771C54.3751 53.6291 53.7051 52.88 52.9491 52.254C52.3151 53.321 50.9711 53.746 49.8361 53.204C48.7051 52.657 48.1931 51.3391 48.6361 50.1881C47.6721 49.9821 46.6701 49.9261 45.6631 50.0181C45.9721 51.2201 45.3171 52.467 44.1321 52.885C42.9511 53.302 41.6571 52.7321 41.1561 51.6001C40.3061 52.1621 39.5591 52.83 38.9321 53.59C39.9961 54.219 40.4181 55.565 39.8781 56.693C39.3301 57.828 38.0081 58.337 36.8581 57.899C36.6571 58.859 36.6011 59.866 36.6971 60.874C37.8901 60.563 39.1421 61.212 39.5601 62.402C39.9751 63.588 39.4031 64.8761 38.2731 65.3821C38.8331 66.2311 39.5001 66.979 40.2631 67.601C40.8871 66.54 42.2341 66.1101 43.3681 66.6581C44.5001 67.1981 45.0071 68.519 44.5701 69.674C45.5361 69.874 46.5371 69.936 47.5421 69.838C47.2331 68.645 47.8861 67.388 49.0721 66.974C50.2571 66.555 51.5481 67.13 52.0541 68.258C52.9081 67.704 53.6491 67.0311 54.2731 66.2641C53.2091 65.6411 52.7821 64.298 53.3261 63.1601C53.8721 62.0291 55.1921 61.522 56.3461 61.958C56.5471 60.995 56.6041 59.994 56.5091 58.986C55.3161 59.293 54.0621 58.647 53.6471 57.461ZM52.1331 62.5891C51.4231 64.0611 50.1841 65.178 48.6321 65.72C47.0871 66.261 45.4191 66.168 43.9441 65.458C40.8971 63.986 39.6081 60.3181 41.0731 57.2701C42.5401 54.2221 46.2111 52.935 49.2611 54.4C52.3121 55.863 53.5991 59.5361 52.1331 62.5891Z" fill="white"/>
<path d="M61.3493 49.726C60.6469 51.1856 61.2644 52.9447 62.727 53.6499C63.436 53.9895 64.2319 54.0337 64.972 53.773L64.9755 53.772C65.7141 53.5148 66.3105 52.9814 66.6512 52.2736C67.0014 51.5433 67.0225 50.7356 66.7748 50.0258C66.5225 49.3166 66.0075 48.7008 65.2755 48.3487C63.8128 47.648 62.0522 48.2638 61.3493 49.726ZM64.7006 52.9944C63.5993 53.3782 62.3919 52.801 62.006 51.6995C61.6171 50.5969 62.201 49.3934 63.3018 49.0057C64.4037 48.6194 65.6086 49.1996 65.9965 50.2996C66.3818 51.4006 65.803 52.6091 64.7006 52.9944ZM67.5395 49.7601C67.3295 49.1624 67.6174 48.5139 68.1836 48.2613C67.9053 47.8353 67.5686 47.4591 67.1888 47.1446C66.8702 47.6806 66.1949 47.8941 65.6247 47.6218C65.0564 47.3471 64.7991 46.685 65.0217 46.1069C64.5373 46.0034 64.0339 45.9753 63.5279 46.0215C63.6832 46.6253 63.3541 47.2516 62.7587 47.4616C62.1653 47.6711 61.5151 47.3848 61.2634 46.8162C60.8363 47.0984 60.461 47.434 60.1459 47.8157C60.6805 48.1317 60.8926 48.8078 60.6213 49.3743C60.3459 49.9445 59.6817 50.2001 59.1039 49.9801C59.0029 50.4623 58.9747 50.9681 59.023 51.4745C59.6224 51.3182 60.2514 51.6442 60.4615 52.242C60.67 52.8377 60.3826 53.4847 59.8148 53.7388C60.0962 54.1653 60.4313 54.541 60.8147 54.8534C61.1282 54.3205 61.805 54.1045 62.3748 54.3798C62.9436 54.651 63.1983 55.3145 62.9788 55.8947C63.4641 55.9951 63.9671 56.0263 64.472 55.9771C64.3168 55.3778 64.6449 54.7464 65.2408 54.5385C65.8362 54.328 66.4848 54.6168 66.7391 55.1834C67.1682 54.9052 67.5405 54.5671 67.854 54.1819C67.3194 53.8689 67.1049 53.1943 67.3782 52.6227C67.6525 52.0546 68.3158 51.7999 68.8956 52.0189C68.9966 51.5352 69.0252 51.0324 68.9775 50.5261C68.3781 50.6803 67.748 50.3558 67.5395 49.7601ZM66.7788 52.3359C66.422 53.0753 65.7995 53.6364 65.0197 53.9086C64.2434 54.1803 63.4053 54.1336 62.6642 53.777C61.1332 53.0376 60.4856 51.1952 61.2217 49.6642C61.9588 48.1332 63.8033 47.4867 65.3357 48.2226C66.8687 48.9574 67.5154 50.8024 66.7788 52.3359Z" fill="#0073E6"/>
</svg>
