<svg width="128" height="150" viewBox="0 0 128 150" fill="none" xmlns="http://www.w3.org/2000/svg">
<path d="M45.9662 0H0V1.17473H45.9662V0Z" fill="#0073E6"/>
<path d="M45.9706 19.5828H0.00439453V20.7582H45.9706V19.5828Z" fill="#0073E6"/>
<path d="M40.1405 3.91699H0.000488281V5.09246H40.1405V3.91699Z" fill="#0073E6"/>
<path d="M40.142 7.83398H0.00195312V9.00798H40.142V7.83398Z" fill="#0073E6"/>
<path d="M40.143 11.751H0.00292969V12.925H40.143V11.751Z" fill="#0073E6"/>
<path d="M40.1435 15.6658H0.00341797V16.842H40.1435V15.6658Z" fill="#0073E6"/>
<path d="M45.9662 0H0V1.17473H45.9662V0Z" fill="#0073E6"/>
<path d="M40.1405 3.91699H0.000488281V5.09246H40.1405V3.91699Z" fill="#0073E6"/>
<path d="M40.142 7.83398H0.00195312V9.00798H40.142V7.83398Z" fill="#0073E6"/>
<path d="M40.143 11.751H0.00292969V12.925H40.143V11.751Z" fill="#0073E6"/>
<path d="M40.1435 15.6658H0.00341797V16.842H40.1435V15.6658Z" fill="#0073E6"/>
<path d="M45.976 39.1648H0.00976562V40.3395H45.976V39.1648Z" fill="#0073E6"/>
<path d="M40.1459 23.4996H0.00585938V24.6751H40.1459V23.4996Z" fill="#0073E6"/>
<path d="M40.1469 27.4159H0.00683594V28.5913H40.1469V27.4159Z" fill="#0073E6"/>
<path d="M40.1481 31.3328H0.00732422V32.5075H40.1481V31.3328Z" fill="#0073E6"/>
<path d="M40.1491 35.2491H0.00830078V36.4239H40.1491V35.2491Z" fill="#0073E6"/>
<path d="M40.1459 23.4996H0.00585938V24.6751H40.1459V23.4996Z" fill="#0073E6"/>
<path d="M40.1469 27.4159H0.00683594V28.5913H40.1469V27.4159Z" fill="#0073E6"/>
<path d="M40.1481 31.3328H0.00732422V32.5075H40.1481V31.3328Z" fill="#0073E6"/>
<path d="M40.1491 35.2491H0.00830078V36.4239H40.1491V35.2491Z" fill="#0073E6"/>
<path d="M45.9794 54.8296H0.0131836V56.005H45.9794V54.8296Z" fill="#0073E6"/>
<path d="M40.1498 39.1654H0.00976562V40.3401H40.1498V39.1654Z" fill="#0073E6"/>
<path d="M40.1508 43.0817H0.0107422V44.2564H40.1508V43.0817Z" fill="#0073E6"/>
<path d="M40.1513 46.9978H0.0112305V48.1733H40.1513V46.9978Z" fill="#0073E6"/>
<path d="M40.1522 50.9155H0.012207V52.0895H40.1522V50.9155Z" fill="#0073E6"/>
<path d="M40.1508 43.0817H0.0107422V44.2564H40.1508V43.0817Z" fill="#0073E6"/>
<path d="M40.1513 46.9978H0.0112305V48.1733H40.1513V46.9978Z" fill="#0073E6"/>
<path d="M40.1522 50.9155H0.012207V52.0895H40.1522V50.9155Z" fill="#0073E6"/>
<path d="M45.9848 74.4122H0.0185547V75.5877H45.9848V74.4122Z" fill="#0073E6"/>
<path d="M40.1542 58.7473H0.0141602V59.9228H40.1542V58.7473Z" fill="#0073E6"/>
<path d="M40.1557 62.6636H0.015625V63.839H40.1557V62.6636Z" fill="#0073E6"/>
<path d="M40.1569 66.5813H0.0161133V67.756H40.1569V66.5813Z" fill="#0073E6"/>
<path d="M40.1566 70.4974H0.0166016V71.6722H40.1566V70.4974Z" fill="#0073E6"/>
<path d="M40.1542 58.7473H0.0141602V59.9228H40.1542V58.7473Z" fill="#0073E6"/>
<path d="M40.1557 62.6636H0.015625V63.839H40.1557V62.6636Z" fill="#0073E6"/>
<path d="M40.1569 66.5813H0.0161133V67.756H40.1569V66.5813Z" fill="#0073E6"/>
<path d="M40.1566 70.4974H0.0166016V71.6722H40.1566V70.4974Z" fill="#0073E6"/>
<path d="M44.8154 93.9957H0.0224609V95.1712H44.8154V93.9957Z" fill="#0073E6"/>
<path d="M40.1591 78.3301H0.019043V79.5048H40.1591V78.3301Z" fill="#0073E6"/>
<path d="M40.1596 82.2462H0.0195312V83.4209H40.1596V82.2462Z" fill="#0073E6"/>
<path d="M40.1618 86.1625H0.0209961V87.3372H40.1618V86.1625Z" fill="#0073E6"/>
<path d="M40.162 90.0787H0.0219727V91.2542H40.162V90.0787Z" fill="#0073E6"/>
<path d="M40.1591 78.3301H0.019043V79.5048H40.1591V78.3301Z" fill="#0073E6"/>
<path d="M40.1596 82.2462H0.0195312V83.4209H40.1596V82.2462Z" fill="#0073E6"/>
<path d="M40.1618 86.1625H0.0209961V87.3372H40.1618V86.1625Z" fill="#0073E6"/>
<path d="M40.162 90.0787H0.0219727V91.2542H40.162V90.0787Z" fill="#0073E6"/>
<path d="M45.9948 113.578H0.027832V114.753H45.9948V113.578Z" fill="#0073E6"/>
<path d="M40.1645 97.9119H0.0244141V99.0873H40.1645V97.9119Z" fill="#0073E6"/>
<path d="M40.1649 101.829H0.0249023V103.004H40.1649V101.829Z" fill="#0073E6"/>
<path d="M40.1654 105.744H0.0253906V106.92H40.1654V105.744Z" fill="#0073E6"/>
<path d="M40.1674 109.661H0.0273438V110.837H40.1674V109.661Z" fill="#0073E6"/>
<path d="M40.1645 97.9119H0.0244141V99.0873H40.1645V97.9119Z" fill="#0073E6"/>
<path d="M40.1649 101.829H0.0249023V103.004H40.1649V101.829Z" fill="#0073E6"/>
<path d="M40.1654 105.744H0.0253906V106.92H40.1654V105.744Z" fill="#0073E6"/>
<path d="M40.1674 109.661H0.0273438V110.837H40.1674V109.661Z" fill="#0073E6"/>
<path d="M45.998 129.244H0.0317383V130.418H45.998V129.244Z" fill="#0073E6"/>
<path d="M40.1679 113.578H0.027832V114.754H40.1679V113.578Z" fill="#0073E6"/>
<path d="M40.1684 117.495H0.0283203V118.669H40.1684V117.495Z" fill="#0073E6"/>
<path d="M40.1703 121.411H0.0302734V122.587H40.1703V121.411Z" fill="#0073E6"/>
<path d="M40.1708 125.328H0.0307617V126.503H40.1708V125.328Z" fill="#0073E6"/>
<path d="M40.1684 117.495H0.0283203V118.669H40.1684V117.495Z" fill="#0073E6"/>
<path d="M40.1703 121.411H0.0302734V122.587H40.1703V121.411Z" fill="#0073E6"/>
<path d="M40.1708 125.328H0.0307617V126.503H40.1708V125.328Z" fill="#0073E6"/>
<path d="M46.0028 148.827H0.0366211V150H46.0028V148.827Z" fill="#0073E6"/>
<path d="M40.1728 133.162H0.0327148V134.335H40.1728V133.162Z" fill="#0073E6"/>
<path d="M40.1732 137.076H0.0332031V138.251H40.1732V137.076Z" fill="#0073E6"/>
<path d="M40.1747 140.993H0.034668V142.167H40.1747V140.993Z" fill="#0073E6"/>
<path d="M40.1757 144.911H0.0356445V146.084H40.1757V144.911Z" fill="#0073E6"/>
<path d="M40.1728 133.162H0.0327148V134.335H40.1728V133.162Z" fill="#0073E6"/>
<path d="M40.1732 137.076H0.0332031V138.251H40.1732V137.076Z" fill="#0073E6"/>
<path d="M40.1747 140.993H0.034668V142.167H40.1747V140.993Z" fill="#0073E6"/>
<path d="M40.1757 144.911H0.0356445V146.084H40.1757V144.911Z" fill="#0073E6"/>
<path d="M98.9123 36.3786C95.9327 34.1547 95.2748 30.0092 97.2861 26.9661C95.4509 25.9127 93.5464 24.9309 91.5964 24.0945C90.3327 27.5184 86.6316 29.4206 83.0748 28.3547C79.5248 27.2945 77.4941 23.6399 78.3305 20.0877C76.2509 19.7161 74.1316 19.4763 72.0225 19.3479C71.9816 22.9774 69.1407 26.0433 65.4566 26.2558C61.7475 26.4581 58.6111 23.732 58.1805 20.0877C56.0941 20.4581 54.0191 20.9558 51.9702 21.5308C53.2111 24.9933 51.5884 28.8365 48.1771 30.299C44.7634 31.7479 40.8896 30.2683 39.2452 26.9979C37.4146 28.0638 35.6282 29.2149 33.9089 30.4854C36.2236 33.2979 36.0236 37.4524 33.3259 39.9979C30.6248 42.5343 26.4589 42.4695 23.8021 39.9558C22.4282 41.6104 21.143 43.3138 19.9759 45.0581C23.1361 46.907 24.3589 50.8865 22.6896 54.1956C21.0055 57.4922 17.0782 58.8684 13.7214 57.4115C12.9861 59.424 12.3748 61.4649 11.8589 63.5229C15.4748 64.174 17.9771 67.5002 17.5555 71.1797C17.0884 74.8525 13.8771 77.4797 10.2271 77.2615C10.2293 79.4024 10.3361 81.5183 10.5611 83.6388C14.1759 83.0229 17.6759 85.2808 18.5191 88.8831C19.3759 92.4956 17.2248 96.0911 13.7066 97.1411C14.4327 99.1184 15.2793 101.071 16.2202 102.981C19.4043 101.173 23.4668 102.102 25.4986 105.207C27.5259 108.315 26.7441 112.404 23.8134 114.58C24.4839 115.383 25.185 116.184 25.9202 116.964C26.6589 117.749 27.4111 118.505 28.1714 119.233C30.5384 116.45 34.6691 115.932 37.6373 118.143C40.618 120.382 41.2748 124.493 39.2373 127.538C41.1032 128.618 42.9998 129.584 44.9407 130.425C46.202 126.99 49.9271 125.083 53.4668 126.159C57.0089 127.237 59.0407 130.871 58.2032 134.442C60.31 134.815 62.4236 135.032 64.5339 135.173C64.5566 131.53 67.3998 128.477 71.0884 128.283C74.785 128.067 77.9373 130.802 78.3748 134.429C80.4543 134.056 82.5305 133.562 84.5748 132.976C83.3407 129.529 84.9646 125.685 88.3668 124.246C91.7861 122.784 95.6702 124.266 97.3043 127.522C99.1396 126.465 100.927 125.317 102.64 124.034C100.327 121.227 100.524 117.056 103.219 114.537C105.92 112.006 110.085 112.059 112.751 114.562C114.13 112.916 115.402 111.209 116.575 109.467C113.426 107.624 112.176 103.654 113.854 100.35C115.529 97.0149 119.468 95.6502 122.83 97.1104C123.576 95.1025 124.175 93.0525 124.652 90.9934C121.087 90.3525 118.548 87.024 118.996 83.3365C119.436 79.6786 122.677 77.024 126.309 77.2456C126.318 75.1161 126.205 73.0115 125.99 70.8786C122.367 71.499 118.867 69.232 118.035 65.6343C117.171 61.9945 119.31 58.4183 122.836 57.3899C122.105 55.3979 121.265 53.4411 120.318 51.5229C117.124 53.349 113.071 52.432 111.044 49.3195C109.009 46.2104 109.8 42.1229 112.736 39.9331C112.044 39.1263 111.355 38.332 110.635 37.5581C109.893 36.7729 109.136 36.0093 108.377 35.2661C106.009 38.0627 101.867 38.5945 98.9123 36.3786ZM35.9702 53.4502L39.8634 56.7343C34.5566 63.0149 32.3339 70.8592 32.9827 78.4456L27.9055 78.882C27.1396 69.9911 29.7736 60.8024 35.9702 53.4502ZM69.91 117.63C61.0089 118.392 51.8327 115.771 44.4668 109.564L47.7441 105.662C54.0373 110.972 61.8691 113.212 69.4668 112.562L69.91 117.63ZM100.56 101.076L96.6748 97.8024C101.984 91.4933 104.235 83.6649 103.565 76.0695L108.646 75.6297C109.398 84.5206 106.767 93.7127 100.56 101.076ZM88.3032 58.4752C98.668 69.532 98.11 86.9229 87.0464 97.3059C75.9907 107.666 58.5975 107.097 48.2384 96.0342C37.8782 84.9979 38.3952 67.6217 49.485 57.2411C60.5543 46.8661 77.9202 47.3968 88.3032 58.4752ZM92.0782 44.9513C92.0782 44.9513 92.0782 44.9513 92.0862 44.957L88.7975 48.8627C82.5089 43.5456 74.6748 41.3036 67.0691 41.9718L66.6418 36.8922C75.5396 36.1184 84.718 38.7581 92.0782 44.9513Z" fill="#D9EAFB"/>
<path d="M110.313 125.43C108.723 128.732 110.119 132.712 113.429 134.307C115.033 135.073 116.833 135.176 118.505 134.584H118.513C120.185 134.001 121.534 132.794 122.305 131.192C123.096 129.537 123.142 127.712 122.583 126.106C122.012 124.503 120.846 123.11 119.193 122.312C115.883 120.729 111.904 122.121 110.313 125.43ZM117.892 132.826C115.399 133.693 112.669 132.387 111.798 129.895C110.918 127.401 112.237 124.677 114.726 123.799C117.218 122.928 119.942 124.238 120.823 126.727C121.692 129.219 120.387 131.953 117.892 132.826ZM124.314 125.507C123.837 124.155 124.489 122.688 125.768 122.117C125.139 121.152 124.379 120.301 123.517 119.588C122.798 120.801 121.272 121.285 119.981 120.67C118.697 120.048 118.115 118.548 118.617 117.24C117.522 117.007 116.383 116.944 115.237 117.049C115.589 118.412 114.847 119.831 113.498 120.304C112.157 120.78 110.687 120.134 110.118 118.847C109.152 119.482 108.302 120.244 107.591 121.106C108.798 121.821 109.28 123.352 108.667 124.634C108.044 125.923 106.54 126.503 105.235 126.004C105.007 127.096 104.942 128.239 105.052 129.385C106.406 129.031 107.832 129.77 108.305 131.122C108.776 132.469 108.127 133.932 106.842 134.507C107.479 135.473 108.239 136.321 109.104 137.03C109.813 135.823 111.346 135.336 112.634 135.959C113.921 136.571 114.497 138.071 114 139.385C115.097 139.614 116.237 139.685 117.376 139.573C117.026 138.218 117.769 136.789 119.115 136.318C120.464 135.843 121.93 136.495 122.506 137.776C123.473 137.148 124.316 136.382 125.027 135.512C123.817 134.804 123.331 133.277 123.952 131.987C124.573 130.701 126.071 130.125 127.382 130.621C127.612 129.524 127.677 128.387 127.568 127.244C126.207 127.589 124.785 126.855 124.314 125.507ZM122.592 131.335C121.783 133.007 120.374 134.276 118.613 134.892C116.859 135.505 114.962 135.401 113.287 134.594C109.822 132.921 108.357 128.753 110.024 125.288C111.689 121.827 115.86 120.361 119.329 122.027C122.797 123.693 124.257 127.867 122.592 131.335Z" fill="#0073E6"/>
<path d="M44.6699 23.7231C45.2453 23.7245 45.7935 23.9763 46.1718 24.4062C46.3641 24.2551 46.545 24.0923 46.7143 23.9188C46.3285 23.4969 46.139 22.9252 46.2009 22.3537C45.8074 22.9266 45.2851 23.3951 44.6699 23.7231ZM44.6699 23.7231C44.4478 23.7225 44.2218 23.7593 43.9998 23.8374C43.9996 23.8375 43.9993 23.8376 43.9991 23.8377M39.7521 18.5108L39.7522 18.5106C40.5113 16.932 42.4114 16.2664 43.9927 17.0218C44.7793 17.4018 45.3363 18.0649 45.6108 18.8335C45.8778 19.6013 45.8548 20.4717 45.4777 21.2607C45.1212 22.0017 44.5078 22.5635 43.7453 22.851H43.7427L43.6617 22.8796C42.8651 23.1617 42.0082 23.114 41.2398 22.7476C39.6594 21.9853 38.9939 20.0852 39.7521 18.5108ZM41.3552 24.0519C42.0219 24.2546 42.7242 24.2931 43.4089 24.1651C42.9604 24.5253 42.6877 25.0644 42.6598 25.6362C42.4162 25.6381 42.1734 25.6241 41.9332 25.5951C41.9691 25.0244 41.7601 24.459 41.3552 24.0519ZM48.3655 19.8404C48.3677 20.0848 48.3542 20.3277 48.3256 20.5678C47.7547 20.5321 47.1896 20.742 46.7817 21.147C46.9879 20.4665 47.0187 19.7628 46.8938 19.0927C47.254 19.5419 47.7932 19.8127 48.3655 19.8404ZM46.6497 15.7862C46.8212 15.9559 46.9829 16.1376 47.1337 16.3305C46.7039 16.7084 46.4529 17.257 46.4522 17.8329C46.1319 17.2324 45.6693 16.7026 45.0839 16.3005C45.655 16.3607 46.2261 16.1713 46.6497 15.7862ZM42.5686 14.1365C42.8134 14.1346 43.0562 14.1481 43.2955 14.1768C43.2591 14.747 43.4698 15.3111 43.8731 15.7188C43.1917 15.5126 42.4872 15.4825 41.8166 15.6084C42.2672 15.249 42.5411 14.7103 42.5686 14.1365ZM38.5168 15.8537C38.6864 15.6818 38.8682 15.5195 39.0613 15.3678C39.4393 15.7987 39.9886 16.0485 40.5629 16.0483C39.9613 16.3688 39.4308 16.8318 39.0283 17.4172C39.0885 16.8479 38.9003 16.2768 38.5168 15.8537ZM36.866 19.9323C36.8636 19.6877 36.8768 19.4448 36.905 19.2055C37.4743 19.2407 38.0388 19.0301 38.4469 18.626C38.2405 19.3069 38.2104 20.0108 38.3364 20.681C37.9763 20.2315 37.4375 19.9592 36.866 19.9323ZM38.5804 23.9836C38.4084 23.8147 38.2461 23.6334 38.0944 23.4405C38.5261 23.0613 38.7773 22.5114 38.7771 21.935C39.0986 22.5376 39.5633 23.0691 40.1509 23.4726C39.5781 23.4093 39.004 23.5984 38.5804 23.9836ZM44.0534 23.9931C44.0538 23.9929 44.0541 23.9928 44.0545 23.9927L44.0534 23.9931Z" fill="white" stroke="#0073E6"/>
</svg>
