<svg width="125" height="127" viewBox="0 0 125 127" fill="none" xmlns="http://www.w3.org/2000/svg">
<path d="M102.815 13.8216C100.402 12.0168 99.8691 8.65242 101.498 6.18266C100.012 5.32775 98.4695 4.53096 96.8904 3.85219C95.8672 6.63089 92.8701 8.17471 89.9899 7.30965C87.1152 6.4492 85.4708 3.48329 86.1481 0.600378C84.4642 0.298806 82.748 0.104213 81.0401 0C81.007 2.94563 78.7065 5.43381 75.7232 5.60626C72.7197 5.77042 70.18 3.55799 69.8312 0.600378C68.1418 0.901027 66.4615 1.30496 64.8024 1.77161C65.8072 4.58167 64.4932 7.70068 61.7308 8.8876C58.9665 10.0635 55.8296 8.8627 54.4981 6.2085C53.0156 7.07356 51.5691 8.00779 50.1768 9.03885C52.0513 11.3214 51.8893 14.6931 49.7048 16.7589C47.5175 18.8173 44.144 18.7648 41.9926 16.7248C40.8801 18.0675 39.8394 19.45 38.8943 20.8656C41.4534 22.3661 42.4435 25.5958 41.0918 28.2813C39.728 30.9567 36.5478 32.0736 33.8296 30.8913C33.2342 32.5246 32.7392 34.1809 32.3214 35.8511C35.2495 36.3795 37.2757 39.0789 36.9343 42.0651C36.5561 45.0458 33.9557 47.178 31 47.0009C31.0018 48.7384 31.0883 50.4556 31.2705 52.1765C34.1977 51.6767 37.0319 53.5091 37.7147 56.4326C38.4085 59.3644 36.6666 62.2824 33.8176 63.1346C34.4056 64.7393 35.0912 66.3236 35.8531 67.8739C38.4315 66.4066 41.7212 67.161 43.3665 69.6806C45.0081 72.2029 44.375 75.5211 42.0018 77.2872C42.5447 77.9392 43.1125 78.5894 43.7079 79.222C44.306 79.8593 44.9152 80.4726 45.5308 81.0638C47.4475 78.8052 50.7924 78.3847 53.196 80.1794C55.6097 81.9962 56.1415 85.3328 54.4916 87.8035C56.0026 88.6805 57.5384 89.4644 59.1101 90.1469C60.1315 87.359 63.1479 85.8114 66.0143 86.6848C68.8825 87.5591 70.5278 90.5084 69.8496 93.407C71.5557 93.7095 73.2672 93.8856 74.976 94C74.9944 91.0433 77.2968 88.5662 80.2837 88.4085C83.2771 88.2333 85.8297 90.4531 86.184 93.3959C87.868 93.0934 89.5491 92.6923 91.2046 92.2173C90.2052 89.4192 91.5202 86.3002 94.2753 85.1318C97.0441 83.9458 100.189 85.1484 101.513 87.7906C102.999 86.9329 104.446 86.0014 105.833 84.9602C103.96 82.6823 104.119 79.2968 106.302 77.2522C108.489 75.1983 111.862 75.2417 114.021 77.2725C115.138 75.937 116.168 74.5518 117.117 73.1381C114.567 71.6422 113.555 68.4199 114.914 65.7389C116.271 63.0322 119.46 61.9246 122.183 63.1096C122.787 61.4801 123.271 59.8163 123.658 58.1452C120.771 57.6251 118.715 54.9239 119.078 51.9312C119.434 48.9625 122.059 46.8082 125 46.988C125.007 45.2597 124.916 43.5517 124.741 41.8207C121.807 42.3242 118.973 40.4844 118.3 37.5646C117.6 34.6107 119.332 31.7084 122.187 30.8737C121.596 29.2571 120.915 27.669 120.148 26.1122C117.562 27.5943 114.28 26.85 112.639 24.324C110.991 21.8008 111.631 18.4835 114.009 16.7063C113.448 16.0515 112.891 15.4069 112.307 14.7789C111.706 14.1416 111.094 13.5218 110.479 12.9187C108.561 15.1883 105.207 15.6199 102.815 13.8216ZM51.8461 27.6763L54.9986 30.3416C50.7013 35.4388 48.9014 41.805 49.4269 47.9619L45.3154 48.316C44.6952 41.1004 46.8282 33.6432 51.8461 27.6763ZM79.3295 79.7625C72.1216 80.3813 64.691 78.2537 58.7263 73.2164L61.3802 70.0495C66.4762 74.3591 72.8182 76.1768 78.9706 75.6493L79.3295 79.7625ZM104.149 66.3283L101.003 63.6713C105.302 58.551 107.125 52.1977 106.582 46.0335L110.697 45.6766C111.305 52.8922 109.175 60.3521 104.149 66.3283ZM94.2237 31.7545C102.617 40.7279 102.165 54.8418 93.206 63.2683C84.2534 71.6763 70.1689 71.2143 61.7805 62.2363C53.3911 53.2795 53.8098 39.1776 62.7899 30.7529C71.7535 22.3329 85.8159 22.7636 94.2237 31.7545ZM97.2806 20.7789C97.2806 20.7789 97.2806 20.7789 97.2871 20.7835L94.624 23.9533C89.5317 19.6381 83.1878 17.8186 77.029 18.3608L76.683 14.2384C83.8881 13.6104 91.3205 15.7527 97.2806 20.7789Z" fill="#D9EAFB"/>
<path d="M77.916 110.007L76 111.923L82.447 118.365L76.004 124.811L77.92 126.726L86.28 118.365L77.916 110.007Z" fill="#0073E6"/>
<path d="M85.3051 110.005L83.3901 111.922L89.8351 118.364L83.3931 124.808L85.3091 126.725L93.6681 118.363L85.3051 110.005Z" fill="#0073E6"/>
<path d="M92.6942 110.004L90.7822 111.919L97.2262 118.361L90.7832 124.808L92.6982 126.724L101.057 118.361L92.6942 110.004Z" fill="#0073E6"/>
<path d="M100.086 110.002L98.1699 111.918L104.615 118.361L98.1739 124.805L100.09 126.721L108.445 118.36L100.086 110.002Z" fill="#0073E6"/>
<path d="M107.474 110L105.559 111.915L112.007 118.359L105.562 124.804L107.479 126.72L115.837 118.358L107.474 110Z" fill="#0073E6"/>
<path d="M76.915 77.045C77.547 74.469 80.069 72.875 82.642 73.356C82.83 71.837 82.924 70.31 82.94 68.799C80.333 68.937 78.033 67.033 77.738 64.403C77.445 61.759 79.28 59.416 81.864 58.965C81.508 57.494 81.077 56.038 80.565 54.602C78.164 55.622 75.361 54.605 74.181 52.235C73.021 49.861 73.917 47.034 76.2 45.728C75.365 44.461 74.462 43.252 73.499 42.066C71.591 43.836 68.6 43.853 66.692 42.025C64.769 40.198 64.66 37.216 66.355 35.211C65.136 34.328 63.879 33.482 62.548 32.7C61.36 35.021 58.578 36.06 56.146 34.993C53.729 33.931 52.6 31.173 53.501 28.723C52.031 28.278 50.546 27.923 49.076 27.618C48.755 30.232 46.478 32.161 43.838 31.988C41.194 31.813 39.198 29.604 39.201 27C37.672 27.094 36.17 27.246 34.684 27.492C35.256 30.052 33.78 32.622 31.232 33.368C28.702 34.107 26.068 32.738 25.177 30.271C23.785 30.869 22.414 31.539 21.106 32.276C22.514 34.477 22.017 37.411 19.879 38.985C17.748 40.547 14.789 40.145 13.116 38.123C12.018 39.162 10.964 40.272 9.966 41.43C12.059 42.998 12.604 45.935 11.126 48.147C9.65601 50.339 6.74399 50.959 4.48199 49.664C4.14899 50.319 3.82801 51.013 3.51801 51.723C3.21501 52.415 2.91599 53.12 2.65399 53.824C5.14399 54.6 6.65799 57.177 6.02899 59.746C5.40499 62.318 2.87499 63.908 0.291992 63.444C0.117992 64.964 0.016 66.48 0 67.976C2.615 67.857 4.912 69.762 5.203 72.389C5.495 75.023 3.669 77.379 1.095 77.818C1.447 79.296 1.87799 80.753 2.37299 82.183C4.79699 81.169 7.58798 82.174 8.75598 84.545C9.92898 86.919 9.028 89.755 6.759 91.06C7.583 92.315 8.48098 93.543 9.44998 94.727C11.378 92.952 14.346 92.935 16.257 94.768C18.17 96.604 18.297 99.571 16.592 101.56C17.803 102.466 19.077 103.299 20.398 104.079C21.588 101.771 24.384 100.738 26.798 101.797C29.228 102.868 30.346 105.623 29.448 108.056C30.919 108.504 32.388 108.873 33.872 109.153C34.198 106.557 36.458 104.636 39.107 104.806C41.752 104.972 43.76 107.183 43.749 109.789C45.27 109.7 46.782 109.536 48.276 109.291C47.687 106.744 49.17 104.159 51.697 103.419C54.247 102.67 56.887 104.053 57.763 106.517C59.167 105.917 60.529 105.248 61.858 104.507C60.433 102.316 60.93 99.375 63.066 97.806C65.202 96.246 68.163 96.637 69.827 98.653C70.926 97.629 71.98 96.533 72.975 95.364C70.883 93.789 70.352 90.845 71.822 88.65C73.289 86.447 76.198 85.815 78.461 87.12C78.8 86.455 79.134 85.766 79.435 85.072C79.746 84.364 80.029 83.652 80.286 82.966C77.797 82.177 76.291 79.611 76.915 77.045ZM68.53 62.525L51.481 64.407C50.81 62.722 49.728 61.212 48.277 60.041L55.178 44.327C62.201 48.314 66.903 55.039 68.53 62.525ZM36.946 66.409C38.044 63.903 40.966 62.777 43.456 63.872C45.958 64.969 47.096 67.878 45.992 70.385C44.898 72.886 41.983 74.013 39.483 72.917C36.99 71.819 35.846 68.909 36.946 66.409ZM49.916 42.014L43.015 57.731C41.183 57.46 39.335 57.681 37.643 58.329L27.482 44.494C34.102 40.63 42.232 39.547 49.916 42.014ZM16.111 57.26C17.73 53.572 20.06 50.424 22.857 47.887L33.008 61.72C32.455 62.428 31.966 63.198 31.588 64.057C31.214 64.909 30.973 65.796 30.832 66.673L13.775 68.557C13.757 64.782 14.499 60.94 16.111 57.26ZM14.411 74.259L31.466 72.386C32.135 74.065 33.215 75.572 34.661 76.743L27.759 92.453C20.742 88.469 16.036 81.749 14.411 74.259ZM33.019 94.769L39.921 79.058C41.76 79.327 43.614 79.11 45.292 78.461L55.457 92.29C48.838 96.158 40.704 97.242 33.019 94.769ZM66.822 79.534C65.206 83.218 62.878 86.363 60.077 88.901L49.929 75.065C50.485 74.365 50.972 73.59 51.343 72.734C51.725 71.877 51.963 71 52.11 70.115L69.161 68.23C69.184 72.008 68.442 75.852 66.822 79.534Z" fill="#0073E6"/>
</svg>
