<svg width="163" height="183" viewBox="0 0 163 183" fill="none" xmlns="http://www.w3.org/2000/svg">
<path d="M95.3817 40.6753L90.5472 43.7173L95.598 46.3829L100.65 49.051L100.433 43.3417L100.217 37.634L95.3817 40.6753Z" fill="#0073E6"/>
<path d="M101.422 50.2786L96.5874 53.3206L101.64 55.9874L106.692 58.6546L106.475 52.9453L106.258 47.2368L101.422 50.2786Z" fill="#0073E6"/>
<path d="M107.465 59.8824L102.63 62.9236L107.68 65.5919L112.732 68.2578L112.516 62.5502L112.3 56.8403L107.465 59.8824Z" fill="#0073E6"/>
<path d="M16.9991 52.7478L63.4794 52.4637L54.3878 81.2142L47.339 101.002L83.9367 91.5758L106.977 85.9488L103.228 91.2589L95.1018 104.637" stroke="#D9EAFB"/>
<path d="M13.4101 55.1048L19.5747 70.0806L34.9828 71.7591L44.2278 58.4618L38.0631 43.4867L22.655 41.8083" fill="#D9EAFB"/>
<path d="M79.0637 84.4778C81.106 81.9545 82.7463 79.162 83.9396 76.1791L84.3714 75.0961L83.2365 74.8411C79.9608 74.0988 77.757 70.9225 78.2143 67.6086C78.6869 64.2816 81.6766 61.8148 85.0208 61.9954L86.1864 62.0588L86.0642 60.8988C85.7219 57.6884 84.9045 54.5547 83.6255 51.5907L83.1639 50.5202L82.1806 51.1431C79.3451 52.9401 75.54 52.2484 73.5206 49.5645C71.4679 46.8483 71.8368 43.0857 74.373 40.8071L75.2406 40.0301L74.336 39.2959C71.7922 37.2359 68.9957 35.5969 66.0315 34.4237L64.9494 33.9972L64.6933 35.1304C63.9576 38.4091 60.7769 40.6097 57.4534 40.1408C54.1322 39.6905 51.676 36.7084 51.8535 33.346L51.9142 32.1857L50.7557 32.3045C47.5498 32.637 44.4194 33.4523 41.4546 34.7317L40.3907 35.1927L41.0087 36.1756C42.7995 39.0162 42.1055 42.8179 39.4206 44.8356C36.7527 46.8674 32.9063 46.4969 30.6542 43.9971L29.8796 43.1352L29.1481 44.0309C27.11 46.5232 25.4762 49.3223 24.2825 52.3479L23.8597 53.43L24.9943 53.6828C28.2612 54.413 30.4614 57.5892 30.001 60.9168C29.5425 64.2326 26.5517 66.6919 23.1969 66.519L22.0379 66.4622L22.1589 67.6146C22.4881 70.7966 23.3026 73.9239 24.5812 76.9118L25.037 77.9824L26.024 77.3654C28.9201 75.5445 32.6476 76.22 34.6905 78.9317L34.6915 78.9334C36.723 81.6121 36.3507 85.4631 33.8472 87.6999L32.9771 88.4785L33.8846 89.2155C36.4194 91.2706 39.2087 92.9094 42.1765 94.0957L43.2565 94.5246L43.514 93.3918C44.2725 90.061 47.3925 87.8973 50.7676 88.3562C54.0912 88.8215 56.5532 91.8072 56.3634 95.1501L56.2957 96.3124L57.4546 96.198C60.618 95.8805 63.7498 95.0714 66.7626 93.7854L67.8389 93.3273L67.2155 92.3396C65.3937 89.4534 66.0738 85.7255 68.7991 83.6705C71.468 81.6404 75.305 82.011 77.5455 84.5168L78.3247 85.3877L79.0637 84.4778ZM78.1222 82.3529C75.1453 79.8765 70.7525 79.6853 67.6004 82.0853C64.3832 84.5133 63.3758 88.7258 64.9769 92.3C62.7968 93.1404 60.5659 93.7198 58.3046 94.0311C58.1524 92.3668 57.5308 90.8145 56.5267 89.5463C55.2071 87.8777 53.2757 86.6978 51.0442 86.3857C47.0518 85.8412 43.354 88.1154 41.9542 91.7714C39.8606 90.8481 37.8729 89.6764 36.0162 88.2734C38.4868 85.2966 38.6807 80.895 36.2816 77.7293C36.2441 77.6773 36.2002 77.6281 36.162 77.573C33.7238 74.4898 29.5907 73.5506 26.0684 75.1214C25.2305 72.9527 24.6455 70.7241 24.33 68.4526C28.1823 68.0811 31.4321 65.0999 31.9747 61.189C32.3012 58.8244 31.601 56.5159 30.2032 54.7512C29.2786 53.5831 28.0417 52.668 26.6035 52.1147C27.5336 49.9849 28.6977 47.9925 30.0873 46.1597C33.0744 48.6297 37.4749 48.8183 40.6254 46.4193C43.7886 44.0406 44.8123 39.7564 43.2494 36.2149C45.4016 35.3732 47.6304 34.7905 49.9162 34.4731C50.0736 36.1401 50.7012 37.6981 51.7006 38.9644C53.0233 40.6323 54.9556 41.8081 57.183 42.1098C61.1047 42.6621 64.8641 40.3563 66.2625 36.7413C68.3535 37.6603 70.3404 38.829 72.2059 40.2348C69.6943 43.229 69.5048 47.5511 71.9304 50.7627C71.9753 50.8172 72.0128 50.8692 72.053 50.9219C74.4659 53.9667 78.6626 54.9226 82.1444 53.3831C82.9807 55.5399 83.5695 57.7708 83.8926 60.06C80.0476 60.4245 76.7989 63.4074 76.2447 67.3374C75.9185 69.6911 76.6223 71.9903 78.0184 73.7561C78.9443 74.9281 80.1819 75.8462 81.6192 76.4037C80.6898 78.5083 79.5199 80.4972 78.1222 82.3529Z" fill="#0073E6"/>
<path d="M117.341 153.242C119.858 152.406 122.55 153.693 123.512 156.127C124.898 155.478 126.241 154.745 127.528 153.954C126.024 151.82 126.412 148.86 128.481 147.21C130.563 145.555 133.524 145.861 135.281 147.808C136.337 146.724 137.34 145.584 138.283 144.386C136.142 142.897 135.511 139.982 136.889 137.722C138.281 135.476 141.151 134.73 143.472 135.968C144.1 134.586 144.643 133.178 145.135 131.732C142.621 131.059 141.014 128.536 141.546 125.947C142.069 123.347 144.536 121.668 147.135 122.035C147.234 120.533 147.281 119.019 147.235 117.476C144.637 117.706 142.277 115.903 141.886 113.277C141.498 110.665 143.232 108.241 145.786 107.7C145.38 106.219 144.89 104.773 144.366 103.366C141.982 104.485 139.137 103.585 137.878 101.258C136.619 98.926 137.427 96.0605 139.633 94.677C138.739 93.4326 137.811 92.242 136.812 91.1149C134.949 92.9618 131.988 93.0802 130 91.3202C128.028 89.5717 127.785 86.6132 129.399 84.5458C128.152 83.6856 126.855 82.8816 125.535 82.1666C124.421 84.5301 121.673 85.6711 119.202 84.6989C116.745 83.7263 115.511 81.0073 116.332 78.5147C114.868 78.1382 113.367 77.8368 111.856 77.6083C111.642 80.2148 109.446 82.2395 106.787 82.1656C104.149 82.0879 102.074 79.9527 101.966 77.3485C101.234 77.4152 100.476 77.5129 99.7099 77.6283C98.9628 77.7402 98.2068 77.8623 97.4714 78.0152C98.1398 80.5362 96.7641 83.1896 94.2544 84.0245C91.7449 84.8653 89.0522 83.5698 88.0701 81.1361C86.6907 81.7979 85.353 82.5185 84.0781 83.3012C85.5707 85.4517 85.1806 88.4102 83.1116 90.0549C81.0372 91.7041 78.0707 91.4123 76.329 89.4669C75.2651 90.5516 74.261 91.692 73.3139 92.8722C75.4626 94.3846 76.0974 97.2823 74.7119 99.5331C73.3265 101.79 70.446 102.537 68.1335 101.31C67.5097 102.676 66.9481 104.09 66.4615 105.54C68.9904 106.228 70.5846 108.731 70.05 111.325C69.514 113.921 67.0698 115.608 64.4784 115.224C64.356 116.731 64.3289 118.253 64.3718 119.786C66.9591 119.565 69.3218 121.382 69.7102 123.99C70.097 126.617 68.3598 129.03 65.8221 129.565C66.2258 131.048 66.6953 132.489 67.2482 133.894C69.6194 132.788 72.4486 133.679 73.7147 136.012C74.9821 138.339 74.1791 141.216 71.9671 142.594C72.852 143.834 73.7957 145.027 74.7983 146.161C76.641 144.307 79.6188 144.186 81.5903 145.932C83.5817 147.692 83.8161 150.663 82.1964 152.716C83.4517 153.585 84.743 154.382 86.0777 155.113C87.1741 152.74 89.9283 151.596 92.3935 152.569C94.8511 153.547 96.0962 156.262 95.2752 158.743C96.7271 159.129 98.216 159.438 99.7352 159.658C99.955 157.048 102.165 155.032 104.805 155.108C107.451 155.177 109.535 157.303 109.634 159.914C110.378 159.847 111.139 159.763 111.887 159.648C112.652 159.535 113.405 159.395 114.122 159.248C113.466 156.721 114.836 154.08 117.341 153.242ZM125.17 138.415L114.502 124.984C115.571 123.519 116.273 121.799 116.492 119.947L133.469 117.425C133.832 125.493 130.641 133.053 125.17 138.415ZM105.07 113.744C107.776 113.34 110.285 115.214 110.683 117.905C111.086 120.607 109.229 123.119 106.519 123.519C103.82 123.924 101.314 122.056 100.911 119.356C100.514 116.661 102.368 114.144 105.07 113.744ZM132.626 111.74L115.647 114.263C114.901 112.568 113.731 111.121 112.281 110.034L118.585 94.0677C125.38 97.6153 130.624 103.921 132.626 111.74ZM101.725 91.2364C105.709 90.644 109.615 90.9409 113.251 91.9583L106.944 107.915C106.05 107.824 105.138 107.819 104.209 107.957C103.289 108.094 102.41 108.362 101.592 108.709L90.9183 95.272C94.1045 93.2474 97.752 91.8305 101.725 91.2364ZM86.4297 98.8454L97.0934 112.287C96.0281 113.747 95.3271 115.463 95.1055 117.311L78.1321 119.83C77.7698 111.769 80.9539 104.208 86.4297 98.8454ZM78.9712 125.515L95.9454 122.996C96.6966 124.696 97.8671 126.15 99.3097 127.225L93.0131 143.191C86.2154 139.647 80.9682 133.338 78.9712 125.515ZM109.861 146.023C105.882 146.616 101.981 146.319 98.3413 145.299L104.653 129.343C105.541 129.441 106.457 129.441 107.379 129.299C108.308 129.166 109.177 128.901 110.004 128.554L120.676 141.986C117.49 144.016 113.841 145.434 109.861 146.023Z" fill="#0073E6"/>
</svg>
