<svg width="103" height="123" viewBox="0 0 103 123" fill="none" xmlns="http://www.w3.org/2000/svg">
<rect width="95" height="6" rx="3" fill="#D9EAFB"/>
<rect y="10" width="95" height="6" rx="3" fill="#D9EAFB"/>
<rect y="20" width="95" height="6" rx="3" fill="#D9EAFB"/>
<rect y="30" width="60" height="6" rx="3" fill="#D9EAFB"/>
<rect y="40" width="95" height="6" rx="3" fill="#D9EAFB"/>
<rect y="50" width="80" height="6" rx="3" fill="#D9EAFB"/>
<path d="M96.9731 89.628C97.6051 87.052 100.127 85.458 102.7 85.939C102.888 84.42 102.982 82.894 102.998 81.382C100.391 81.521 98.0911 79.616 97.7961 76.986C97.5031 74.342 99.3381 71.999 101.922 71.548C101.566 70.077 101.135 68.62 100.623 67.185C98.2221 68.205 95.4191 67.188 94.2391 64.818C93.0791 62.444 93.9751 59.617 96.2581 58.311C95.4231 57.044 94.5201 55.836 93.5571 54.649C91.6491 56.419 88.6581 56.436 86.7501 54.608C84.8271 52.781 84.7181 49.799 86.4131 47.794C85.1941 46.911 83.9371 46.065 82.6061 45.283C81.4181 47.604 78.6361 48.643 76.2041 47.576C73.7871 46.514 72.6581 43.756 73.5591 41.306C72.0881 40.861 70.6041 40.506 69.1341 40.201C68.8131 42.815 66.5361 44.744 63.8961 44.571C61.2521 44.396 59.2561 42.188 59.2591 39.583C57.7301 39.677 56.2271 39.829 54.7421 40.076C55.3141 42.636 53.8391 45.206 51.2901 45.952C48.7601 46.691 46.1261 45.322 45.2351 42.855C43.8431 43.453 42.4721 44.123 41.1641 44.86C42.5711 47.061 42.0741 49.995 39.9371 51.569C37.8061 53.131 34.8471 52.729 33.1741 50.707C32.0761 51.747 31.0221 52.856 30.0241 54.014C32.1171 55.582 32.6611 58.519 31.1841 60.731C29.7141 62.923 26.8021 63.543 24.5401 62.248C24.2071 62.903 23.8861 63.597 23.5761 64.307C23.2731 64.999 22.9741 65.704 22.7121 66.408C25.2021 67.184 26.7161 69.761 26.0871 72.33C25.4631 74.902 22.9331 76.492 20.3501 76.028C20.1761 77.549 20.0741 79.064 20.0581 80.56C22.6731 80.441 24.9701 82.346 25.2611 84.974C25.5531 87.608 23.7271 89.964 21.1531 90.403C21.5051 91.881 21.9361 93.338 22.4311 94.768C24.8551 93.754 27.6461 94.76 28.8141 97.13C29.9871 99.504 29.0861 102.34 26.8171 103.645C27.6411 104.9 28.5391 106.128 29.5081 107.312C31.4361 105.537 34.4041 105.52 36.3151 107.353C38.2271 109.189 38.3551 112.156 36.6491 114.145C37.8601 115.051 39.1341 115.884 40.4551 116.664C41.6451 114.356 44.4411 113.323 46.8551 114.381C49.2861 115.452 50.4031 118.207 49.5051 120.64C50.9761 121.088 52.4451 121.457 53.9291 121.737C54.2551 119.141 56.5151 117.22 59.1641 117.39C61.8081 117.556 63.8171 119.767 63.8051 122.373C65.3261 122.283 66.8381 122.12 68.3331 121.874C67.7441 119.327 69.2271 116.742 71.7541 116.002C74.3041 115.253 76.9441 116.636 77.8201 119.1C79.2241 118.5 80.5861 117.831 81.9151 117.09C80.4901 114.899 80.9871 111.958 83.1231 110.389C85.2591 108.829 88.2201 109.22 89.8841 111.236C90.9831 110.212 92.0371 109.116 93.0321 107.947C90.9401 106.372 90.4091 103.428 91.8791 101.233C93.3461 99.03 96.2551 98.398 98.5181 99.703C98.8571 99.038 99.1911 98.349 99.4921 97.655C99.8031 96.947 100.086 96.235 100.343 95.549C97.8551 94.76 96.3491 92.194 96.9731 89.628ZM88.5881 75.108L71.5391 76.99C70.8681 75.305 69.7861 73.795 68.3351 72.624L75.2361 56.91C82.2591 60.896 86.9621 67.622 88.5881 75.108ZM57.0041 78.991C58.1021 76.485 61.0241 75.359 63.5141 76.453C66.0161 77.551 67.1541 80.459 66.0501 82.966C64.9561 85.467 62.0411 86.594 59.5411 85.498C57.0481 84.401 55.9041 81.492 57.0041 78.991ZM69.9731 54.596L63.0721 70.313C61.2401 70.042 59.3921 70.263 57.7001 70.911L47.5391 57.076C54.1601 53.213 62.2911 52.129 69.9731 54.596ZM36.1691 69.842C37.7881 66.154 40.1181 63.006 42.9151 60.47L53.0661 74.303C52.5131 75.011 52.0241 75.781 51.6461 76.64C51.2721 77.492 51.0311 78.379 50.8901 79.256L33.8331 81.14C33.8151 77.364 34.5571 73.522 36.1691 69.842ZM34.4691 86.842L51.5241 84.969C52.1931 86.648 53.2731 88.155 54.7191 89.326L47.8171 105.036C40.8001 101.052 36.0941 94.331 34.4691 86.842ZM53.0781 107.352L59.9791 91.641C61.8181 91.911 63.6721 91.693 65.3501 91.044L75.5151 104.873C68.8961 108.74 60.7621 109.825 53.0781 107.352ZM86.8801 92.116C85.2641 95.8 82.9361 98.945 80.1351 101.483L69.9871 87.647C70.5431 86.947 71.0291 86.172 71.4011 85.316C71.7831 84.459 72.0211 83.582 72.1681 82.697L89.2191 80.812C89.2421 84.591 88.5001 88.434 86.8801 92.116Z" fill="#0073E6"/>
<path d="M22.96 32.888C21.269 35.634 22.131 39.243 24.883 40.94C26.216 41.758 27.785 42.009 29.302 41.643H29.309C30.826 41.284 32.116 40.351 32.935 39.02C33.777 37.642 33.984 36.049 33.639 34.593C33.287 33.138 32.39 31.812 31.017 30.964C28.262 29.278 24.652 30.137 22.96 32.888ZM28.924 40.049C26.666 40.584 24.394 39.193 23.855 36.933C23.313 34.67 24.714 32.404 26.972 31.863C29.232 31.324 31.5 32.718 32.042 34.978C32.58 37.237 31.188 39.511 28.924 40.049ZM35.207 34.226C34.914 33 35.618 31.773 36.792 31.39C36.326 30.488 35.739 29.674 35.05 28.974C34.311 29.969 32.93 30.256 31.856 29.599C30.785 28.94 30.415 27.573 30.973 26.475C30.034 26.172 29.044 26.013 28.032 26C28.216 27.226 27.437 28.401 26.214 28.692C24.996 28.988 23.771 28.288 23.388 27.11C22.484 27.579 21.673 28.169 20.971 28.859C21.962 29.595 22.247 30.978 21.595 32.044C20.933 33.117 19.565 33.487 18.464 32.933C18.167 33.869 18.007 34.865 18 35.875C19.218 35.688 20.397 36.463 20.689 37.691C20.979 38.912 20.279 40.134 19.104 40.522C19.573 41.425 20.161 42.236 20.855 42.935C21.584 41.943 22.97 41.655 24.04 42.317C25.111 42.971 25.481 44.336 24.924 45.439C25.864 45.739 26.856 45.904 27.865 45.911C27.682 44.692 28.459 43.508 29.683 43.218C30.905 42.925 32.129 43.629 32.517 44.802C33.422 44.341 34.227 43.748 34.928 43.048C33.936 42.32 33.648 40.939 34.308 39.865C34.968 38.794 36.332 38.427 37.434 38.98C37.734 38.041 37.895 37.051 37.903 36.04C36.677 36.22 35.5 35.448 35.207 34.226ZM33.174 39.17C32.316 40.561 30.968 41.545 29.368 41.923C27.776 42.303 26.126 42.037 24.732 41.18C21.852 39.401 20.95 35.62 22.719 32.739C24.492 29.86 28.278 28.955 31.163 30.728C34.044 32.499 34.947 36.286 33.174 39.17Z" fill="#0073E6"/>
</svg>
