<svg width="32" height="32" viewBox="0 0 32 32" fill="none" xmlns="http://www.w3.org/2000/svg">
<rect width="32" height="32" rx="8" fill="#0073E6"/>
<path d="M15.3385 11.2371C12.708 11.6014 10.8713 14.0328 11.2355 16.6612C11.6026 19.2971 14.0328 21.1305 16.6621 20.7622C19.2932 20.3974 21.1305 17.9705 20.7662 15.3357C20.4003 12.7079 17.9696 10.8711 15.3385 11.2371ZM18.2822 15.6832C18.4559 16.9432 17.5776 18.1048 16.3176 18.2786C15.0594 18.4552 13.8967 17.5767 13.7207 16.3167C13.547 15.059 14.4259 13.8945 15.6836 13.7207C16.9429 13.5459 18.105 14.426 18.2822 15.6832Z" fill="white"/>
<path d="M26.476 12.6843C26.2664 12.0247 26.0041 11.3918 25.6833 10.7959L26.4876 10.1676L24.223 7.25957L23.4164 7.88612C22.9098 7.42518 22.3626 7.01057 21.7836 6.65328L22.1675 5.70477L18.7518 4.31732L18.3691 5.26699C17.7073 5.11701 17.0298 5.03421 16.3355 5.01394L16.1948 4L12.5412 4.50726L12.6819 5.52005C12.023 5.72909 11.3901 5.99488 10.7977 6.31627L10.1684 5.51078L7.26049 7.77493L7.88815 8.58331C7.42783 9.08826 7.01382 9.63664 6.65425 10.2174L5.70407 9.83178L4.31846 13.2477L5.26517 13.6322C5.11867 14.2941 5.03413 14.9727 5.01503 15.6636L4 15.8031L4.50838 19.4588L5.52226 19.3192C5.73128 19.9788 5.99648 20.6105 6.3161 21.2023L5.51009 21.8335L7.77639 24.7416L8.58414 24.111C9.0902 24.5713 9.63275 24.9871 10.2147 25.3461L9.83078 26.2958L13.247 27.6844L13.6327 26.7359C14.2922 26.883 14.9708 26.964 15.6656 26.9884L15.8046 28L19.4571 27.4945L19.3158 26.4788C19.9776 26.2697 20.607 26.0057 21.2011 25.6849L21.8305 26.4915L24.7389 24.2251L24.1113 23.4167C24.5716 22.9117 24.9844 22.3651 25.3458 21.7826L26.2942 22.1694L27.6815 18.7517L26.7354 18.369C26.8808 17.7071 26.9607 17.0302 26.9827 16.3376L28 16.1951L27.4922 12.543L26.476 12.6843ZM22.7442 21.101C21.3835 22.9019 19.3974 24.0699 17.1607 24.3785C14.9239 24.6877 12.6987 24.1069 10.8968 22.7421C7.17769 19.9295 6.43943 14.612 9.24944 10.8949C12.0618 7.17792 17.3795 6.43729 21.1027 9.25097C24.8223 12.0623 25.5606 17.3822 22.7442 21.101ZM9.56269 11.1329C6.87833 14.6809 7.58359 19.7471 11.1342 22.4363C12.851 23.7352 14.976 24.2888 17.1091 23.994C17.1091 23.994 17.1103 23.994 17.112 23.994C19.2457 23.6941 21.1357 22.5875 22.4338 20.8665C23.7749 19.0922 24.2711 16.9323 23.9879 14.8847C23.7031 12.8395 22.64 10.9025 20.8687 9.56019C17.3187 6.87622 12.2459 7.58384 9.56269 11.1329ZM22.7703 15.0567C23.2867 18.7998 20.6771 22.2487 16.9377 22.7658C13.203 23.2893 9.74972 20.6847 9.22744 16.9416C8.71095 13.2043 11.3206 9.75071 15.0571 9.2336C18.7958 8.7136 22.2491 11.3235 22.7703 15.0567Z" fill="white"/>
</svg>
