<svg width="32" height="32" viewBox="0 0 32 32" fill="none" xmlns="http://www.w3.org/2000/svg">
<rect width="32" height="32" rx="8" fill="#0073E6"/>
<path d="M9.98101 12.3026C7.94192 15.6125 8.98136 19.9627 12.2999 22.0082C13.9072 22.9941 15.7992 23.2967 17.6285 22.8555H17.6369C19.4662 22.4228 21.0218 21.2982 22.0093 19.6938C23.0247 18.0329 23.2743 16.1127 22.8583 14.3577C22.4338 12.6039 21.3522 11.0056 19.6965 9.98343C16.3744 7.95119 12.0213 8.98661 9.98101 12.3026ZM17.1727 20.9342C14.4499 21.579 11.7102 19.9024 11.0602 17.1782C10.4067 14.4505 12.0961 11.7191 14.8189 11.067C17.5441 10.4173 20.279 12.0977 20.9325 14.8218C21.5813 17.5447 19.9027 20.2857 17.1727 20.9342ZM24.749 13.9153C24.3957 12.4375 25.2446 10.9586 26.6603 10.4969C26.0984 9.40967 25.3905 8.42852 24.5597 7.58477C23.6686 8.78411 22.0033 9.13005 20.7082 8.33812C19.4168 7.54379 18.9706 5.89605 19.6435 4.57256C18.5112 4.20733 17.3174 4.01567 16.0971 4C16.3189 5.47778 15.3796 6.89408 13.9048 7.24484C12.4361 7.60163 10.959 6.75787 10.4971 5.33795C9.40702 5.90327 8.42908 6.61443 7.58258 7.44613C8.77757 8.33328 9.12124 10.0003 8.33502 11.2852C7.53675 12.5786 5.88715 13.0246 4.55951 12.3568C4.20138 13.485 4.00844 14.6856 4 15.903C5.46872 15.6776 6.89042 16.6117 7.24253 18.0919C7.59222 19.5637 6.74813 21.0366 5.33126 21.5043C5.8968 22.5927 6.60584 23.5703 7.4427 24.4129C8.32176 23.2171 9.99307 22.87 11.2833 23.6679C12.5748 24.4562 13.021 26.1016 12.3493 27.4311C13.4828 27.7927 14.679 27.9916 15.8957 28C15.675 26.5307 16.612 25.1035 18.0879 24.754C19.5615 24.4008 21.0374 25.2494 21.5053 26.6633C22.5966 26.1076 23.5673 25.3928 24.4126 24.549C23.2164 23.6715 22.8691 22.0069 23.665 20.7124C24.4608 19.4214 26.1056 18.9791 27.4345 19.6456C27.7962 18.5138 27.9904 17.3205 28 16.1018C26.5216 16.3188 25.1023 15.3883 24.749 13.9153ZM22.2975 19.8746C21.2629 21.5513 19.6374 22.7374 17.7081 23.193C15.7884 23.651 13.7987 23.3304 12.1178 22.2974C8.64493 20.1531 7.55725 15.5956 9.6904 12.1229C11.8284 8.6527 16.3937 7.56187 19.8726 9.69898C23.3466 11.8337 24.4355 16.3984 22.2975 19.8746Z" fill="white"/>
</svg>
