<?xml version="1.0" encoding="UTF-8"?>
<!-- Generated by Pixelmator Pro 3.6.5 -->
<svg width="50" height="50" viewBox="0 0 50 50" xmlns="http://www.w3.org/2000/svg">
    <path id="path1" fill="#000000" fill-opacity="0.954851" fill-rule="evenodd" stroke="none" d="M 35.751598 33.781097 C 34.488686 33.775242 33.948353 33.736046 33.713089 33.633217 C 33.537029 33.556267 33.35051 33.395058 33.298599 33.274975 C 33.246693 33.154892 33.112991 32.441406 33.001484 31.689453 C 32.88998 30.9375 32.739792 30.230835 32.667732 30.119089 C 32.595673 30.007339 32.326561 29.835651 32.06971 29.737558 C 31.651327 29.577776 31.576595 29.574194 31.351906 29.703148 C 31.213966 29.782314 30.767727 30.093632 30.360266 30.394966 C 29.952803 30.696299 29.452827 31.055899 29.249208 31.194077 C 29.045591 31.332258 28.763748 31.445313 28.622887 31.445313 C 28.42259 31.445313 28.037157 31.115482 26.854288 29.93186 C 25.916592 28.993565 25.330677 28.332006 25.312536 28.191059 C 25.295317 28.057241 25.416422 27.765882 25.606915 27.482834 C 25.784916 27.218349 26.209663 26.635317 26.5508 26.187204 C 27.094036 25.473618 27.164549 25.332418 27.118713 25.04998 C 27.089933 24.872616 26.994839 24.589153 26.9074 24.420065 C 26.81996 24.250973 26.651653 24.073658 26.53339 24.02603 C 26.415121 23.978403 25.681152 23.846027 24.902344 23.731861 C 23.753859 23.563503 23.454041 23.486366 23.31543 23.323589 C 23.163986 23.145741 23.144531 22.879541 23.144531 20.985275 C 23.144531 19.041466 23.160788 18.8314 23.323839 18.668348 C 23.450428 18.541759 23.830858 18.440258 24.617785 18.323114 C 25.230833 18.231857 25.958664 18.1126 26.235182 18.058109 C 26.71772 17.963013 26.74655 17.939018 26.951908 17.461655 C 27.069586 17.188099 27.148039 16.871685 27.126244 16.758507 C 27.10445 16.645329 26.695963 16.025391 26.218498 15.380859 C 25.741035 14.736328 25.332111 14.08564 25.309776 13.934887 C 25.273758 13.691734 25.444147 13.484295 26.819157 12.097282 C 28.226692 10.677467 28.396488 10.53685 28.666714 10.56723 C 28.853556 10.588238 29.42728 10.939671 30.208551 11.511681 C 31.324566 12.328773 31.485144 12.416561 31.766447 12.3634 C 31.938944 12.330795 32.220669 12.218361 32.392494 12.113544 C 32.608952 11.98151 32.733299 11.809109 32.797314 11.552303 C 32.848133 11.348438 32.962494 10.67627 33.051456 10.058594 C 33.140411 9.440918 33.236015 8.858162 33.263908 8.763584 C 33.291798 8.669006 33.495541 8.504211 33.716667 8.397373 C 34.07003 8.226646 34.321629 8.203125 35.794353 8.203125 C 37.098362 8.203125 37.536018 8.236061 37.767689 8.351635 C 37.931423 8.433315 38.115959 8.561085 38.177769 8.635563 C 38.239582 8.710041 38.375011 9.33535 38.478725 10.025139 C 38.582439 10.714924 38.692314 11.422253 38.722893 11.596981 C 38.766087 11.843758 38.865009 11.958801 39.166111 12.112411 C 39.379299 12.221176 39.676609 12.334736 39.826805 12.364777 C 40.056015 12.410618 40.26363 12.297192 41.119278 11.658676 C 41.679943 11.240284 42.29435 10.811916 42.484623 10.706745 C 42.705555 10.584637 42.917309 10.537678 43.07056 10.576805 C 43.202557 10.610504 43.945381 11.274929 44.721287 12.053307 C 45.912926 13.248722 46.138256 13.521847 46.172108 13.811832 C 46.207481 14.114826 46.122101 14.277542 45.444958 15.197571 C 45.022987 15.770905 44.594921 16.376377 44.493706 16.543053 C 44.311619 16.842907 44.312019 16.851555 44.531822 17.362499 C 44.653999 17.646511 44.824707 17.9165 44.911163 17.962475 C 44.99762 18.008446 45.727539 18.143663 46.533203 18.262953 C 47.442417 18.397575 48.06287 18.536823 48.168945 18.630058 C 48.322304 18.764853 48.339844 19.008503 48.339844 21.004253 C 48.339844 22.837687 48.314461 23.25362 48.195293 23.372787 C 48.115791 23.452288 47.885078 23.543337 47.682602 23.575119 C 47.480118 23.606895 46.896973 23.697208 46.386719 23.77581 C 45.876465 23.85441 45.312508 23.94496 45.133476 23.97703 C 44.853214 24.027231 44.773571 24.11047 44.560524 24.575821 C 44.352734 25.02969 44.331066 25.155779 44.42532 25.362635 C 44.487049 25.498119 44.727779 25.85647 44.960266 26.158976 C 45.19276 26.461481 45.566921 26.971874 45.791737 27.293182 C 46.105007 27.740913 46.193729 27.95192 46.171535 28.196463 C 46.147495 28.461344 45.893757 28.765333 44.677734 29.986111 C 43.280895 31.388411 43.19672 31.45524 42.864536 31.425705 C 42.605843 31.4027 42.232449 31.18132 41.413723 30.565529 C 40.807369 30.109468 40.21257 29.697172 40.091949 29.649315 C 39.92907 29.58469 39.732254 29.62657 39.327034 29.812086 C 38.855724 30.027859 38.773659 30.106195 38.724361 30.387381 C 38.692974 30.566412 38.582439 31.277264 38.478725 31.967051 C 38.375011 32.656837 38.239582 33.282146 38.177769 33.356628 C 38.115959 33.431107 37.931423 33.558868 37.767689 33.640549 C 37.533039 33.75761 37.106068 33.787376 35.751598 33.781097 Z M 35.804611 32.513344 C 36.70396 32.518456 36.927742 32.489922 37.096279 32.348633 C 37.261467 32.210152 37.337379 31.927675 37.496479 30.859375 C 37.604469 30.134277 37.732651 29.450336 37.78133 29.339506 C 37.838642 29.209013 38.191856 29.003815 38.78355 28.757259 C 39.286095 28.547855 39.829102 28.360445 39.990234 28.340794 C 40.189571 28.316484 40.404968 28.387796 40.664204 28.563925 C 40.873753 28.706295 41.379128 29.0702 41.787251 29.372601 C 42.195377 29.675001 42.63916 29.938026 42.773438 29.957108 C 42.971588 29.985258 43.180038 29.827894 43.879963 29.121778 C 44.565681 28.429991 44.735725 28.202707 44.710041 28.012285 C 44.692272 27.880573 44.328342 27.294514 43.901302 26.709932 C 43.47427 26.125351 43.108131 25.532972 43.087666 25.393538 C 43.065853 25.244938 43.221836 24.725092 43.464565 24.137411 C 43.692326 23.585976 43.954922 23.093998 44.048103 23.044127 C 44.141285 22.994255 44.826447 22.86162 45.570679 22.749382 C 46.652466 22.586239 46.958099 22.505306 47.094727 22.345823 C 47.236717 22.180075 47.265625 21.949942 47.265625 20.985275 C 47.265625 20.002476 47.238953 19.797546 47.091885 19.650476 C 46.968098 19.52669 46.512478 19.414043 45.507305 19.258701 C 44.73135 19.138786 44.04261 18.986258 43.97678 18.919748 C 43.91095 18.853241 43.675468 18.361673 43.453495 17.82737 C 43.219589 17.264355 43.065418 16.750229 43.086796 16.604546 C 43.107094 16.466297 43.493755 15.851921 43.946053 15.239269 C 44.398354 14.626617 44.768417 14.044636 44.768417 13.945984 C 44.768417 13.847332 44.375393 13.371761 43.895035 12.889164 C 43.40015 12.391983 42.940353 12.011719 42.834061 12.011719 C 42.730888 12.011719 42.15868 12.372643 41.562496 12.813778 C 40.774059 13.397156 40.38155 13.625996 40.122883 13.653107 C 39.896912 13.676785 39.594269 13.612167 39.292805 13.47588 C 39.031857 13.357906 38.629414 13.195065 38.398476 13.114006 C 38.167538 13.032944 37.917023 12.87262 37.841778 12.757725 C 37.766529 12.64283 37.612854 11.933594 37.500278 11.181641 C 37.331154 10.051991 37.258945 9.783451 37.084698 9.636017 C 36.900192 9.479904 36.722622 9.461582 35.665157 9.489532 C 34.689003 9.515339 34.434288 9.551918 34.341019 9.679699 C 34.2775 9.766716 34.146988 10.403927 34.050987 11.095715 C 33.954983 11.787502 33.831501 12.469475 33.776577 12.611206 C 33.698116 12.813663 33.484661 12.949127 32.780735 13.243202 C 32.287952 13.449066 31.730955 13.633045 31.542969 13.652046 C 31.28981 13.677628 31.097031 13.615032 30.799585 13.410675 C 30.578712 13.258926 30.075117 12.893066 29.680487 12.597656 C 29.28586 12.302246 28.862637 12.060547 28.740002 12.060547 C 28.589878 12.060547 28.237593 12.339973 27.661831 12.915737 C 27.090305 13.487263 26.807186 13.843578 26.808289 13.989956 C 26.809195 14.11042 27.124161 14.626465 27.508211 15.136719 C 27.892265 15.646973 28.284954 16.202259 28.380859 16.370689 C 28.554613 16.675842 28.553862 16.680344 28.169218 17.637093 C 27.956909 18.16518 27.695169 18.70034 27.587574 18.826336 C 27.419271 19.023428 27.190554 19.086182 25.949966 19.275671 C 25.156876 19.396812 24.453892 19.549904 24.387781 19.615877 C 24.311743 19.691759 24.255365 20.131397 24.234339 20.812431 C 24.216057 21.404558 24.228254 21.997229 24.261446 22.129477 C 24.294638 22.261721 24.41946 22.412935 24.538826 22.465504 C 24.658194 22.518072 25.349123 22.650373 26.074219 22.759502 C 26.989704 22.897291 27.44146 23.008818 27.552546 23.124468 C 27.640524 23.216068 27.898392 23.730469 28.125584 24.267578 C 28.458351 25.054283 28.520861 25.291605 28.447109 25.488281 C 28.396755 25.622559 27.996067 26.221737 27.556684 26.819792 C 27.117306 27.417845 26.757813 27.990051 26.757813 28.091358 C 26.757813 28.193382 27.14926 28.665192 27.635262 29.148939 C 28.117857 29.629299 28.594791 30.022322 28.695118 30.022322 C 28.795444 30.022322 29.374107 29.651733 29.981041 29.198793 C 30.706102 28.657692 31.192898 28.362614 31.40048 28.338381 C 31.588257 28.31646 31.909004 28.388567 32.191212 28.51615 C 32.452354 28.634207 32.848339 28.794867 33.071182 28.873169 C 33.294025 28.951471 33.549641 29.096523 33.639217 29.195503 C 33.744579 29.311932 33.869934 29.818422 33.99427 30.630116 C 34.099976 31.320173 34.208221 31.985544 34.234825 32.108719 C 34.261425 32.231895 34.380749 32.371933 34.499992 32.419914 C 34.619236 32.467896 35.20631 32.509937 35.804611 32.513344 Z M 35.9375 26.231468 C 35.333694 26.253555 34.80975 26.214872 34.436924 26.120678 C 34.121861 26.041075 33.600449 25.835436 33.278233 25.663698 C 32.95602 25.491959 32.481609 25.161936 32.223988 24.930309 C 31.966368 24.69869 31.591532 24.262016 31.391018 23.959934 C 31.190506 23.65785 30.923866 23.12009 30.798489 22.764915 C 30.610292 22.231796 30.570524 21.923225 30.570524 20.996094 C 30.570524 20.073092 30.610552 19.759977 30.795235 19.238281 C 30.918821 18.889158 31.14467 18.405762 31.297117 18.164063 C 31.449568 17.922363 31.82835 17.479221 32.138859 17.179306 C 32.449368 16.879387 32.990097 16.492867 33.340488 16.32037 C 33.690876 16.147877 34.231575 15.953808 34.542042 15.889114 C 34.852512 15.824421 35.469612 15.777069 35.91338 15.78389 C 36.455845 15.792233 36.946468 15.869041 37.41066 16.018303 C 37.790398 16.1404 38.350368 16.401756 38.655037 16.599091 C 38.959705 16.796421 39.428711 17.198994 39.697266 17.493698 C 39.96582 17.788403 40.306049 18.276047 40.453331 18.577354 C 40.600616 18.878662 40.78738 19.379591 40.86837 19.690531 C 40.949364 20.001471 41.014938 20.587223 41.014099 20.992195 C 41.01326 21.397173 40.953667 21.978817 40.881668 22.28474 C 40.809666 22.590664 40.630318 23.087141 40.483112 23.388021 C 40.335907 23.6889 39.96703 24.203909 39.663395 24.532478 C 39.35976 24.86105 38.88662 25.273951 38.611969 25.450035 C 38.337322 25.62612 37.831951 25.866341 37.488922 25.983858 C 37.069901 26.127411 36.560791 26.208666 35.9375 26.231468 Z M 35.9375 25.14061 C 36.179199 25.11433 36.530762 25.056652 36.71875 25.012436 C 36.906738 24.968222 37.324219 24.797205 37.646484 24.632397 C 37.96875 24.467594 38.43681 24.120331 38.686615 23.86071 C 38.936424 23.601091 39.272968 23.123247 39.434502 22.798836 C 39.596031 22.474426 39.781883 21.936094 39.847504 21.602547 C 39.941414 21.125233 39.94146 20.866119 39.847733 20.385742 C 39.78223 20.050049 39.574272 19.480574 39.385593 19.120239 C 39.19619 18.758524 38.827148 18.263615 38.561638 18.015259 C 38.297134 17.767849 37.785267 17.425571 37.424152 17.254639 C 36.822681 16.969933 36.685616 16.943829 35.791016 16.943604 C 34.867046 16.943371 34.773922 16.962711 34.06189 17.302727 C 33.6152 17.516033 33.126198 17.845226 32.858761 18.112665 C 32.595139 18.376282 32.265491 18.863716 32.06427 19.287426 C 31.792826 19.859016 31.709667 20.171934 31.66964 20.772409 C 31.628435 21.390539 31.65901 21.652233 31.832685 22.167969 C 31.950253 22.517092 32.180153 23.012579 32.343571 23.269051 C 32.506989 23.525524 32.82217 23.891979 33.04398 24.083393 C 33.265789 24.274805 33.657001 24.538618 33.913345 24.669647 C 34.169689 24.800673 34.631115 24.970993 34.938736 25.048134 C 35.246357 25.125275 35.695801 25.166889 35.9375 25.14061 Z"/>
    <path id="path2" fill="#000000" fill-opacity="0.954851" fill-rule="evenodd" stroke="none" d="M 10.848365 39.746094 C 9.476292 39.746094 9.081896 39.717113 8.992793 39.609753 C 8.930558 39.534763 8.795981 38.975803 8.693733 38.367615 C 8.561722 37.58239 8.458249 37.225567 8.336811 37.136768 C 8.242752 37.067993 8.047193 37.011719 7.902234 37.011719 C 7.740899 37.011719 7.397776 37.190468 7.017579 37.472572 C 6.675977 37.726044 6.232197 38.016029 6.031401 38.116985 C 5.675884 38.295734 5.658514 38.295815 5.368566 38.119999 C 5.204803 38.020699 4.69486 37.565918 4.23536 37.109375 C 3.77586 36.652832 3.331611 36.140034 3.248139 35.969826 C 3.107074 35.682178 3.109926 35.637383 3.288593 35.334564 C 3.394315 35.15538 3.686401 34.729504 3.937673 34.388176 C 4.215562 34.010689 4.394531 33.66433 4.394531 33.504013 C 4.394531 33.359055 4.338259 33.163498 4.269482 33.069439 C 4.180683 32.947998 3.823861 32.844528 3.038636 32.712517 C 2.430448 32.610268 1.871486 32.475693 1.796498 32.41346 C 1.689424 32.324593 1.660156 31.937508 1.660156 30.610252 C 1.660156 29.248249 1.688214 28.892143 1.804705 28.775652 C 1.884207 28.69615 2.136893 28.601944 2.366229 28.566309 C 2.595565 28.530672 3.063324 28.45528 3.405694 28.398775 C 3.771018 28.33848 4.103857 28.220362 4.211358 28.112862 C 4.312103 28.012115 4.394531 27.812771 4.394531 27.669874 C 4.394531 27.506256 4.171564 27.103174 3.792318 26.58119 C 3.381303 26.015482 3.190104 25.661814 3.190104 25.467253 C 3.190104 25.234226 3.393347 24.978363 4.30342 24.065702 C 5.21646 23.150063 5.468153 22.949219 5.702557 22.949219 C 5.898585 22.949219 6.251897 23.140965 6.827197 23.55957 C 7.43455 24.001499 7.745027 24.166805 7.952347 24.158625 C 8.111264 24.152353 8.309986 24.059265 8.398923 23.949432 C 8.488635 23.838646 8.614818 23.37079 8.685602 22.886511 C 8.755141 22.410748 8.870543 21.878662 8.942051 21.704102 C 9.072065 21.386719 9.072065 21.386719 10.831425 21.386719 C 12.461928 21.386719 12.59808 21.400351 12.690401 21.572855 C 12.745192 21.675228 12.856981 22.21356 12.938825 22.769144 C 13.067073 23.639744 13.123354 23.810822 13.346209 24.007488 C 13.497797 24.141258 13.689378 24.219421 13.80923 24.196386 C 13.921672 24.17478 14.38511 23.881557 14.839092 23.544783 C 15.539111 23.02549 15.714166 22.938261 15.991349 22.970619 C 16.253838 23.001266 16.522881 23.21347 17.35783 24.048418 C 18.192781 24.883371 18.404985 25.152412 18.435631 25.4149 C 18.467989 25.692085 18.38076 25.867138 17.861467 26.567158 C 17.524693 27.021139 17.23147 27.484577 17.209862 27.597021 C 17.186794 27.717062 17.264778 27.907595 17.398764 28.058552 C 17.594057 28.27858 17.774771 28.338436 18.652344 28.473764 C 19.240767 28.564505 19.750563 28.6968 19.848633 28.784204 C 19.998547 28.91782 20.019531 29.137653 20.019531 30.574566 C 20.019531 31.932825 19.993343 32.2388 19.866219 32.365925 C 19.781897 32.450249 19.617102 32.540245 19.500008 32.565926 C 19.382914 32.591606 18.913574 32.666775 18.457031 32.732967 C 17.818098 32.825607 17.573992 32.906181 17.396957 33.082882 C 17.246788 33.232765 17.181808 33.390118 17.20974 33.536232 C 17.233269 33.659313 17.523535 34.133034 17.854776 34.588943 C 18.266685 35.155884 18.457031 35.508209 18.457031 35.703693 C 18.457031 35.938099 18.256186 36.189789 17.340548 37.102829 C 16.427887 38.012901 16.172024 38.216148 15.938997 38.216148 C 15.744436 38.216148 15.390769 38.024948 14.82506 37.61393 C 14.228045 37.180172 13.910484 37.011719 13.689799 37.011719 C 13.479269 37.011719 13.338089 37.080887 13.238554 37.232796 C 13.158883 37.354385 13.023674 37.88903 12.938091 38.420887 C 12.852505 38.952747 12.73935 39.468498 12.686634 39.566998 C 12.599176 39.730415 12.438245 39.746094 10.848365 39.746094 Z M 10.842529 38.660545 C 11.179938 38.667625 11.460453 38.617149 11.59071 38.525917 C 11.758128 38.408649 11.823065 38.204567 11.921012 37.487831 C 12.010066 36.836163 12.097944 36.536438 12.247049 36.37582 C 12.359317 36.254883 12.756777 36.037464 13.130294 35.892662 C 13.503811 35.74786 13.906789 35.648003 14.025802 35.670753 C 14.144814 35.693504 14.560411 35.948029 14.949353 36.236359 C 15.338293 36.524693 15.737232 36.760605 15.835886 36.760605 C 15.934537 36.760605 16.235062 36.544098 16.503719 36.27948 C 16.772377 36.014862 16.992188 35.714191 16.992188 35.61132 C 16.992188 35.508446 16.762764 35.114807 16.482359 34.736561 C 16.189692 34.341774 15.957233 33.917805 15.936618 33.741207 C 15.915034 33.556343 16.005457 33.182991 16.1632 32.805656 C 16.307575 32.460297 16.491037 32.10416 16.570898 32.014236 C 16.657642 31.916559 16.997728 31.807356 17.415665 31.742977 C 17.800428 31.683708 18.274969 31.592241 18.4702 31.539715 C 18.710314 31.475111 18.844172 31.373295 18.883905 31.225035 C 18.916212 31.104488 18.943245 30.775146 18.943979 30.493164 C 18.944935 30.125811 18.894804 29.92996 18.767143 29.802299 C 18.657604 29.69276 18.309645 29.579401 17.863823 29.508013 C 17.464989 29.444149 17.014046 29.366196 16.861725 29.334784 C 16.63378 29.287777 16.532663 29.162731 16.290247 28.628094 C 16.128256 28.270826 15.974329 27.824707 15.94819 27.636719 C 15.911847 27.375366 15.962619 27.202986 16.163916 26.904297 C 16.308704 26.689453 16.539709 26.3641 16.677259 26.181292 C 16.814808 25.998482 16.947746 25.742216 16.972675 25.611811 C 17.007877 25.427662 16.911524 25.266048 16.541225 24.888149 C 16.170181 24.509487 16.009197 24.409416 15.815288 24.436893 C 15.678247 24.45631 15.414577 24.586248 15.22935 24.725639 C 15.044126 24.865032 14.716797 25.097546 14.501953 25.242334 C 14.203264 25.443632 14.030884 25.494402 13.769531 25.458059 C 13.581543 25.431921 13.135425 25.277994 12.778157 25.116003 C 12.243518 24.873587 12.118474 24.77247 12.071466 24.544525 C 12.040054 24.392206 11.962101 23.941261 11.898236 23.542427 C 11.826849 23.096603 11.71349 22.748646 11.603951 22.639107 C 11.47629 22.511446 11.280439 22.461315 10.913086 22.462273 C 10.631104 22.463005 10.301762 22.490036 10.181214 22.522345 C 10.033192 22.562016 9.93079 22.696321 9.865783 22.936052 C 9.812842 23.131281 9.726352 23.595766 9.673581 23.968235 C 9.614043 24.388472 9.511395 24.709595 9.403075 24.814474 C 9.307068 24.907434 8.945951 25.100956 8.600595 25.24452 C 8.229117 25.398945 7.850231 25.490664 7.672861 25.469105 C 7.507964 25.449062 7.059291 25.203476 6.675811 24.923361 C 6.292332 24.643248 5.895172 24.414063 5.793234 24.414063 C 5.691296 24.414063 5.391387 24.633873 5.12677 24.902529 C 4.862153 25.171188 4.645647 25.471712 4.645647 25.570364 C 4.645647 25.669018 4.881557 26.067957 5.16989 26.456898 C 5.458224 26.845839 5.712748 27.261436 5.735498 27.380449 C 5.758249 27.499462 5.65839 27.902439 5.513588 28.275957 C 5.368787 28.649473 5.151366 29.046934 5.03043 29.159201 C 4.869812 29.308306 4.570088 29.396183 3.91842 29.485237 C 3.201683 29.583185 2.9976 29.648123 2.880335 29.81554 C 2.797205 29.934225 2.734949 30.235268 2.735708 30.514893 C 2.736442 30.784924 2.763475 31.104488 2.795782 31.225035 C 2.835517 31.373295 2.969374 31.475111 3.209488 31.539715 C 3.404719 31.592241 3.884843 31.68465 4.27643 31.74507 C 4.824378 31.829615 5.019575 31.903357 5.123699 32.065155 C 5.19811 32.180786 5.380861 32.574348 5.529812 32.939743 C 5.757249 33.497673 5.783659 33.649067 5.694674 33.884815 C 5.636397 34.039207 5.381032 34.435432 5.127197 34.765308 C 4.873362 35.095184 4.643922 35.44828 4.617332 35.549965 C 4.583942 35.677643 4.72138 35.894596 5.061565 36.251209 C 5.378926 36.583897 5.634524 36.767578 5.780107 36.767578 C 5.904385 36.767578 6.283864 36.553818 6.623393 36.292557 C 6.962924 36.031296 7.367043 35.769852 7.521436 35.711578 C 7.757183 35.622589 7.908578 35.649002 8.466506 35.876438 C 8.831901 36.025391 9.225465 36.208138 9.341093 36.282551 C 9.502892 36.386673 9.576635 36.581871 9.66118 37.129822 C 9.7216 37.521408 9.81461 38.003532 9.867868 38.20121 C 9.922215 38.402916 10.038865 38.580059 10.133719 38.604919 C 10.226677 38.629284 10.545642 38.654316 10.842529 38.660545 Z M 10.986328 34.441639 C 10.35055 34.460213 9.866161 34.423447 9.598247 34.336273 C 9.37191 34.262627 8.995848 34.090508 8.76255 33.953789 C 8.529254 33.81707 8.150198 33.501057 7.920204 33.251541 C 7.690209 33.002029 7.38512 32.548485 7.242228 32.243668 C 7.008114 31.744259 6.982422 31.578396 6.982422 30.566406 C 6.982422 29.537603 7.005065 29.39727 7.252247 28.894142 C 7.400651 28.592072 7.700152 28.142614 7.917806 27.895346 C 8.179022 27.598589 8.567028 27.320545 9.059275 27.077377 C 9.779558 26.721556 9.840239 26.708984 10.837291 26.708984 C 11.803519 26.708984 11.91061 26.729191 12.510904 27.024769 C 12.912351 27.222435 13.342717 27.541956 13.661482 27.879004 C 13.941566 28.17515 14.289197 28.670254 14.433995 28.979233 C 14.667791 29.478121 14.697266 29.65638 14.697266 30.57147 C 14.697266 31.566471 14.68459 31.627575 14.328873 32.347321 C 14.085862 32.83902 13.807467 33.227402 13.510903 33.488441 C 13.263636 33.7061 12.814178 34.003185 12.512109 34.148643 C 12.047891 34.372177 11.811752 34.417522 10.986328 34.441639 Z M 10.797705 33.388443 C 10.962517 33.393936 11.318373 33.332802 11.588496 33.252586 C 11.858619 33.172371 12.275561 32.95713 12.515032 32.774281 C 12.791206 32.563408 13.071193 32.215263 13.280638 31.822304 C 13.550433 31.316116 13.61084 31.095432 13.61084 30.615982 C 13.61084 30.196104 13.540822 29.876249 13.364697 29.491537 C 13.229317 29.195829 12.968659 28.803995 12.785457 28.620792 C 12.602255 28.437592 12.210419 28.176933 11.914712 28.041553 C 11.530001 27.865427 11.210147 27.79541 10.790267 27.79541 C 10.309969 27.79541 10.090199 27.855782 9.579368 28.128054 C 9.166522 28.348097 8.84449 28.610483 8.628009 28.9032 C 8.448019 29.146576 8.229977 29.582422 8.143473 29.871746 C 8.035883 30.231594 8.00669 30.552317 8.051073 30.886892 C 8.086758 31.155895 8.206223 31.556383 8.316551 31.776863 C 8.426879 31.997343 8.655233 32.324406 8.824003 32.503677 C 8.992774 32.682941 9.306641 32.920864 9.521484 33.032391 C 9.736328 33.143917 10.043945 33.267403 10.205078 33.306808 C 10.366211 33.346207 10.632893 33.382942 10.797705 33.388443 Z"/>
    <path id="path3" fill="#000000" fill-opacity="0.954851" fill-rule="evenodd" stroke="none" d="M 9.066906 40.625 C 9.066906 40.625 9.555964 40.429688 9.765625 40.429688 C 10.016735 40.429688 10.449219 40.625 10.449219 40.625 L 10.449584 44.165039 C 10.44993 47.525196 10.459809 47.721252 10.644004 48.023354 C 10.750734 48.198406 10.981282 48.428955 11.156334 48.535683 C 11.469287 48.726494 11.672373 48.729744 23.300989 48.730103 C 35.127365 48.730469 35.127365 48.730469 35.450211 48.510742 C 35.627777 48.389893 35.864986 48.166973 35.977348 48.015366 C 36.17923 47.742966 36.181957 47.662014 36.208698 41.155014 L 36.23576 34.570313 C 36.23576 34.570313 36.612255 34.379715 36.816406 34.375 C 37.053326 34.36953 37.5 34.570313 37.5 34.570313 L 37.5 40.804024 C 37.5 45.09903 37.465202 47.211002 37.388115 47.594849 C 37.32658 47.90126 37.139534 48.381004 36.972458 48.660942 C 36.787205 48.971336 36.485172 49.292725 36.198338 49.484676 C 35.939644 49.657787 35.566387 49.844311 35.368877 49.89917 C 35.133251 49.964615 30.963337 49.997623 23.242188 49.995171 C 13.598612 49.992104 11.407676 49.967552 11.103777 49.85915 C 10.899819 49.786396 10.559619 49.612167 10.347775 49.471977 C 10.135932 49.331783 9.847987 49.04388 9.707896 48.832191 C 9.567807 48.620502 9.382253 48.258327 9.295552 48.027363 C 9.164039 47.677013 9.132032 47.02887 9.102411 44.116211 Z M 23.407207 48.217968 C 23.007828 48.249256 22.807236 48.208 22.460938 48.023346 C 22.18045 47.873783 21.943672 47.649189 21.80637 47.402462 C 21.688059 47.189857 21.564398 46.841381 21.531572 46.628071 C 21.48395 46.3186 21.527412 46.131706 21.746687 45.703125 C 21.943495 45.318451 22.132347 45.104111 22.412109 44.947895 C 22.670992 44.803337 22.967413 44.729774 23.291016 44.729774 C 23.618202 44.729774 23.908083 44.802711 24.169645 44.950848 C 24.40167 45.082253 24.651518 45.337833 24.785646 45.580982 C 24.909756 45.805969 25.035238 46.137573 25.064497 46.317883 C 25.100409 46.539177 25.045776 46.812908 24.896387 47.160172 C 24.742073 47.518883 24.559877 47.750862 24.29455 47.926445 C 24.046741 48.090439 23.737263 48.192112 23.407207 48.217968 Z M 23.29859 46.972656 C 23.469259 46.972656 23.6614 46.909397 23.725569 46.832077 C 23.789738 46.754761 23.828077 46.569378 23.810768 46.42012 C 23.790892 46.248726 23.684498 46.095776 23.521996 46.004982 C 23.291542 45.876228 23.238047 45.878689 23.0093 46.028568 C 22.835367 46.142536 22.753906 46.282406 22.753906 46.467094 C 22.753906 46.616249 22.806641 46.791016 22.871094 46.855469 C 22.935547 46.919922 23.12792 46.972656 23.29859 46.972656 Z M 12.548828 42.822266 L 34.033203 42.822266 L 34.058678 38.696289 L 34.084148 34.570313 C 34.084148 34.570313 34.455795 34.375 34.667969 34.375 C 34.880138 34.375 35.357185 34.570313 35.357185 34.570313 L 35.32996 39.108688 C 35.302734 43.64706 35.302734 43.64706 35.080307 43.869431 C 34.857883 44.091797 34.857883 44.091797 23.410389 44.115429 C 14.351238 44.134129 11.912356 44.113354 11.720675 44.015846 C 11.587456 43.948082 11.423308 43.783638 11.355903 43.650421 C 11.274901 43.49033 11.23286 42.936367 11.231908 42.016602 C 11.230469 40.625 11.230469 40.625 11.862036 40.625 C 12.493603 40.625 12.493603 40.625 12.521216 41.723633 Z M 9.075279 20.410156 C 9.128041 3.306297 9.147206 2.349983 9.292024 1.972637 C 9.380664 1.741673 9.567807 1.379498 9.707896 1.167805 C 9.847987 0.956116 10.135932 0.668217 10.347775 0.528027 C 10.559619 0.387833 10.899819 0.213604 11.103777 0.14085 C 11.407676 0.032448 13.598612 0.007896 23.242188 0.004829 C 30.963337 0.002373 35.133251 0.035385 35.368877 0.10083 C 35.566387 0.155689 35.939644 0.342209 36.198338 0.515327 C 36.485172 0.707275 36.787205 1.028664 36.972458 1.339058 C 37.139534 1.618996 37.32658 2.09874 37.388115 2.405148 C 37.453861 2.732525 37.5 3.942184 37.5 5.338551 C 37.5 5.338551 37.508137 7.390835 37.5 7.421875 C 37.449776 7.613403 37.123764 7.8125 36.914063 7.8125 C 36.704361 7.8125 36.424435 7.776863 36.230469 7.519531 C 36.20359 7.483875 36.211712 4.987408 36.211712 4.987408 C 36.183163 2.39806 36.171295 2.246017 35.977348 1.984478 C 35.864986 1.832954 35.627777 1.610107 35.450211 1.489258 C 35.127365 1.269531 35.127365 1.269531 23.300989 1.269894 C 11.672373 1.270256 11.469287 1.273506 11.156334 1.464317 C 10.981282 1.571045 10.750734 1.801594 10.644004 1.976643 C 10.454058 2.288181 10.449942 2.486706 10.449584 11.352539 L 10.449219 20.410156 C 10.449219 20.410156 10.002608 20.605162 9.765625 20.605469 C 9.526478 20.605778 9.075279 20.410156 9.075279 20.410156 Z M 11.230469 20.410156 C 11.230469 6.987854 11.262944 4.525829 11.338713 4.308479 C 11.39926 4.134796 11.569249 3.934731 11.724488 3.854454 C 11.963937 3.730629 13.551089 3.710938 23.291016 3.710938 C 32.870625 3.710938 34.620758 3.73201 34.849117 3.850098 C 34.997128 3.926636 35.170723 4.104485 35.234894 4.245316 C 35.310246 4.410694 35.351563 5.070389 35.351563 6.108112 C 35.351563 7.714844 35.351563 7.714844 34.719551 7.714844 C 34.08754 7.714844 34.08754 7.714844 34.060371 6.37207 L 34.033203 5.029297 L 23.291016 5.029297 L 12.548828 5.029297 L 12.523823 12.719727 L 12.498816 20.410156 C 12.498816 20.410156 12.119516 20.600941 11.914063 20.605469 C 11.677137 20.610689 11.230469 20.410156 11.230469 20.410156 Z M 22.363281 3.115849 C 21.530762 3.1124 20.72867 3.065414 20.580854 3.011429 C 20.427414 2.955391 20.287527 2.815361 20.254826 2.685066 C 20.223322 2.559547 20.212814 2.377579 20.231476 2.280685 C 20.250135 2.183792 20.374876 2.049126 20.508677 1.98143 C 20.67417 1.897701 21.257874 1.857887 22.334272 1.856907 C 23.338568 1.855991 24.00831 1.897259 24.167669 1.969868 C 24.305761 2.032787 24.446136 2.193398 24.479614 2.326778 C 24.51309 2.460159 24.496737 2.639393 24.443272 2.725075 C 24.389807 2.810753 24.240515 2.935143 24.111509 3.001488 C 23.953293 3.082859 23.384308 3.120079 22.363281 3.115849 Z M 25.878906 3.027344 C 25.779158 3.027344 25.628489 2.958286 25.544083 2.873882 C 25.459682 2.789482 25.390625 2.600513 25.390625 2.45396 C 25.390625 2.307407 25.443356 2.134762 25.507813 2.070313 C 25.572264 2.005859 25.739258 1.953125 25.878906 1.953125 C 26.018553 1.953125 26.185547 2.005859 26.249998 2.070313 C 26.314455 2.134762 26.367188 2.307407 26.367188 2.45396 C 26.367188 2.600513 26.298128 2.789482 26.213728 2.873882 C 26.129322 2.958286 25.978653 3.027344 25.878906 3.027344 Z"/>
</svg>
