<svg width="32" height="32" viewBox="0 0 32 32" fill="none" xmlns="http://www.w3.org/2000/svg">
<rect width="32" height="32" rx="8" fill="#0073E6"/>
<path d="M22.3357 7.52891C21.7196 7.06811 21.5836 6.20913 21.9995 5.57855C21.62 5.36028 21.2263 5.15684 20.8231 4.98354C20.5618 5.69299 19.7966 6.08716 19.0613 5.86629C18.3273 5.64661 17.9074 4.88935 18.0804 4.15329C17.6504 4.07629 17.2123 4.02661 16.7762 4C16.7677 4.75208 16.1804 5.38735 15.4187 5.43139C14.6518 5.4733 14.0034 4.90842 13.9144 4.15329C13.483 4.23005 13.054 4.33318 12.6304 4.45233C12.887 5.16979 12.5515 5.96613 11.8462 6.26917C11.1404 6.56939 10.3395 6.26282 9.99951 5.58515C9.62101 5.80602 9.25168 6.04454 8.89621 6.30779C9.37479 6.89057 9.33344 7.75143 8.77569 8.27887C8.21723 8.80443 7.35593 8.791 6.80663 8.27015C6.52258 8.61299 6.25686 8.96596 6.01558 9.32739C6.66895 9.7105 6.92175 10.5351 6.57662 11.2208C6.22843 11.9038 5.41647 12.189 4.72245 11.8871C4.57044 12.3041 4.44404 12.727 4.33738 13.1535C5.08497 13.2884 5.60231 13.9776 5.51515 14.74C5.41859 15.501 4.75464 16.0454 4 16.0002C4.00047 16.4438 4.02255 16.8823 4.06907 17.3217C4.81643 17.194 5.54005 17.6619 5.71438 18.4083C5.89153 19.1569 5.44678 19.9019 4.7194 20.1195C4.86952 20.5292 5.04456 20.9337 5.23909 21.3295C5.8974 20.9549 6.73732 21.1475 7.1574 21.7908C7.57654 22.4348 7.4149 23.282 6.80898 23.7329C6.9476 23.8994 7.09255 24.0654 7.24456 24.2269C7.39728 24.3896 7.55281 24.5462 7.70998 24.6971C8.19937 24.1205 9.05339 24.0131 9.66706 24.4713C10.2833 24.9352 10.4191 25.7871 9.99786 26.4179C10.3836 26.6418 10.7758 26.842 11.177 27.0162C11.4378 26.3044 12.208 25.9093 12.9398 26.1323C13.6721 26.3555 14.0922 27.1085 13.9191 27.8486C14.3546 27.9258 14.7916 27.9708 15.2279 28C15.2326 27.2451 15.8205 26.6126 16.5831 26.5724C17.3473 26.5276 17.9991 27.0944 18.0895 27.8458C18.5195 27.7685 18.9487 27.6661 19.3714 27.5448C19.1162 26.8304 19.452 26.0341 20.1554 25.7358C20.8623 25.433 21.6654 25.74 22.0032 26.4146C22.3826 26.1956 22.7522 25.9578 23.1063 25.692C22.6282 25.1104 22.6688 24.246 23.2261 23.724C23.7845 23.1996 24.6456 23.2106 25.1968 23.7291C25.482 23.3882 25.7449 23.0345 25.9874 22.6735C25.3363 22.2916 25.0779 21.4689 25.4249 20.7844C25.7712 20.0933 26.5855 19.8105 27.2807 20.1131C27.4349 19.697 27.5587 19.2723 27.6573 18.8456C26.9203 18.7128 26.3952 18.0231 26.488 17.259C26.579 16.5011 27.249 15.951 27.9999 15.9969C28.0018 15.5557 27.9785 15.1196 27.9339 14.6776C27.1849 14.8062 26.4613 14.3364 26.2893 13.591C26.1107 12.8368 26.5529 12.0958 27.2819 11.8827C27.1308 11.4699 26.957 11.0644 26.7613 10.667C26.1009 11.0453 25.263 10.8553 24.8439 10.2104C24.4231 9.56616 24.5866 8.71919 25.1937 8.26545C25.0507 8.09827 24.9083 7.93368 24.7593 7.77332C24.6059 7.61062 24.4494 7.45239 24.2925 7.29839C23.8029 7.87787 22.9465 7.98807 22.3357 7.52891ZM9.3224 11.0663L10.1273 11.7468C9.03013 13.0482 8.57058 14.6736 8.70473 16.2456L7.65501 16.336C7.49666 14.4937 8.04125 12.5898 9.3224 11.0663ZM16.3394 24.3649C14.4991 24.5229 12.602 23.9797 11.0791 22.6936L11.7566 21.885C13.0578 22.9853 14.677 23.4494 16.2478 23.3147L16.3394 24.3649ZM22.6763 20.9349L21.8731 20.2565C22.9707 18.9492 23.4361 17.3271 23.2975 15.7532L24.3482 15.6621C24.5035 17.5044 23.9596 19.4091 22.6763 20.9349ZM20.1422 12.1075C22.2851 14.3986 22.1698 18.0022 19.8824 20.1536C17.5966 22.3003 14.0006 22.1824 11.8588 19.8901C9.71687 17.6033 9.82377 14.0028 12.1166 11.8518C14.4052 9.70201 17.9956 9.81198 20.1422 12.1075ZM20.9227 9.30526C20.9227 9.30526 20.9227 9.30526 20.9244 9.30643L20.2444 10.1157C18.9443 9.01399 17.3246 8.54942 15.7521 8.68787L15.6637 7.63534C17.5033 7.47499 19.401 8.02198 20.9227 9.30526Z" fill="white"/>
</svg>
