<svg width="78" height="32" viewBox="0 0 78 32" fill="none" xmlns="http://www.w3.org/2000/svg">
<path d="M3.75152 0.0136719L0 3.67931L12.6231 16.0041L0.00782761 28.3365L3.75934 32.0002L20.128 16.0041L3.75152 0.0136719Z" fill="#0073E6"/>
<path d="M18.2193 0.00927734L14.4697 3.6769L27.0889 16.0016L14.4756 28.3302L18.2271 31.9978L34.5938 15.9997L18.2193 0.00927734Z" fill="#0073E6"/>
<path d="M32.6865 0.00732422L28.9429 3.67104L41.5601 15.9958L28.9448 28.3301L32.6943 31.9958L49.0611 15.9958L32.6865 0.00732422Z" fill="#0073E6"/>
<path d="M46.7294 0.00390625L43 3.66955L55.545 15.9963L43.0078 28.3248L46.7372 31.9905L63 15.9943L46.7294 0.00390625Z" fill="#0073E6"/>
<path d="M61.6255 0L57.876 3.66377L70.501 15.9924L57.8818 28.3229L61.6353 31.9885L78 15.9904L61.6255 0Z" fill="#0073E6"/>
</svg>
